<svg width="25" height="25" viewBox="0 0 25 25" fill="none" xmlns="http://www.w3.org/2000/svg">
<path d="M18.2939 10.4068L18.2881 10.5185C18.2832 10.6079 18.2783 10.6954 18.2695 10.7825C18.252 10.9448 18.2188 11.1046 18.1465 11.2528C17.9844 11.5878 17.7129 11.7554 17.3428 11.7602C17.248 11.7615 17.1709 11.7333 17.1104 11.6802C17.0684 11.6437 17.0352 11.5953 17.0107 11.5367C16.9258 11.334 16.9326 11.0886 17.1289 10.8937C17.2754 10.7491 17.4521 10.6539 17.6426 10.587C17.7793 10.539 17.9199 10.4993 18.0596 10.4599L18.0713 10.4562L18.2295 10.4111C18.2402 10.4081 18.252 10.4079 18.2676 10.4076L18.2939 10.4068Z" fill="white"/>
<path d="M10.9648 11.3528L12.4072 11.0292C12.4072 10.8186 12.3652 10.6293 12.248 10.4616C12.1504 10.3223 12.0078 10.2576 11.8438 10.2665C11.5195 10.2841 11.2695 10.4333 11.1152 10.7263C11.0273 10.8942 10.9834 11.0752 10.9648 11.2632V11.3528Z" fill="white"/>
<path fill-rule="evenodd" clip-rule="evenodd" d="M20.5117 1C21.1797 1 21.8057 1.15373 22.3721 1.512C23.2529 2.06918 23.7871 2.86324 23.957 3.89392C23.9863 4.07091 23.998 4.25271 23.998 4.43211C24.001 9.76383 24 15.0955 24 20.4275C24 22.1448 22.7725 23.6222 21.083 23.938C20.8711 23.9775 20.6582 23.9984 20.4424 23.9984L16.5859 23.9977C12.5771 23.9969 8.56836 23.996 4.55957 24C2.94922 24.0016 1.46387 22.8926 1.08691 21.2219C1.02637 20.9569 1.00098 20.6879 1.00098 20.4166L1 4.46286C1 2.86057 2.02539 1.63953 3.28906 1.19705C3.68262 1.05909 4.08789 1.00027 4.50391 1.00027L20.5117 1ZM5.16113 16.3366V18.6263C5.16113 18.6611 5.16309 18.6961 5.15723 18.73C5.15039 18.7689 5.13086 18.7986 5.10254 18.8168C5.08301 18.8291 5.06055 18.8362 5.03516 18.8373C4.96973 18.8399 4.92383 18.8078 4.90625 18.7405C4.89844 18.7076 4.89648 18.672 4.89648 18.6375L4.89355 16.8893L4.89453 16.2901C4.89453 16.1186 4.89453 15.9471 4.89258 15.7757C4.88965 15.4471 4.62207 15.188 4.29004 15.1851C3.95703 15.1822 3.69043 15.4335 3.67676 15.7639L3.67578 15.8575V20.7799L3.67871 20.936C3.69141 21.3611 3.85059 21.7266 4.14648 22.0277C4.60938 22.4985 5.18164 22.6153 5.80469 22.4817C6.5498 22.3218 7.05762 21.663 7.05859 20.8983C7.05957 20.0104 7.05957 19.1223 7.05762 18.2344C7.05664 17.8298 6.87793 17.5098 6.55371 17.2796C6.25293 17.0657 5.94629 16.8591 5.63965 16.6525L5.63086 16.6467L5.25586 16.3941C5.24121 16.3838 5.22461 16.3743 5.20508 16.3625L5.16113 16.3366ZM18.3105 9.67988L18.2793 9.68927L18.2412 9.70019L17.6133 9.84243C17.4492 9.8794 17.2871 9.92346 17.1309 9.98068C16.9863 10.0335 16.8457 10.0976 16.7109 10.1777C16.4434 10.337 16.2217 10.5408 16.0791 10.8228C15.9287 11.122 15.9043 11.4383 15.9531 11.7645C15.9678 11.8615 15.9902 11.9556 16.0234 12.0456C16.0479 12.1102 16.0781 12.1727 16.1152 12.2326C16.3174 12.561 16.6123 12.7265 17 12.7134C17.2529 12.7048 17.4902 12.6302 17.7158 12.5166C17.9219 12.4123 18.083 12.258 18.1973 12.0567L18.2471 11.9676L18.2578 11.9474L18.29 11.8891C18.3047 11.9305 18.3174 11.9716 18.3301 12.012C18.3682 12.1278 18.4043 12.2384 18.4668 12.3377L19.4609 12.1123C19.4531 12.0868 19.4434 12.062 19.4346 12.0377L19.4258 12.0161C19.4092 11.9722 19.3936 11.9295 19.3818 11.8867C19.375 11.8638 19.3691 11.8407 19.3652 11.8174C19.3379 11.6469 19.3154 11.4739 19.3135 11.3014C19.3105 10.9277 19.3105 10.554 19.3105 10.1803V9.28365C19.3105 9.20955 19.3076 9.13558 19.3018 9.06202C19.293 8.95987 19.2773 8.85848 19.251 8.75855C19.1465 8.37114 18.9072 8.11314 18.5127 8.02117C18.4453 8.00543 18.375 7.99369 18.3047 7.98639C18.2334 7.97892 18.1611 7.9761 18.0908 7.97839C17.7129 7.99069 17.3506 8.08079 17.0078 8.24147C16.5068 8.47622 16.1992 8.85988 16.1172 9.41252C16.1035 9.50315 16.1006 9.59512 16.0928 9.69779L17.1191 9.46599L17.1348 9.40182L17.167 9.26841C17.2139 9.08366 17.3271 8.95212 17.5039 8.88769C17.6104 8.84919 17.7236 8.8179 17.8359 8.81122C17.9375 8.80509 18.0234 8.82389 18.0918 8.87111C18.1523 8.91245 18.2002 8.97557 18.2334 9.06281L18.2393 9.07567L18.2559 9.12209C18.2607 9.13852 18.2646 9.15512 18.2666 9.17189C18.2832 9.33979 18.2959 9.5085 18.3105 9.67988ZM10.9473 12.1294L11.2949 12.0495L13.3223 11.5942C13.416 11.5732 13.416 11.5723 13.4209 11.4783V11.4723C13.4277 11.3475 13.4277 11.223 13.4209 11.099C13.415 10.9814 13.4023 10.8641 13.3828 10.7472C13.3359 10.4678 13.2559 10.2004 13.1016 9.96034C12.9111 9.66597 12.6475 9.47962 12.2998 9.41733C12.1826 9.39641 12.0664 9.39027 11.9512 9.39544C11.8262 9.40103 11.7021 9.41988 11.5781 9.44754C11.1562 9.54165 10.7949 9.7403 10.5078 10.067C10.2793 10.3269 10.1279 10.6285 10.0303 10.9579C9.87695 11.4749 9.85254 12.0008 9.93359 12.5321C9.98047 12.8393 10.0684 13.1339 10.2373 13.3989C10.4307 13.7026 10.6982 13.9044 11.0527 13.978C11.1709 14.0025 11.2891 14.0106 11.4062 14.0062C11.5469 14.0009 11.6865 13.9778 11.8252 13.9435C12.1738 13.8569 12.4912 13.7085 12.7568 13.4612C13.1113 13.1307 13.2959 12.7126 13.3838 12.2449L13.3848 12.2296C13.3867 12.2126 13.3848 12.1943 13.3848 12.1722L12.3477 12.4051L12.3271 12.4639L12.2822 12.5888C12.1826 12.858 11.9883 13.0208 11.71 13.0804C11.4902 13.1275 11.293 13.0855 11.1543 12.8928C10.9932 12.6671 10.9395 12.4102 10.9473 12.1294ZM3.89648 11.2493C3.87402 11.4118 3.88184 14.6536 3.9043 14.7287C4.24512 14.6162 4.57227 14.6523 4.89258 14.8432V13.9806L4.89355 13.1943C4.89355 13.1379 4.89453 13.0815 4.89746 13.0251L4.90234 12.9271C4.9043 12.8812 4.9082 12.8354 4.91309 12.7898C4.92578 12.6683 4.94531 12.5485 4.97949 12.4322C5.00391 12.3464 5.03613 12.2625 5.07715 12.1813C5.19434 11.9524 5.37305 11.7998 5.62695 11.7428C5.89258 11.6835 6.07617 11.7907 6.15625 12.049L6.16211 12.0649L6.16699 12.0893C6.1709 12.1291 6.17676 12.1689 6.18262 12.2086L6.19238 12.2784L6.19629 12.3226C6.2002 12.3581 6.20215 12.3936 6.20215 12.4291C6.20508 13.2823 6.2041 14.1354 6.2041 14.9886L6.20605 15.0696L6.20898 15.1217L7.19434 14.8996V14.8808L7.19629 14.8423L7.19824 14.7993L7.20117 14.1386C7.20215 13.7099 7.20312 13.2813 7.20215 12.8527L7.20117 12.1567C7.20117 11.9738 7.18164 11.7899 7.15527 11.6089C7.12305 11.395 7.05469 11.1913 6.92773 11.0121C6.80566 10.8408 6.64355 10.7287 6.43457 10.6916C6.13184 10.6376 5.84863 10.6942 5.58594 10.8504C5.32715 11.0038 5.13086 11.2217 4.96289 11.4677L4.93066 11.5098L4.89551 11.5562C4.88965 11.3664 4.89844 11.203 4.88965 11.033L3.89648 11.2493ZM23.0654 8.37221L23.0527 8.30146C23.0459 8.26167 23.0391 8.22324 23.0293 8.18584L23.0195 8.14522C22.8809 7.68322 22.6016 7.3525 22.1289 7.20919C21.9062 7.14155 21.6787 7.14182 21.4492 7.17444C20.8936 7.25384 20.4531 7.51933 20.1387 7.98561C19.8164 8.46365 19.6982 9.00425 19.6729 9.56999C19.6611 9.84056 19.6836 10.1101 19.7324 10.3769C19.7812 10.6517 19.8623 10.9156 20.0117 11.1544C20.2158 11.4806 20.5029 11.6843 20.8877 11.7426C21.126 11.7784 21.3574 11.7519 21.5879 11.6952C21.9053 11.6174 22.1992 11.4904 22.4512 11.2795C22.791 10.9958 22.9766 10.6239 23.0605 10.1967C23.083 10.0825 23.0947 9.96622 23.1133 9.83628L22.1094 10.0614L22.1006 10.0937L22.084 10.151L22.0508 10.2528C22.0244 10.3342 21.998 10.4156 21.96 10.491C21.8604 10.6884 21.6943 10.8039 21.4756 10.8461C21.252 10.8894 21.0762 10.8172 20.9551 10.6303C20.8945 10.5357 20.8447 10.4285 20.8145 10.3199C20.6875 9.86542 20.6807 9.40396 20.7646 8.94089C20.8008 8.74171 20.8623 8.55134 20.9727 8.37943C21.1055 8.17383 21.292 8.05379 21.5381 8.03881C21.6875 8.02972 21.8174 8.07838 21.916 8.19682C21.9346 8.21886 21.9512 8.24187 21.9658 8.26567C22.0098 8.33604 22.0381 8.41342 22.0615 8.49333L22.0928 8.59118L23.0654 8.37221ZM7.99414 11.2124V13.5384C7.99414 13.7061 8.02246 13.87 8.08887 14.0248C8.21387 14.3138 8.4248 14.4918 8.74512 14.5333C8.89062 14.5523 9.02734 14.5223 9.16504 14.4886C9.34375 14.4451 9.51465 14.3812 9.66992 14.2999V13.4818L9.54883 13.513C9.46387 13.5351 9.38184 13.5566 9.2998 13.5727C9.23633 13.5849 9.18359 13.5826 9.1416 13.566C9.06934 13.5381 9.02539 13.4693 9.01172 13.3609L9.00195 13.2668L8.99805 13.1797L8.99707 13.1433C8.99805 12.7481 9.00293 12.353 9.00488 11.9578L9.00684 11.0841V10.9854L9.72461 10.8212V9.94216L9.01074 10.0994V9.28498L8.00977 9.5085V10.3234L7.4375 10.456V11.3351L7.99414 11.2124ZM2.13379 10.1863V16.0308L3.1709 15.7974V9.95499L2.13379 10.1863ZM13.8496 13.3981L13.875 13.395C13.8896 13.3933 13.9033 13.3918 13.915 13.389L14.7373 13.2058C14.8564 13.1788 14.8564 13.178 14.8564 13.0484C14.8584 12.4519 14.8564 11.8557 14.8652 11.2592C14.8682 11.0838 14.8906 10.9063 14.9277 10.7343C15.0332 10.233 15.3311 9.90152 15.8311 9.76276L15.877 9.74773L15.8975 9.74057V8.58958C15.7812 8.61362 15.6719 8.64477 15.5674 8.68747C15.4863 8.72073 15.4082 8.76101 15.334 8.81042C15.0869 8.97458 14.9668 9.22536 14.8574 9.49112L14.8213 8.79545L13.8496 9.01415V13.3981ZM3.37891 19.7736V18.8199L3.36426 18.817L3.35156 18.8161L2.44238 19.0338C2.23828 19.0827 2.04102 19.2918 2.10645 19.5976C2.16113 19.8506 2.41211 20.0008 2.67188 19.9425L2.89258 19.8907L3.19727 19.8171L3.37891 19.7736ZM3.38086 17.5767C3.36914 17.5737 3.36133 17.5697 3.35547 17.571L3.19727 17.6085L3.15527 17.6186C2.91211 17.6765 2.66895 17.7345 2.42676 17.7946C2.36914 17.8089 2.31738 17.8352 2.27246 17.8714C2.24707 17.8913 2.22461 17.9141 2.20312 17.9395C2.07227 18.0993 2.05664 18.3186 2.16406 18.4926C2.2207 18.5843 2.30566 18.6512 2.4043 18.6859C2.48633 18.715 2.57715 18.7213 2.66895 18.7006C2.88477 18.6517 3.09961 18.5977 3.31445 18.5453C3.33008 18.5415 3.3457 18.536 3.36133 18.5306L3.38184 18.5231L3.38086 17.5767ZM3.38379 16.3348L3.37207 16.3299L3.36328 16.3275L2.8584 16.4443C2.70996 16.4789 2.56152 16.5149 2.41504 16.5553C2.16602 16.624 2.03613 16.9 2.11719 17.147C2.19629 17.3858 2.43164 17.512 2.69141 17.4518C2.88867 17.4061 3.08594 17.3579 3.28223 17.3098L3.29688 17.3063C3.31738 17.3013 3.33691 17.2944 3.35742 17.2875L3.38379 17.2783V16.3348Z" fill="white"/>
</svg>
