<svg width="51" height="25" viewBox="0 0 51 25" fill="none" xmlns="http://www.w3.org/2000/svg">
<path d="M49.9999 19.7426C48.7764 19.7426 47.5528 19.7426 46.3112 19.7426C46.1762 19.0872 46.0314 18.446 45.9171 17.7995C45.8697 17.5311 45.7847 17.427 45.4883 17.4309C44.0092 17.4501 42.5297 17.4454 41.0504 17.4335C40.8265 17.4317 40.7375 17.5065 40.6693 17.7126C40.4656 18.3288 40.2428 18.9387 40.0148 19.5461C39.9838 19.6287 39.8812 19.7418 39.811 19.7424C38.4776 19.7542 37.1443 19.7511 35.7725 19.7511C36.0224 19.1426 36.2592 18.5618 36.4994 17.9825C38.2187 13.8378 39.9385 9.69341 41.6582 5.54903C42.0307 4.6514 42.589 4.27551 43.5495 4.27546C44.62 4.27538 45.6903 4.27543 46.7881 4.27543C46.8952 4.78074 47.0029 5.27863 47.106 5.77754C47.952 9.87336 48.796 13.9696 49.644 18.065C49.7526 18.5897 49.8808 19.1101 49.9999 19.6325C49.9999 19.6692 49.9999 19.7059 49.9999 19.7426ZM45.1721 14.2462C44.7789 12.3417 44.391 10.4627 44.0032 8.58386C43.9874 8.58072 43.9715 8.57759 43.9557 8.57445C43.2799 10.4581 42.6041 12.3418 41.9208 14.2462C43.0244 14.2462 44.0812 14.2462 45.1721 14.2462Z" fill="white"/>
<path d="M33.9309 4.00001C34.4177 4.09134 34.9082 4.16644 35.3902 4.27879C35.83 4.38131 36.2607 4.5242 36.7282 4.65874C36.4926 5.77209 36.2625 6.85876 36.0374 7.92198C35.4208 7.73922 34.8314 7.52879 34.2254 7.39365C33.3967 7.2088 32.5475 7.13837 31.7184 7.37181C31.3813 7.46672 31.0402 7.64895 30.7749 7.87867C30.3197 8.2727 30.3136 8.83993 30.7483 9.25362C31.048 9.53893 31.4033 9.77311 31.7584 9.98879C32.5655 10.4793 33.4129 10.9058 34.1973 11.4296C35.121 12.0466 35.7947 12.8948 35.9362 14.0416C36.1864 16.0701 35.4439 17.6679 33.7578 18.7983C32.6974 19.509 31.4975 19.8266 30.2472 19.9441C28.5015 20.1082 26.7901 19.9106 25.1219 19.357C25.0101 19.3198 24.9014 19.2735 24.7923 19.2284C24.7598 19.2149 24.7315 19.1911 24.6816 19.1597C24.9172 18.0446 25.1533 16.9279 25.3959 15.78C25.6802 15.9054 25.9472 16.0312 26.22 16.1422C27.5232 16.6729 28.8691 16.9155 30.2639 16.6515C30.6268 16.5828 30.9969 16.4209 31.3045 16.2125C31.9719 15.7604 32.036 14.9108 31.4282 14.3796C31.0287 14.0306 30.5485 13.7728 30.0934 13.4926C29.3825 13.055 28.6273 12.682 27.9545 12.1923C27.0921 11.5646 26.4675 10.7274 26.3491 9.61497C26.1718 7.94914 26.7836 6.59658 28.049 5.54561C29.15 4.63119 30.4572 4.22536 31.8499 4.05493C31.9273 4.04547 32.0026 4.01871 32.0788 4C32.6962 4.00001 33.3136 4.00001 33.9309 4.00001Z" fill="white"/>
<path d="M19.5859 4.28821C19.3786 4.79206 19.1824 5.27248 18.9835 5.75176C17.0851 10.328 15.1843 14.9033 13.2936 19.4829C13.2035 19.7011 13.0932 19.7584 12.8743 19.7566C11.6761 19.7465 10.4776 19.7425 9.27961 19.7592C9.0256 19.7627 8.94282 19.6728 8.88433 19.4425C7.86849 15.4425 6.83573 11.4468 5.83143 7.44384C5.64718 6.70945 5.27834 6.20789 4.58658 5.90007C3.47767 5.40665 2.32661 5.06004 1.15247 4.7783C1.10051 4.76585 1.04882 4.7522 1 4.73988C1.00586 4.27564 1.00586 4.27561 1.44282 4.2756C3.53981 4.2756 5.63679 4.27514 7.73381 4.27582C8.72838 4.27614 9.44635 4.85998 9.63441 5.85475C10.1667 8.67088 10.6878 11.4892 11.2136 14.3066C11.2366 14.4298 11.2628 14.5524 11.2976 14.7259C11.352 14.6226 11.39 14.5646 11.4147 14.5013C12.7171 11.1726 14.02 7.84403 15.3157 4.51267C15.3865 4.33082 15.4737 4.26914 15.668 4.2707C16.8844 4.28044 18.1009 4.27541 19.3173 4.27608C19.3959 4.27613 19.4745 4.28299 19.5859 4.28821Z" fill="white"/>
<path d="M17.998 19.7518C19.0935 14.5785 20.1813 9.44164 21.2718 4.29213C22.5983 4.29213 23.909 4.29213 25.245 4.29213C25.0797 5.07643 24.9179 5.84574 24.7552 6.61482C23.8551 10.8682 22.9515 15.121 22.0613 19.3765C21.9995 19.6721 21.8957 19.766 21.592 19.7601C20.5031 19.7389 19.4136 19.7518 18.3244 19.7518C18.2267 19.7518 18.1289 19.7518 17.998 19.7518Z" fill="white"/>
</svg>
