<svg width="79" height="25" viewBox="0 0 79 25" fill="none" xmlns="http://www.w3.org/2000/svg">
<path d="M34.8069 14.9643V12.0128C34.8069 10.8913 34.0986 10.1436 32.9573 10.1436C32.3474 10.1436 31.7374 10.3207 31.3045 10.9897C30.97 10.4584 30.4585 10.1436 29.7501 10.1436C29.2385 10.1436 28.7466 10.301 28.3728 10.8519V10.2617H27.3496V14.9643H28.3924V12.3473C28.3924 11.5209 28.845 11.0881 29.5533 11.0881C30.242 11.0881 30.5765 11.5406 30.5765 12.3277V14.9446H31.6194V12.3277C31.6194 11.5013 32.0916 11.0684 32.7802 11.0684C33.4886 11.0684 33.8231 11.5209 33.8231 12.308V14.9249H34.8069V14.9643ZM50.115 10.2617H48.4425V8.82529H47.4193V10.2617H46.4552V11.2061H47.4193V13.3508C47.4193 14.4527 47.8522 15.102 49.0525 15.102C49.505 15.102 50.0166 14.9643 50.3314 14.7282L50.0363 13.8427C49.7215 14.0198 49.387 14.1182 49.1312 14.1182C48.6196 14.1182 48.4425 13.8034 48.4425 13.3311V11.2061H50.115V10.2617ZM58.8709 10.1436C58.2806 10.1436 57.8871 10.4191 57.6313 10.8323V10.2617H56.6081V14.9643H57.6313V12.3277C57.6313 11.5406 57.9658 11.1077 58.6348 11.1077C58.8512 11.1077 59.0677 11.1471 59.2841 11.2258L59.5989 10.2617C59.3628 10.183 59.0677 10.1436 58.8709 10.1436ZM45.6485 10.6355C45.1566 10.301 44.4679 10.1436 43.7202 10.1436C42.52 10.1436 41.7526 10.7142 41.7526 11.6587C41.7526 12.426 42.3232 12.8983 43.3857 13.0557L43.8776 13.1344C44.4482 13.2131 44.704 13.3705 44.704 13.6263C44.704 14.0001 44.3302 14.1969 43.6218 14.1969C42.9135 14.1969 42.4019 13.9608 42.0477 13.705L41.5558 14.5117C42.1264 14.9249 42.8348 15.1217 43.6022 15.1217C44.9598 15.1217 45.7469 14.4724 45.7469 13.5869C45.7469 12.7605 45.1172 12.3277 44.0941 12.1702L43.6022 12.0915C43.1496 12.0325 42.7954 11.9341 42.7954 11.6193C42.7954 11.2651 43.1299 11.0684 43.7005 11.0684C44.3105 11.0684 44.8811 11.3045 45.1763 11.4816L45.6485 10.6355ZM73.0968 10.1436C72.5065 10.1436 72.113 10.4191 71.8572 10.8323V10.2617H70.834V14.9643H71.8572V12.3277C71.8572 11.5406 72.1917 11.1077 72.8607 11.1077C73.0771 11.1077 73.2936 11.1471 73.51 11.2258L73.8248 10.2617C73.6084 10.183 73.3132 10.1436 73.0968 10.1436ZM59.8941 12.6228C59.8941 14.0592 60.8976 15.102 62.4126 15.102C63.121 15.102 63.5932 14.9446 64.1048 14.5314L63.6129 13.705C63.2193 13.9805 62.8258 14.1379 62.3733 14.1379C61.5469 14.1379 60.9566 13.5279 60.9566 12.6228C60.9566 11.7177 61.5665 11.1274 62.3733 11.1077C62.8258 11.1077 63.2193 11.2651 63.6129 11.5406L64.1048 10.7142C63.5932 10.301 63.121 10.1436 62.4126 10.1436C60.8976 10.1436 59.8941 11.1864 59.8941 12.6228ZM69.4961 12.6228V10.2617H68.4729V10.8323C68.1384 10.3994 67.6465 10.1436 66.9775 10.1436C65.6592 10.1436 64.6164 11.1864 64.6164 12.6228C64.6164 14.0592 65.6592 15.102 66.9775 15.102C67.6465 15.102 68.1384 14.8265 68.4729 14.4133V14.984H69.4961V12.6228ZM65.6789 12.6228C65.6789 11.7964 66.2298 11.1077 67.1152 11.1077C67.9613 11.1077 68.5319 11.7571 68.5319 12.6228C68.5319 13.4886 67.9613 14.1379 67.1152 14.1379C66.2298 14.1182 65.6789 13.4492 65.6789 12.6228ZM53.3222 10.1436C51.9449 10.1436 50.9807 11.1471 50.9807 12.6228C50.9807 14.1182 51.9842 15.102 53.4009 15.102C54.1093 15.102 54.7586 14.9249 55.3292 14.433L54.8176 13.6656C54.4241 13.9805 53.9125 14.1575 53.4403 14.1575C52.7713 14.1575 52.181 13.8427 52.0236 12.9967H55.526C55.5456 12.8589 55.5456 12.7409 55.5456 12.6031C55.5456 11.1471 54.6405 10.1436 53.3222 10.1436ZM53.3025 11.0487C53.9715 11.0487 54.3847 11.4619 54.5028 12.1899H52.0629C52.1416 11.5209 52.5548 11.0487 53.3025 11.0487ZM78.9997 12.6228V8.37274H77.9765V10.8323C77.642 10.3994 77.1501 10.1436 76.4811 10.1436C75.1628 10.1436 74.12 11.1864 74.12 12.6228C74.12 14.0592 75.1628 15.102 76.4811 15.102C77.1501 15.102 77.642 14.8265 77.9765 14.4133V14.984H78.9997V12.6228ZM75.1825 12.6228C75.1825 11.7964 75.7334 11.1077 76.6189 11.1077C77.4649 11.1077 78.0355 11.7571 78.0355 12.6228C78.0355 13.4886 77.4649 14.1379 76.6189 14.1379C75.7334 14.1182 75.1825 13.4492 75.1825 12.6228ZM40.572 12.6228V10.2617H39.5489V10.8323C39.2144 10.3994 38.7225 10.1436 38.0535 10.1436C36.7352 10.1436 35.6923 11.1864 35.6923 12.6228C35.6923 14.0592 36.7352 15.102 38.0535 15.102C38.7225 15.102 39.2144 14.8265 39.5489 14.4133V14.984H40.572V12.6228ZM36.7745 12.6228C36.7745 11.7964 37.3255 11.1077 38.2109 11.1077C39.057 11.1077 39.6276 11.7571 39.6276 12.6228C39.6276 13.4886 39.057 14.1379 38.2109 14.1379C37.3058 14.1182 36.7745 13.4492 36.7745 12.6228Z" fill="white"/>
<path d="M11.3135 17.9675C12.9315 16.6882 13.9698 14.7079 13.9698 12.4851C13.9698 10.2622 12.9315 8.28194 11.3135 7.00265C12.5036 6.0617 14.0073 5.5 15.6422 5.5C19.5 5.5 22.6273 8.62732 22.6273 12.4851C22.6273 16.3428 19.5 19.4701 15.6422 19.4701C14.0073 19.4701 12.5036 18.9084 11.3135 17.9675Z" fill="white"/>
<path opacity="0.28" d="M11.3138 7.00265C9.6958 8.28194 8.65753 10.2622 8.65753 12.4851C8.65753 14.7079 9.6958 16.6882 11.3138 17.9675C10.1237 18.9084 8.61999 19.4701 6.98506 19.4701C3.12732 19.4701 0 16.3428 0 12.4851C0 8.62732 3.12732 5.5 6.98506 5.5C8.61999 5.5 10.1237 6.0617 11.3138 7.00265Z" fill="white"/>
<path opacity="0.52" d="M11.3135 17.9675C12.9315 16.6882 13.9698 14.7079 13.9698 12.4851C13.9698 10.2623 12.9315 8.28194 11.3135 7.00266C9.6955 8.28194 8.65723 10.2623 8.65723 12.4851C8.65723 14.7079 9.6955 16.6882 11.3135 17.9675Z" fill="white"/>
</svg>
