<svg width="45" height="17" viewBox="0 0 45 17" fill="none" xmlns="http://www.w3.org/2000/svg">
<path d="M13.8204 5.6665C11.9484 5.6665 10.5273 7.07563 10.5273 8.75473C10.5273 10.2738 11.6936 11.3331 13.2814 11.3331C15.1534 11.3331 16.5647 9.88403 16.5647 8.20503C16.5745 6.67593 15.4082 5.6665 13.8204 5.6665ZM13.399 9.90403C12.6835 9.90403 12.1837 9.42433 12.1837 8.68473C12.1837 7.86523 12.8011 7.08563 13.693 7.08563C14.4085 7.08563 14.9083 7.58533 14.9083 8.32493C14.9181 9.15443 14.2909 9.90403 13.399 9.90403Z" fill="#fff"/>
<path d="M25.0821 5.6665C23.2101 5.6665 21.7988 7.07563 21.7988 8.75473C21.7988 10.2738 22.9651 11.3331 24.5529 11.3331C26.4249 11.3331 27.8362 9.88403 27.8362 8.20503C27.846 6.67593 26.6797 5.6665 25.0821 5.6665ZM24.6705 9.90403C23.955 9.90403 23.4552 9.42433 23.4552 8.68473C23.4552 7.86523 24.0726 7.08563 24.9645 7.08563C25.68 7.08563 26.1798 7.58533 26.1798 8.32493C26.1798 9.15443 25.5624 9.90403 24.6705 9.90403Z" fill="#fff"/>
<path d="M33.3443 7.45561C33.3443 6.43621 32.57 5.78662 31.1587 5.78662H29.1789L28.3066 11.2134H29.9727L30.2472 9.50441H30.3256L31.2077 11.2134H33.1189L31.8937 9.31451C32.8052 8.99471 33.3443 8.30511 33.3443 7.45561ZM30.6784 8.35511H30.4334L30.6196 7.21581H30.845C31.3645 7.21581 31.6389 7.37571 31.6389 7.72551C31.6389 8.13521 31.2469 8.35511 30.6784 8.35511Z" fill="#fff"/>
<path d="M8.61614 7.95513C7.97907 7.62533 7.84185 7.54543 7.84185 7.36553C7.84185 7.14563 8.09668 7.03573 8.43972 7.03573C8.84156 7.03573 9.44923 7.08563 10.0471 7.66533C10.1941 7.19563 10.4392 6.77583 10.7528 6.40603C9.90987 5.91635 9.12579 5.6665 8.41031 5.6665C6.98916 5.6665 6.16588 6.44603 6.16588 7.38553C6.16588 8.19503 6.76374 8.61473 7.46942 8.98453C8.10648 9.31433 8.2633 9.42433 8.2633 9.62413C8.2633 9.84403 7.99867 9.96393 7.64583 9.96393C7.03817 9.96393 6.33249 9.57423 5.91105 9.17443L5.66602 10.6835C6.09727 11.0033 6.72454 11.3331 7.67524 11.3331C9.14539 11.3331 9.93928 10.5736 9.93928 9.60423C9.93928 8.80463 9.42962 8.37493 8.61614 7.95513Z" fill="#fff"/>
<path d="M20.966 8.16521H19.0058L19.1626 7.21581H21.26C21.5344 6.64611 21.9559 6.15641 22.4753 5.78662H19.045C18.2805 5.78662 17.6336 6.31631 17.5258 7.03591L16.8594 11.2234H18.5255L18.8 9.51441H20.7798L20.9268 8.58501C20.9366 8.43511 20.9464 8.30511 20.966 8.16521Z" fill="#fff"/>
<path d="M33.3828 5.78662C33.8337 6.13641 34.1081 6.62611 34.1669 7.21581H35.5586L34.9216 11.2134H36.5877L37.2248 7.21581H38.7734L38.9988 5.78662H33.3828Z" fill="#fff"/>
</svg>
