<svg width="1920" height="17" fill="none" xmlns="http://www.w3.org/2000/svg"><g clip-path="url(#a)"><path d="M0 16.012h813.016l4.351-3.418H943v.988H817.72l-3.093 2.43H943V17H0v-.988Z" fill="url(#b)"/></g><g clip-path="url(#c)"><path fill-rule="evenodd" clip-rule="evenodd" d="m944.045 16.012 2.459-2.43h-3.514v-.988h4.514L960.25 0l12.747 12.594H977v.988h-3.003l2.459 2.43H977V17h-.959l-3.459-3.418h-5.188l-7.144-7.058-7.143 7.058h-5.189L944.459 17h-1.469v-.988h1.055Zm4.873-3.418L960.25 1.397l11.332 11.197h-3.774l-7.558-7.467-7.557 7.467h-3.775Z" fill="url(#d)"/></g><g clip-path="url(#e)"><path d="M1920 16.012h-813.02l-4.35-3.418H977v.988h125.28l3.09 2.43H977V17h943v-.988Z" fill="url(#f)"/></g><defs><linearGradient id="b" x1="-2.963" y1="12.591" x2="943.133" y2="12.591" gradientUnits="userSpaceOnUse"><stop offset=".141" stop-color="#B09361" stop-opacity="0"/><stop offset="1" stop-color="#B09361"/></linearGradient><linearGradient id="d" x1="26.66" y1="16.295" x2="1887.99" y2="16.295" gradientUnits="userSpaceOnUse"><stop offset=".141" stop-color="#B09361" stop-opacity="0"/><stop offset=".501" stop-color="#B09361"/><stop offset=".894" stop-color="#B09361" stop-opacity="0"/></linearGradient><linearGradient id="f" x1="1922.96" y1="12.591" x2="976.867" y2="12.591" gradientUnits="userSpaceOnUse"><stop offset=".141" stop-color="#B09361" stop-opacity="0"/><stop offset="1" stop-color="#B09361"/></linearGradient><clipPath id="a"><path fill="#fff" d="M0 0h943v17H0z"/></clipPath><clipPath id="c"><path fill="#fff" transform="translate(943)" d="M0 0h34v17H0z"/></clipPath><clipPath id="e"><path fill="#fff" transform="matrix(-1 0 0 1 1920 0)" d="M0 0h943v17H0z"/></clipPath></defs></svg>