<svg viewBox="0 0 100 102" fill="none" xmlns="http://www.w3.org/2000/svg"><g filter="url(#a)"><mask id="d" fill="#fff"><path fill-rule="evenodd" clip-rule="evenodd" d="M12.3 60.227C17.718 75.256 32.104 86 49 86c21.54 0 39-17.46 39-39S70.54 8 49 8C32.104 8 17.718 18.744 12.3 33.773L22 47l-9.7 13.227Z"/></mask><path fill-rule="evenodd" clip-rule="evenodd" d="M12.3 60.227C17.718 75.256 32.104 86 49 86c21.54 0 39-17.46 39-39S70.54 8 49 8C32.104 8 17.718 18.744 12.3 33.773L22 47l-9.7 13.227Z" fill="url(#b)"/><path fill-rule="evenodd" clip-rule="evenodd" d="M12.3002 60.227C17.7176 75.2558 32.1041 86 49 86C70.5391 86 88 68.5391 88 47C88 25.4609 70.5391 8 49 8C32.1041 8 17.7176 18.7442 12.3002 33.773L22 47L12.3002 60.227Z" fill="#E0C088"/></g><path d="m59 47-8.754-11H45l8.223 11L45 58h5.246L59 47Z" fill="#483E2C"/><circle opacity=".5" cx="49" cy="47" r="44.5" transform="rotate(90 49 47)" stroke="url(#e)"/><defs><linearGradient id="c" x1="17.706" y1="83.785" x2="83.945" y2="83.694" gradientUnits="userSpaceOnUse"><stop stop-color="#FFD895" stop-opacity=".1"/><stop offset=".501" stop-color="#FFF6E6"/><stop offset="1" stop-color="#FFDA9B" stop-opacity=".1"/></linearGradient><linearGradient id="e" x1="91.444" y1="85.573" x2="91.332" y2="6.821" gradientUnits="userSpaceOnUse"><stop stop-color="#A78D61" stop-opacity=".5"/><stop offset=".501" stop-color="#FFE9C2"/><stop offset="1" stop-color="#9E855A" stop-opacity=".5"/></linearGradient><radialGradient id="b" cx="0" cy="0" r="1" gradientUnits="userSpaceOnUse" gradientTransform="matrix(-76 0 0 -78.3093 88 47)"><stop stop-color="#FFF9E0"/><stop offset="1" stop-color="#DBA677"/></radialGradient><filter id="a" x=".301" y="0" width="99.699" height="102" filterUnits="userSpaceOnUse" color-interpolation-filters="sRGB"><feFlood flood-opacity="0" result="BackgroundImageFix"/><feColorMatrix in="SourceAlpha" values="0 0 0 0 0 0 0 0 0 0 0 0 0 0 0 0 0 0 127 0" result="hardAlpha"/><feOffset dy="4"/><feGaussianBlur stdDeviation="6"/><feComposite in2="hardAlpha" operator="out"/><feColorMatrix values="0 0 0 0 0.0196078 0 0 0 0 0.0431373 0 0 0 0 0.0588235 0 0 0 0.75 0"/><feBlend in2="BackgroundImageFix" result="effect1_dropShadow_9356:335619"/><feColorMatrix in="SourceAlpha" values="0 0 0 0 0 0 0 0 0 0 0 0 0 0 0 0 0 0 127 0" result="hardAlpha"/><feOffset dy="4"/><feGaussianBlur stdDeviation="3"/><feComposite in2="hardAlpha" operator="out"/><feColorMatrix values="0 0 0 0 0 0 0 0 0 0 0 0 0 0 0 0 0 0 0.25 0"/><feBlend in2="effect1_dropShadow_9356:335619" result="effect2_dropShadow_9356:335619"/><feBlend in="SourceGraphic" in2="effect2_dropShadow_9356:335619" result="shape"/></filter></defs></svg>
