<svg viewBox="0 0 76 76" fill="none" xmlns="http://www.w3.org/2000/svg">
<g clip-path="url(#clip0)">
<path d="M62.7227 46.8957C62.5925 46.7594 62.4236 46.6681 62.2397 46.6345C62.0497 46.5899 61.8505 46.612 61.6744 46.6972C61.5083 46.7751 61.3765 46.9128 61.3044 47.0837C61.1938 47.3547 61.1446 47.6475 61.1606 47.9404V66.1392C61.2098 66.6835 61.1403 67.2322 60.9572 67.7462C60.774 68.2601 60.4817 68.7267 60.1009 69.1128C59.7202 69.4988 59.2604 69.7948 58.7543 69.9796C58.2482 70.1644 57.7083 70.2336 57.1729 70.1822H14.8913V12.8591H57.1729C57.7124 12.8091 58.2562 12.8806 58.7655 13.0684C59.2749 13.2561 59.7373 13.5556 60.1199 13.9455C60.5025 14.3355 60.7959 14.8062 60.9793 15.3245C61.1628 15.8427 61.2316 16.3956 61.1811 16.9439V35.4039C61.1754 35.5299 61.1953 35.6557 61.2395 35.7735C61.2837 35.8913 61.3513 35.9987 61.4381 36.0888C61.5248 36.179 61.6289 36.25 61.7438 36.2975C61.8587 36.345 61.9821 36.368 62.1061 36.365C62.2331 36.3585 62.3575 36.326 62.4719 36.2694C62.5863 36.2129 62.6883 36.1335 62.7717 36.036C62.8552 35.9384 62.9185 35.8248 62.9577 35.7018C62.997 35.5788 63.0115 35.4491 63.0002 35.3203V9.63095C63.0002 9.30709 63.0002 9.07726 63.0002 8.84742C62.9646 8.13714 62.7835 7.44225 62.4685 6.80721C62.1535 6.17218 61.7115 5.611 61.1708 5.15961C60.6488 4.7173 60.0424 4.38964 59.3897 4.19725C58.737 4.00487 58.0522 3.95193 57.3784 4.04177C55.4977 4.30295 53.6374 4.61636 51.7669 4.91932L34.1924 7.74003L14.2335 10.9368C13.1544 11.1144 13.0105 11.2711 13.0105 12.3785C13.0105 31.7753 13.0105 51.1755 13.0105 70.5792C12.9734 70.8516 13.0136 71.1291 13.1265 71.379C13.2394 71.6288 13.4203 71.8407 13.6477 71.9895H58.2109L58.3445 71.9268C61.5511 71.0702 62.9694 69.1897 62.9694 65.8362V48.0762C62.9902 47.8468 62.9902 47.616 62.9694 47.3867C62.9367 47.2018 62.8509 47.031 62.7227 46.8957ZM32.0342 10.1846L38.3137 8.95189C44.6172 7.9629 50.9173 6.9565 57.214 5.93269C57.7006 5.8286 58.2037 5.83356 58.6883 5.94723C59.1728 6.06089 59.6272 6.28053 60.0198 6.59085C60.3852 6.92197 60.6755 7.32979 60.8707 7.78614C61.0659 8.24249 61.1613 8.73648 61.1503 9.23396V12.0233L60.6672 11.8771C60.5194 11.8324 60.3752 11.7765 60.2356 11.7099C59.3604 11.2228 58.3761 10.9745 57.3784 10.9891H31.0681H28.3754L32.0342 10.1846Z" fill="url(#paint0_linear)"/>
<path d="M26.556 38.7051C26.5978 39.3142 26.7622 39.908 27.039 40.4498C27.3182 40.9906 27.7012 41.4689 28.1655 41.8565C28.6298 42.2442 29.1659 42.5331 29.742 42.7064L30.5642 42.9675V43.2914V43.5212L30.5025 43.6988L30.3792 44.0749C29.7226 46.066 29.7516 48.2248 30.4614 50.1969C30.5184 50.4128 30.642 50.6043 30.8141 50.7435C30.9861 50.8826 31.1975 50.962 31.4172 50.97C31.5523 50.9688 31.6851 50.9351 31.8048 50.8715C31.9245 50.8079 32.0277 50.7164 32.1058 50.6044C32.1912 50.4694 32.245 50.3163 32.2628 50.1569C32.2806 49.9975 32.2621 49.836 32.2086 49.685C31.8377 48.7187 31.6934 47.6778 31.7872 46.6449L31.89 46.2897H32.2497C32.3215 46.2743 32.396 46.2777 32.4661 46.2996C32.5362 46.3215 32.5997 46.3613 32.6505 46.4151C32.7181 46.4636 32.7802 46.5197 32.8355 46.5822C33.4367 47.2038 34.2031 47.6337 35.041 47.8193C35.8789 48.0048 36.7518 47.938 37.5529 47.6269C37.9422 47.5114 38.3558 47.5114 38.7451 47.6269C39.3265 47.8265 39.9432 47.8977 40.5539 47.8359C41.1687 47.7743 41.764 47.5821 42.3011 47.2717C42.8342 46.9592 43.2992 46.5398 43.668 46.039C44.0341 45.5345 44.2931 44.9582 44.4285 44.3466C44.4285 44.1167 44.5005 43.8764 44.5313 43.6362L44.6443 42.884L45.076 42.8108H45.3843C46.0725 42.7674 46.741 42.5604 47.3362 42.2067C47.9314 41.853 48.4367 41.3623 48.8115 40.774C49.1863 40.1858 49.4202 39.5164 49.4943 38.8196C49.5684 38.1228 49.4808 37.4181 49.2384 36.762C49.1384 36.4212 49.1384 36.0581 49.2384 35.7173C49.5495 34.8182 49.5747 33.8424 49.3103 32.9279C48.7348 30.9743 47.2548 29.8983 44.9013 29.6371H44.5724V29.2923V29.2296C44.5724 29.1043 44.5724 28.9998 44.5724 28.9058C44.5282 28.1981 44.3199 27.5112 43.9644 26.9011C43.6089 26.291 43.1164 25.7751 42.5272 25.3956C41.9407 25.0069 41.2738 24.7613 40.5785 24.678C39.8832 24.5946 39.1783 24.6757 38.519 24.915C38.1515 25.0356 37.7559 25.0356 37.3884 24.915C36.9446 24.7431 36.4757 24.6478 36.001 24.6329H35.6824C34.7849 24.6976 33.9279 25.0379 33.2249 25.6088C32.522 26.1797 32.0063 26.9542 31.7461 27.8297C31.6433 28.2894 31.5508 28.7804 31.4892 29.2714V29.5848L31.1808 29.6371C31.0713 29.6442 30.9615 29.6442 30.852 29.6371C30.1313 29.6473 29.4242 29.8369 28.7923 30.1893C28.1605 30.5418 27.6233 31.0463 27.2278 31.6586C26.8323 32.271 26.5904 32.9726 26.5235 33.7021C26.4565 34.4315 26.5665 35.1664 26.8437 35.8426C26.9077 36.1929 26.8757 36.5543 26.7512 36.8874C26.5634 37.4731 26.4969 38.092 26.556 38.7051ZM42.1675 45.0779C41.9281 45.4022 41.6178 45.6655 41.261 45.8468C40.9043 46.0282 40.5109 46.1226 40.112 46.1226C39.6773 46.1267 39.2501 46.0073 38.8787 45.7778C38.6312 45.5888 38.33 45.4866 38.0205 45.4866C37.711 45.4866 37.4098 45.5888 37.1623 45.7778C36.6266 46.1296 35.9816 46.2672 35.3519 46.1641C34.7223 46.0609 34.1525 45.7242 33.7527 45.2191C33.3528 44.714 33.1512 44.0762 33.1869 43.4289C33.2225 42.7815 33.4927 42.1706 33.9455 41.7139C34.8088 40.805 35.7029 39.917 36.5971 39.0186L37.3884 38.235L37.9743 37.8171L38.5601 38.235L39.3925 39.0812C40.2661 39.9483 41.1192 40.805 41.9619 41.693C42.3806 42.1477 42.6217 42.742 42.6402 43.3645C42.696 43.9754 42.5276 44.5856 42.1675 45.0779ZM43.4008 32.1966C43.8458 31.7819 44.4213 31.5413 45.0246 31.5176C45.6252 31.5074 46.2104 31.7106 46.6793 32.0921C47.1601 32.4714 47.4888 33.0154 47.6041 33.6228C47.7195 34.2302 47.6136 34.8595 47.3062 35.3934C47.1255 35.6492 47.0283 35.9561 47.0283 36.271C47.0283 36.5858 47.1255 36.8928 47.3062 37.1485C47.53 37.5488 47.6461 38.0018 47.643 38.4621C47.6398 38.9225 47.5176 39.3739 47.2884 39.7709C47.0592 40.168 46.7313 40.4967 46.3375 40.7241C45.9437 40.9514 45.498 41.0694 45.0452 41.0662H44.963C44.3501 41.0493 43.7649 40.8039 43.3186 40.3767C42.4552 39.5409 41.6228 39.0186 40.7903 38.141L39.7625 37.3157L38.9403 36.7411L40.6464 34.9755C41.5303 34.0249 42.4347 33.0846 43.3494 32.1966H43.4008ZM33.9455 27.485C34.3189 26.9961 34.857 26.665 35.4563 26.5552C36.0568 26.4427 36.6771 26.5539 37.2034 26.8686C37.436 27.0418 37.7168 27.1351 38.0051 27.1351C38.2934 27.1351 38.5742 27.0418 38.8067 26.8686C39.3451 26.5456 39.98 26.4307 40.595 26.5447C41.1982 26.6775 41.7357 27.0231 42.112 27.5204C42.4883 28.0176 42.6791 28.6343 42.6505 29.261C42.6104 29.8917 42.3519 30.4876 41.9208 30.943C40.9753 31.9354 40.0092 32.907 39.0226 33.889L38.1695 34.7457L37.9845 34.986L36.6176 33.5547C35.6926 32.6354 34.8191 31.7683 33.966 30.8489C33.5593 30.3874 33.3327 29.7906 33.3289 29.1709C33.3251 28.5513 33.5444 27.9516 33.9455 27.485ZM28.7451 35.4874C28.4255 34.9408 28.3157 34.2935 28.4367 33.6697C28.5559 33.0462 28.9006 32.4908 29.4028 32.113C29.8722 31.7187 30.4699 31.5175 31.0781 31.5489C31.692 31.5696 32.2772 31.8187 32.7225 32.2489C33.6474 33.1577 34.5519 34.0875 35.4563 35.0278L37.0904 36.7098C36.6998 37.1067 35.8982 37.6813 35.4357 38.0783C34.5724 38.8305 33.5344 39.5514 32.7327 40.3453C32.2816 40.7821 31.6902 41.0382 31.0678 41.0662H30.9547C30.3604 41.0653 29.7843 40.8574 29.3224 40.4772C28.8605 40.097 28.5407 39.5675 28.4162 38.9768C28.3037 38.355 28.4169 37.7128 28.7348 37.1694C28.9174 36.9244 29.0162 36.6254 29.0162 36.318C29.0162 36.0106 28.9174 35.7116 28.7348 35.4665L28.7451 35.4874Z" fill="url(#paint1_linear)"/>
<path d="M25.8778 58.4606C25.8904 58.6891 25.9856 58.9048 26.145 59.0665C26.3045 59.2369 26.5206 59.3411 26.7514 59.359H49.3618C49.51 59.3375 49.651 59.2802 49.7729 59.1919C49.8978 59.1056 49.9973 58.9864 50.0607 58.8471C50.1313 58.7125 50.1634 58.5605 50.1532 58.4083C50.1499 58.2537 50.1074 58.1026 50.0299 57.9696C49.9209 57.7999 49.7657 57.6661 49.5832 57.5844C49.4007 57.5028 49.1988 57.4769 49.0021 57.5099H26.7514C26.5152 57.5219 26.2919 57.6224 26.1244 57.792C25.9599 57.9738 25.8714 58.2136 25.8778 58.4606Z" fill="url(#paint2_linear)"/>
<path d="M62.4451 40.6483C62.3284 40.5959 62.2027 40.5674 62.0751 40.5647H61.921C61.7432 40.601 61.5792 40.688 61.4482 40.8154C61.3127 40.9381 61.2221 41.1038 61.1913 41.2855C61.1348 41.4585 61.1348 41.6454 61.1913 41.8183C61.2633 41.9843 61.3767 42.1283 61.5201 42.2362C61.6707 42.3357 61.8444 42.3934 62.0237 42.4034C62.1537 42.4061 62.2829 42.3815 62.4032 42.3312C62.5234 42.2809 62.6322 42.2059 62.7226 42.1109C62.896 41.9486 62.9995 41.7234 63.0104 41.484C63.0176 41.3003 62.9711 41.1185 62.8768 40.9617C62.7623 40.8206 62.6135 40.7125 62.4451 40.6483Z" fill="url(#paint3_linear)"/>
</g>
<defs>
<linearGradient id="paint0_linear" x1="38.0005" y1="3.99927" x2="38.0005" y2="71.9895" gradientUnits="userSpaceOnUse">
<stop stop-color="#E3BE7D"/>
<stop offset="1" stop-color="#E3BE7D" stop-opacity="0.5"/>
</linearGradient>
<linearGradient id="paint1_linear" x1="38.0121" y1="24.6329" x2="38.0121" y2="50.97" gradientUnits="userSpaceOnUse">
<stop stop-color="#E3BE7D"/>
<stop offset="1" stop-color="#E3BE7D" stop-opacity="0.5"/>
</linearGradient>
<linearGradient id="paint2_linear" x1="38.0162" y1="57.496" x2="38.0162" y2="59.359" gradientUnits="userSpaceOnUse">
<stop stop-color="#E3BE7D"/>
<stop offset="1" stop-color="#E3BE7D" stop-opacity="0.5"/>
</linearGradient>
<linearGradient id="paint3_linear" x1="62.08" y1="40.5647" x2="62.08" y2="42.4036" gradientUnits="userSpaceOnUse">
<stop stop-color="#E3BE7D"/>
<stop offset="1" stop-color="#E3BE7D" stop-opacity="0.5"/>
</linearGradient>
<clipPath id="clip0">
<rect width="50" height="68" fill="white" transform="translate(13 4)"/>
</clipPath>
</defs>
</svg>
