<svg width="76" height="76" viewBox="0 0 76 76" fill="none" xmlns="http://www.w3.org/2000/svg">
<g clip-path="url(#clip0)">
<path d="M12.5108 14.4675L12.1296 13.9558C12.0365 13.847 11.9211 13.7593 11.7914 13.6987C11.6616 13.6382 11.5203 13.6061 11.3771 13.6047C11.294 13.591 11.2093 13.591 11.1263 13.6047C10.9363 13.6585 10.7664 13.7671 10.6379 13.9171C10.5094 14.067 10.428 14.2515 10.4039 14.4474L9.52098 22.6945C9.49816 22.953 9.57632 23.2102 9.73907 23.4122C9.90181 23.6142 10.1365 23.7454 10.3939 23.7781H10.5945C11.1564 23.7781 11.4072 23.4771 11.4674 22.8952L11.9088 16.9456L12.3503 17.5175L15.4906 21.8116C15.6458 22.0204 15.876 22.1607 16.1327 22.2029C16.2591 22.224 16.3884 22.2189 16.5127 22.1878C16.637 22.1567 16.7535 22.1004 16.8551 22.0223C17.0638 21.8671 17.2041 21.6369 17.2464 21.3802C17.2839 21.1265 17.2229 20.868 17.0758 20.6578L12.5108 14.4675Z" fill="url(#paint0_linear)"/>
<path d="M66.2577 10.5145H42.7404V10.3139L42.2187 9.15005L40.5131 2.77912C40.3815 2.29994 40.1558 1.85177 39.8492 1.46075C39.5426 1.06972 39.1612 0.743675 38.7272 0.501632C37.9776 0.0708712 37.1025 -0.088564 36.2491 0.0501487L35.7675 0.170544L2.77909 9.00959C2.2985 9.13614 1.84793 9.35715 1.45368 9.65971C1.05943 9.96227 0.729386 10.3403 0.482819 10.7718C0.236253 11.2033 0.0780996 11.6796 0.0175895 12.1729C-0.0429205 12.6661 -0.00457519 13.1665 0.130388 13.6448L13.5846 63.8097C13.7114 64.2859 13.9311 64.7323 14.231 65.1234C14.5308 65.5145 14.905 65.8425 15.3319 66.0886C15.7589 66.3347 16.2302 66.4941 16.7189 66.5575C17.2076 66.621 17.704 66.5873 18.1797 66.4584L28.2127 63.7695V66.2477C28.2127 67.2402 28.6069 68.1921 29.3088 68.8939C30.0106 69.5957 30.9624 69.99 31.955 69.99H66.2577C66.7491 69.99 67.2357 69.8932 67.6898 69.7051C68.1438 69.517 68.5564 69.2414 68.9039 68.8939C69.2514 68.5464 69.527 68.1338 69.7151 67.6798C69.9032 67.2257 70 66.7391 70 66.2477V46.4827C70 46.2166 69.8943 45.9614 69.7061 45.7733C69.5179 45.5851 69.2628 45.4794 68.9967 45.4794C68.7306 45.4794 68.4754 45.5851 68.2872 45.7733C68.0991 45.9614 67.9934 46.2166 67.9934 46.4827V66.2577C67.9934 66.7287 67.8063 67.1804 67.4732 67.5134C67.1402 67.8464 66.6885 68.0335 66.2175 68.0335H31.955C31.484 68.0335 31.0323 67.8464 30.6993 67.5134C30.3662 67.1804 30.1791 66.7287 30.1791 66.2577V14.2568C30.1791 13.7849 30.3659 13.3322 30.6986 12.9976C31.0314 12.6629 31.4831 12.4736 31.955 12.471H66.2577C66.7296 12.4736 67.1812 12.6629 67.514 12.9976C67.8467 13.3322 68.0335 13.7849 68.0335 14.2568V34.0318C68.0335 34.2979 68.1392 34.5531 68.3274 34.7412C68.5155 34.9294 68.7707 35.0351 69.0368 35.0351C69.3029 35.0351 69.5581 34.9294 69.7462 34.7412C69.9344 34.5531 70.0401 34.2979 70.0401 34.0318V14.2568C70.0401 13.762 69.942 13.2721 69.7514 12.8154C69.5609 12.3587 69.2816 11.9444 68.9298 11.5963C68.5781 11.2483 68.1608 10.9735 67.7021 10.7878C67.2434 10.6021 66.7525 10.5092 66.2577 10.5145ZM28.2127 39.0483L28.0923 39.1687C27.6561 39.6047 27.1383 39.9504 26.5685 40.1863C25.9987 40.4221 25.388 40.5434 24.7714 40.5432C24.0164 40.5459 23.2722 40.3633 22.6042 40.0115L22.4337 39.9111L22.2531 39.8108C21.2324 39.1628 20.5017 38.1453 20.2137 36.9711C19.9258 35.7969 20.1029 34.5568 20.708 33.5101L25.4135 25.3633L28.2026 26.9786L28.2127 39.0483ZM31.955 10.5145C30.9624 10.5145 30.0106 10.9088 29.3088 11.6106C28.6069 12.3124 28.2127 13.2643 28.2127 14.2568V24.6811L25.5539 23.1761C25.3259 23.0454 25.0557 23.0094 24.8015 23.0758C24.5519 23.1473 24.3397 23.3127 24.2095 23.5373L24.1092 23.7079L19.0124 32.5369C18.1363 34.0555 17.8982 35.8595 18.3503 37.5534C18.577 38.3936 18.9676 39.1808 19.4996 39.8695C20.0317 40.5583 20.6947 41.135 21.4504 41.5666C22.3865 42.1018 23.4376 42.404 24.515 42.4477C25.5924 42.4913 26.6645 42.2751 27.6408 41.8174L28.2127 41.5465V61.7429L27.9117 61.8231L17.658 64.5722C17.4314 64.6328 17.195 64.6483 16.9624 64.6176C16.7298 64.5869 16.5056 64.5106 16.3025 64.3932C16.0994 64.2758 15.9214 64.1196 15.7787 63.9334C15.636 63.7472 15.5313 63.5347 15.4708 63.308L1.97645 12.8923C1.9046 12.4555 1.99853 12.0075 2.23981 11.6363C2.48109 11.2651 2.85233 10.9974 3.28074 10.8858L36.3895 2.00658H36.5802C36.6967 1.99156 36.8147 1.99156 36.9313 2.00658L37.5634 2.15707C37.6183 2.16882 37.6721 2.18561 37.7239 2.20724C37.9295 2.32116 38.1096 2.47613 38.2528 2.66252C38.3961 2.84892 38.4995 3.06277 38.5567 3.2908L38.7272 3.90281L39.0784 5.23719L40.493 10.5145H31.955Z" fill="url(#paint1_linear)"/>
<path d="M42.7402 26.2663C42.8352 26.0279 42.8352 25.7622 42.7402 25.5238L39.7304 17.7784C39.6573 17.5948 39.5317 17.437 39.3693 17.3245C39.2069 17.2121 39.0149 17.1501 38.8174 17.1463C38.6181 17.1481 38.4239 17.2092 38.2596 17.3217C38.0952 17.4343 37.968 17.5933 37.8943 17.7784L34.8844 25.5238C34.798 25.7664 34.8081 26.0329 34.9126 26.2682C35.0172 26.5035 35.2083 26.6896 35.4463 26.788C35.6901 26.8775 35.9591 26.8689 36.1967 26.7641C36.4344 26.6593 36.6221 26.4665 36.7205 26.2261L38.7973 20.8485L40.8741 26.2261C40.9182 26.348 40.9874 26.4592 41.0773 26.5526C41.1672 26.6459 41.2757 26.7193 41.3958 26.7679C41.5127 26.8199 41.6391 26.8468 41.767 26.8468C41.8949 26.8468 42.0214 26.8199 42.1383 26.7679C42.2671 26.729 42.3868 26.6645 42.4903 26.5783C42.5937 26.4921 42.6787 26.386 42.7402 26.2663Z" fill="url(#paint2_linear)"/>
<path d="M58.472 62.7361C58.545 62.9197 58.6706 63.0775 58.833 63.19C58.9955 63.3024 59.1874 63.3644 59.385 63.3682C59.5842 63.3664 59.7784 63.3053 59.9427 63.1928C60.1071 63.0802 60.2343 62.9212 60.308 62.7361L63.3179 54.9907C63.4155 54.7493 63.4155 54.4795 63.3179 54.2382C63.2676 54.1203 63.1935 54.014 63.1003 53.9259C63.0071 53.8379 62.8967 53.77 62.7761 53.7265C62.5323 53.637 62.2633 53.6456 62.0257 53.7504C61.788 53.8552 61.6003 54.048 61.5019 54.2884L59.4251 59.656L57.3483 54.2884C57.2353 54.0507 57.0335 53.867 56.7864 53.7767C56.6627 53.724 56.5296 53.6967 56.3951 53.6964C56.2744 53.6944 56.1546 53.7184 56.044 53.7667C55.8006 53.8592 55.6027 54.0426 55.4922 54.2783C55.3945 54.5197 55.3945 54.7895 55.4922 55.0308L58.472 62.7361Z" fill="url(#paint3_linear)"/>
<path d="M47.6666 49.7635L48.4392 50.526C48.6247 50.6981 48.8684 50.7937 49.1214 50.7937C49.3745 50.7937 49.6181 50.6981 49.8037 50.526L57.1478 43.1719C58.2844 42.0464 58.9766 40.5486 59.0973 38.9536C59.218 37.3587 58.7591 35.7737 57.8049 34.49C56.8506 33.2063 55.4652 32.3101 53.9031 31.966C52.3411 31.622 50.7073 31.8532 49.302 32.6172L49.1114 32.7175L48.9208 32.6172C47.6845 31.9409 46.2638 31.6792 44.8677 31.8706C43.4716 32.062 42.1738 32.6965 41.1653 33.6807L40.8543 33.9917C39.7051 35.2568 39.0861 36.9152 39.1253 38.6239C39.1645 40.3326 39.8589 41.9608 41.065 43.1719L47.6666 49.7635ZM42.0181 35.6271C42.1485 35.4565 42.299 35.286 42.4495 35.1254C43.3283 34.2554 44.5137 33.7654 45.7503 33.7609C46.7381 33.7601 47.7007 34.0727 48.4994 34.6539C48.6683 34.7726 48.8698 34.8363 49.0763 34.8363C49.2828 34.8363 49.4842 34.7726 49.6532 34.6539C50.5308 34.0223 51.5989 33.7115 52.6784 33.7736C53.7579 33.8357 54.7832 34.2669 55.5827 34.995L55.7231 35.1355L55.8636 35.2759C56.6799 36.1585 57.1266 37.3205 57.1116 38.5225C57.0967 39.7246 56.6213 40.8752 55.7833 41.7372L49.1214 48.389L46.3523 45.6199L45.5898 44.8474L42.4495 41.7372C41.7129 40.9958 41.244 40.0304 41.1168 38.9931C40.9897 37.9558 41.2115 36.9056 41.7472 36.0083L42.0181 35.6271Z" fill="url(#paint4_linear)"/>
<path d="M68.3246 39.56C68.1417 39.7444 68.0374 39.9925 68.0337 40.2522C68.0337 40.5183 68.1394 40.7735 68.3276 40.9617C68.5157 41.1498 68.7709 41.2555 69.037 41.2555C69.3031 41.2555 69.5583 41.1498 69.7464 40.9617C69.9346 40.7735 70.0403 40.5183 70.0403 40.2522C70.0366 39.9925 69.9323 39.7444 69.7493 39.56C69.6561 39.4659 69.5451 39.3913 69.4228 39.3403C69.3006 39.2894 69.1694 39.2632 69.037 39.2632C68.9045 39.2632 68.7734 39.2894 68.6511 39.3403C68.5289 39.3913 68.4179 39.4659 68.3246 39.56Z" fill="url(#paint5_linear)"/>
</g>
<defs>
<linearGradient id="paint0_linear" x1="13.3871" y1="13.5944" x2="13.3871" y2="23.7781" gradientUnits="userSpaceOnUse">
<stop stop-color="#E3BE7D"/>
<stop offset="1" stop-color="#E3BE7D" stop-opacity="0.5"/>
</linearGradient>
<linearGradient id="paint1_linear" x1="35.0149" y1="0.00140381" x2="35.0149" y2="69.99" gradientUnits="userSpaceOnUse">
<stop stop-color="#E3BE7D"/>
<stop offset="1" stop-color="#E3BE7D" stop-opacity="0.5"/>
</linearGradient>
<linearGradient id="paint2_linear" x1="38.8188" y1="17.1463" x2="38.8188" y2="26.8494" gradientUnits="userSpaceOnUse">
<stop stop-color="#E3BE7D"/>
<stop offset="1" stop-color="#E3BE7D" stop-opacity="0.5"/>
</linearGradient>
<linearGradient id="paint3_linear" x1="59.405" y1="53.6651" x2="59.405" y2="63.3682" gradientUnits="userSpaceOnUse">
<stop stop-color="#E3BE7D"/>
<stop offset="1" stop-color="#E3BE7D" stop-opacity="0.5"/>
</linearGradient>
<linearGradient id="paint4_linear" x1="49.1199" y1="31.8096" x2="49.1199" y2="50.7937" gradientUnits="userSpaceOnUse">
<stop stop-color="#E3BE7D"/>
<stop offset="1" stop-color="#E3BE7D" stop-opacity="0.5"/>
</linearGradient>
<linearGradient id="paint5_linear" x1="69.037" y1="39.2632" x2="69.037" y2="41.2555" gradientUnits="userSpaceOnUse">
<stop stop-color="#E3BE7D"/>
<stop offset="1" stop-color="#E3BE7D" stop-opacity="0.5"/>
</linearGradient>
<clipPath id="clip0">
<rect width="70" height="70" fill="white"/>
</clipPath>
</defs>
</svg>
