<svg width="76" height="76" viewBox="0 0 76 76" fill="none" xmlns="http://www.w3.org/2000/svg">
<path fill-rule="evenodd" clip-rule="evenodd" d="M70.5761 19.9453L70.2844 20.0274V53.3032H71.0174C72.7379 53.3032 74.1381 54.7034 74.1382 56.4237V62.5135C74.1382 64.2338 72.7379 65.634 71.0175 65.634H4.98209C3.26161 65.634 1.86143 64.2338 1.86143 62.5135V56.4237C1.86143 54.7034 3.26161 53.3032 4.98209 53.3032H5.71508V20.0274L5.42337 19.9453C3.37034 19.368 1.86143 17.4799 1.86143 15.247C1.86143 12.556 4.05134 10.3661 6.74235 10.3661C9.43337 10.3661 11.6233 12.556 11.6233 15.247C11.6233 17.0255 10.6664 18.5856 9.23784 19.4394L8.79731 19.7027L12.9476 23.853C18.1438 29.0495 26.5981 29.0495 31.7945 23.853L35.9448 19.7027L35.5043 19.4394C34.0757 18.5856 33.1188 17.0255 33.1188 15.247C33.1188 12.556 35.3087 10.3661 37.9997 10.3661C40.6908 10.3661 42.8807 12.556 42.8807 15.247C42.8807 17.0255 41.9238 18.5856 40.4952 19.4394L40.0547 19.7027L44.205 23.853C49.4012 29.0495 57.8556 29.0495 63.0519 23.853L67.2022 19.7027L66.7617 19.4394C65.3331 18.5856 64.3762 17.0255 64.3762 15.247C64.3762 12.556 66.5661 10.3661 69.2571 10.3661C71.9482 10.3661 74.1381 12.556 74.1381 15.247C74.1381 17.4799 72.6291 19.368 70.5761 19.9453ZM11.4947 25.3059C17.4916 31.3027 27.2503 31.3027 33.2472 25.3059L37.9997 20.5534L42.7521 25.3059C48.749 31.3027 58.5077 31.3027 64.5046 25.3059L68.2299 21.5807V53.3032H44.4225C43.8551 53.3032 43.3952 53.7631 43.3952 54.3304C43.3952 54.8978 43.8551 55.3577 44.4225 55.3577H71.0174C71.6055 55.3577 72.0835 55.8355 72.0835 56.4238V62.5136C72.0835 63.1018 71.6056 63.5796 71.0174 63.5796H4.98209C4.39406 63.5796 3.91598 63.1019 3.91598 62.5136V56.4238C3.91598 55.8357 4.39374 55.3577 4.98209 55.3577H31.577C32.1444 55.3577 32.6043 54.8978 32.6043 54.3304C32.6043 53.7631 32.1444 53.3032 31.577 53.3032H7.76963V21.5807L11.4947 25.3059ZM69.2571 12.4206C70.816 12.4206 72.0835 13.6881 72.0835 15.247C72.0835 16.8058 70.816 18.0734 69.2571 18.0734C67.6983 18.0734 66.4308 16.8058 66.4308 15.247C66.4308 13.6882 67.6983 12.4206 69.2571 12.4206ZM37.9997 12.4206C39.5586 12.4206 40.8261 13.6881 40.8261 15.247C40.8261 16.8058 39.5586 18.0734 37.9997 18.0734C36.4409 18.0734 35.1734 16.8058 35.1734 15.247C35.1734 13.6881 36.4409 12.4206 37.9997 12.4206ZM3.91598 15.247C3.91598 13.6881 5.18351 12.4206 6.74235 12.4206C8.3012 12.4206 9.56873 13.6881 9.56873 15.247C9.56873 16.8058 8.3012 18.0734 6.74235 18.0734C5.18351 18.0734 3.91598 16.8058 3.91598 15.247Z" fill="url(#paint0_linear)"/>
<path fill-rule="evenodd" clip-rule="evenodd" d="M37.2732 31.5846L33.0836 35.7742C32.8909 35.9669 32.7827 36.2282 32.7827 36.5006V42.5681C32.7827 42.8405 32.891 43.1019 33.0836 43.2945L37.2732 47.484C37.4739 47.6847 37.7361 47.7849 37.9996 47.7849C38.2631 47.7849 38.5253 47.6847 38.726 47.484L42.9156 43.2945C43.1082 43.1019 43.2165 42.8405 43.2165 42.5681V36.5006C43.2165 36.2282 43.1082 35.9668 42.9156 35.7742L38.726 31.5846C38.3249 31.1835 37.6745 31.1834 37.2732 31.5846ZM34.8373 36.9261L37.9996 33.7637L41.162 36.9261V42.1426L37.9996 45.3048L34.8373 42.1425V36.9261Z" fill="url(#paint1_linear)"/>
<path d="M19.5523 38.5071H23.8342C24.4015 38.5071 24.8614 38.967 24.8614 39.5344C24.8614 40.1017 24.4015 40.5617 23.8342 40.5617H19.5523C18.9849 40.5617 18.525 40.1017 18.525 39.5344C18.525 38.967 18.9849 38.5071 19.5523 38.5071Z" fill="url(#paint2_linear)"/>
<path d="M56.4474 40.5617H52.1656C51.5982 40.5617 51.1383 40.1016 51.1383 39.5344C51.1383 38.967 51.5982 38.5071 52.1656 38.5071H56.4474C57.0148 38.5071 57.4747 38.967 57.4747 39.5344C57.4747 40.1017 57.0148 40.5617 56.4474 40.5617Z" fill="url(#paint3_linear)"/>
<path d="M37.2738 53.6032C37.4636 53.4135 37.7298 53.3038 37.9999 53.3038C38.27 53.3038 38.5362 53.4135 38.726 53.6032C38.9172 53.7958 39.0272 54.0612 39.0272 54.3311C39.0272 54.6002 38.9167 54.8667 38.7262 55.0573C38.5356 55.2479 38.2691 55.3583 37.9999 55.3583C37.7308 55.3583 37.4642 55.2479 37.2737 55.0573C37.0831 54.8667 36.9726 54.6002 36.9726 54.3311C36.9726 54.0612 37.0826 53.7958 37.2738 53.6032Z" fill="url(#paint4_linear)"/>
<path fill-rule="evenodd" clip-rule="evenodd" d="M69.2571 12.4206C70.816 12.4206 72.0835 13.6881 72.0835 15.247C72.0835 16.8058 70.816 18.0734 69.2571 18.0734C67.6983 18.0734 66.4308 16.8058 66.4308 15.247C66.4308 13.6882 67.6983 12.4206 69.2571 12.4206ZM37.9997 12.4206C39.5586 12.4206 40.8261 13.6881 40.8261 15.247C40.8261 16.8058 39.5586 18.0734 37.9997 18.0734C36.4409 18.0734 35.1734 16.8058 35.1734 15.247C35.1734 13.6881 36.4409 12.4206 37.9997 12.4206ZM3.91598 15.247C3.91598 13.6881 5.18351 12.4206 6.74235 12.4206C8.3012 12.4206 9.56873 13.6881 9.56873 15.247C9.56873 16.8058 8.3012 18.0734 6.74235 18.0734C5.18351 18.0734 3.91598 16.8058 3.91598 15.247ZM69.2571 12.8206C70.5951 12.8206 71.6835 13.9091 71.6835 15.247C71.6835 16.5849 70.5951 17.6734 69.2571 17.6734C67.9192 17.6734 66.8308 16.5849 66.8308 15.247C66.8308 13.9091 67.9192 12.8206 69.2571 12.8206ZM37.9997 12.8206C39.3377 12.8206 40.4261 13.9091 40.4261 15.247C40.4261 16.5849 39.3377 17.6734 37.9997 17.6734C36.6618 17.6734 35.5734 16.5849 35.5734 15.247C35.5734 13.9091 36.6618 12.8206 37.9997 12.8206ZM4.31598 15.247C4.31598 13.9091 5.40442 12.8206 6.74235 12.8206C8.08029 12.8206 9.16873 13.9091 9.16873 15.247C9.16873 16.5849 8.08029 17.6734 6.74235 17.6734C5.40442 17.6734 4.31598 16.5849 4.31598 15.247Z" fill="url(#paint5_linear)"/>
<defs>
<linearGradient id="paint0_linear" x1="37.9998" y1="9.96606" x2="37.9998" y2="66.034" gradientUnits="userSpaceOnUse">
<stop stop-color="#E3BE7D"/>
<stop offset="1" stop-color="#E3BE7D" stop-opacity="0.5"/>
</linearGradient>
<linearGradient id="paint1_linear" x1="37.9998" y1="9.96606" x2="37.9998" y2="66.034" gradientUnits="userSpaceOnUse">
<stop stop-color="#E3BE7D"/>
<stop offset="1" stop-color="#E3BE7D" stop-opacity="0.5"/>
</linearGradient>
<linearGradient id="paint2_linear" x1="37.9998" y1="9.96606" x2="37.9998" y2="66.034" gradientUnits="userSpaceOnUse">
<stop stop-color="#E3BE7D"/>
<stop offset="1" stop-color="#E3BE7D" stop-opacity="0.5"/>
</linearGradient>
<linearGradient id="paint3_linear" x1="37.9998" y1="9.96606" x2="37.9998" y2="66.034" gradientUnits="userSpaceOnUse">
<stop stop-color="#E3BE7D"/>
<stop offset="1" stop-color="#E3BE7D" stop-opacity="0.5"/>
</linearGradient>
<linearGradient id="paint4_linear" x1="37.9998" y1="9.96606" x2="37.9998" y2="66.034" gradientUnits="userSpaceOnUse">
<stop stop-color="#E3BE7D"/>
<stop offset="1" stop-color="#E3BE7D" stop-opacity="0.5"/>
</linearGradient>
<linearGradient id="paint5_linear" x1="37.9998" y1="9.96606" x2="37.9998" y2="66.034" gradientUnits="userSpaceOnUse">
<stop stop-color="#E3BE7D"/>
<stop offset="1" stop-color="#E3BE7D" stop-opacity="0.5"/>
</linearGradient>
</defs>
</svg>
