<svg width="76" height="76" viewBox="0 0 76 76" fill="none" xmlns="http://www.w3.org/2000/svg">
<g clip-path="url(#clip0)">
<path fill-rule="evenodd" clip-rule="evenodd" d="M52.6184 51.867C58.6424 48.3821 62.8427 42.1074 63.4212 34.835C63.4518 34.451 63.4722 34.0643 63.4823 33.6751L63.4862 33.5255L63.5881 33.4154C66.0525 30.7549 69.3987 29.0917 72.9901 28.7231L73.4311 28.6779V31.2426C73.4311 34.7043 72.5816 38.1418 70.9736 41.1849C70.6949 41.7126 70.8987 42.3652 71.4285 42.6426C71.5899 42.7272 71.7623 42.767 71.9321 42.767C72.323 42.767 72.6992 42.5566 72.8931 42.1898C74.6637 38.8393 75.6 35.0534 75.6 31.2425V27.5657C75.6 26.9695 75.1144 26.4862 74.5156 26.4862C70.7297 26.4862 67.0866 27.741 64.1337 30.0006L63.4899 30.4932V18.9218C63.4899 18.3257 63.0044 17.8424 62.4055 17.8424C57.1412 17.8424 52.5398 20.7212 50.1033 24.982L49.6338 25.803L49.3713 24.8951C47.6493 18.9393 43.8902 13.6754 38.6117 10.0862C38.2428 9.83549 37.7574 9.83549 37.3884 10.0862C32.1097 13.6754 28.3505 18.9397 26.6286 24.8959L26.3661 25.8038L25.8966 24.9827C23.46 20.7216 18.859 17.8424 13.5945 17.8424C12.9957 17.8424 12.5101 18.3257 12.5101 18.9218V30.4932L11.8663 30.0006C8.91339 27.741 5.27017 26.4862 1.48438 26.4862C0.885469 26.4862 0.4 26.9695 0.4 27.5657V31.2425C0.4 43.0003 9.1041 52.7742 20.4355 54.5132L21.2278 54.6348L20.6537 55.1919C18.9654 56.8301 17.9156 59.1143 17.9156 61.6389V65.0223C17.9156 65.4088 18.1231 65.7656 18.4597 65.958C18.627 66.0538 18.8136 66.1017 19 66.1017C19.1886 66.1017 19.3774 66.0527 19.546 65.9549L22.2903 64.3631C24.8287 62.8905 27.7234 62.1122 30.6614 62.1122C32.916 62.1122 35.0328 61.2379 36.625 59.6489C37.0173 59.2574 37.3654 58.8342 37.6679 58.3855L38 57.8928L38.3321 58.3855C38.6346 58.8342 38.9827 59.2574 39.3748 59.6489C40.967 61.2379 43.0838 62.1122 45.3385 62.1122C45.5902 62.1122 45.8417 62.1179 46.0926 62.1293C48.77 62.2507 51.3888 63.0167 53.7096 64.3631L56.4537 65.955C56.6227 66.0529 56.8112 66.1018 56.9999 66.1018C57.1865 66.1018 57.3728 66.054 57.5399 65.9583C57.8766 65.7657 58.0842 65.4088 58.0842 65.0224V62.5533V61.6389C58.0842 59.1133 57.0334 56.8285 55.3441 55.1899L54.77 54.633L55.5622 54.5112C58.2164 54.103 60.7916 53.2494 63.15 51.9845C63.6773 51.7017 63.8744 51.047 63.5904 50.5222C63.4917 50.3397 63.3478 50.197 63.1798 50.1003C62.8648 49.9189 62.4653 49.8994 62.1214 50.0839C59.2751 51.6104 56.0826 52.4746 52.836 52.609L52.6184 51.867ZM43.3948 54.7886H49.0338C52.8288 54.7886 55.9156 57.8613 55.9156 61.6389V63.1441L54.8017 62.4977C51.9322 60.8334 48.6597 59.9534 45.3386 59.9534C43.6657 59.9534 42.0918 59.3033 40.9104 58.1244C40.8601 58.0741 40.8107 58.0231 40.7623 57.9714C40.0426 57.2034 39.539 56.2833 39.2817 55.2858L39.1535 54.7886H43.3948ZM61.3211 33.1153C61.3176 42.5934 54.4941 50.5135 45.4799 52.2677C44.421 52.4737 43.3318 52.5947 42.22 52.6231L41.1747 52.6499L41.9352 51.9355C47.3129 46.884 50.4274 39.8206 50.4274 32.3434C50.4274 32.2529 50.4256 32.1658 50.4236 32.0742L50.4236 32.0728C50.4227 32.0269 50.4217 31.9798 50.4209 31.9305L50.4142 31.5073L50.4346 31.5082C50.6378 25.6384 55.1226 20.8339 60.8701 20.0987L61.3211 20.0411V33.1079V33.1153ZM26.9662 54.7886C23.1712 54.7886 20.0844 57.8613 20.0844 61.6389V63.1441L21.1983 62.4977C24.0679 60.8334 27.3403 59.9534 30.6614 59.9534C32.3343 59.9534 33.9082 59.3033 35.0896 58.1244C35.8887 57.3269 36.4438 56.3505 36.7183 55.2857L36.8464 54.7886H26.9662ZM38.7665 30.4709C38.9677 30.2705 39.0844 29.9905 39.0844 29.7078C39.0844 29.4249 38.9678 29.145 38.7665 28.9447C38.5655 28.7446 38.2842 28.6283 38 28.6283C37.7158 28.6283 37.4346 28.7444 37.2334 28.9447C37.0322 29.1449 36.9156 29.4249 36.9156 29.7078C36.9156 29.992 37.032 30.2705 37.2333 30.4708C37.4345 30.671 37.7158 30.7872 38 30.7872C38.2842 30.7872 38.5655 30.671 38.7665 30.4709ZM39.0844 35.6921C39.0844 35.9749 38.9677 36.2549 38.7665 36.4552C38.5655 36.6554 38.2842 36.7715 38 36.7715C37.7158 36.7715 37.4345 36.6554 37.2333 36.4551C37.032 36.2548 36.9156 35.9763 36.9156 35.6921C36.9156 35.4092 37.0322 35.1293 37.2334 34.929C37.4346 34.7287 37.7158 34.6127 38 34.6127C38.2842 34.6127 38.5656 34.7289 38.7665 34.9291C38.9678 35.1293 39.0844 35.4093 39.0844 35.6921ZM38.7665 42.4394C38.9677 42.2391 39.0844 41.9591 39.0844 41.6763C39.0844 41.3935 38.9678 41.1135 38.7665 40.9133C38.5655 40.7131 38.2842 40.5969 38 40.5969C37.7158 40.5969 37.4346 40.713 37.2334 40.9132C37.0322 41.1135 36.9156 41.3935 36.9156 41.6763C36.9156 41.9593 37.0321 42.2392 37.2333 42.4394C37.4345 42.6396 37.7158 42.7557 38 42.7557C38.2842 42.7557 38.5655 42.6396 38.7665 42.4394ZM38 12.296L38.2392 12.4737C44.5319 17.1471 48.2586 24.4985 48.2586 32.3434C48.2586 40.1882 44.5319 47.5398 38.2392 52.213L38 52.3906L37.7608 52.213C31.4681 47.5398 27.7414 40.1882 27.7414 32.3434C27.7414 24.4985 31.4681 17.1471 37.7608 12.4737L38 12.296ZM15.1299 20.0987L14.6789 20.0411V33.1081C14.6789 43.7029 23.2006 52.3528 33.78 52.6233L34.8253 52.65L34.0648 51.9357C28.6871 46.8842 25.5726 39.8207 25.5726 32.3436C25.5726 32.256 25.5744 32.1725 25.5762 32.0846C25.5772 32.0352 25.5783 31.9843 25.5791 31.9306L25.585 31.5356L25.5663 31.5352C25.3759 25.6531 20.8862 20.835 15.1299 20.0987ZM2.56875 28.6777L3.00976 28.723C6.60094 29.0914 9.94752 30.7546 12.4118 33.4153L12.5137 33.5253L12.5176 33.6749C12.7187 41.4377 17.0402 48.1993 23.383 51.8678L23.1657 52.6099C11.7287 52.1442 2.56875 42.7395 2.56875 31.2425V28.6777Z" fill="url(#paint0_linear)"/>
<path fill-rule="evenodd" clip-rule="evenodd" d="M67.2178 47.8132C67.4191 48.0136 67.6989 48.1295 67.9844 48.1295C68.2676 48.1295 68.5477 48.0141 68.7508 47.8132C68.951 47.6136 69.0673 47.3336 69.0673 47.0501C69.0673 46.7651 68.9515 46.4868 68.7508 46.287C68.5486 46.0856 68.2689 45.9707 67.9844 45.9707C67.6979 45.9707 67.4189 46.0857 67.2185 46.2863L67.217 46.2878C67.0156 46.4872 66.9 46.7651 66.9 47.0501C66.9 47.3339 67.0157 47.6132 67.217 47.8125L67.2178 47.8132Z" fill="url(#paint1_linear)"/>
</g>
<defs>
<linearGradient id="paint0_linear" x1="38" y1="9.5" x2="38" y2="66.5" gradientUnits="userSpaceOnUse">
<stop stop-color="#E3BE7D"/>
<stop offset="1" stop-color="#E3BE7D" stop-opacity="0.5"/>
</linearGradient>
<linearGradient id="paint1_linear" x1="38" y1="9.5" x2="38" y2="66.5" gradientUnits="userSpaceOnUse">
<stop stop-color="#E3BE7D"/>
<stop offset="1" stop-color="#E3BE7D" stop-opacity="0.5"/>
</linearGradient>
<clipPath id="clip0">
<rect width="76" height="76" fill="white"/>
</clipPath>
</defs>
</svg>
