<svg width="76" height="76" viewBox="0 0 76 76" fill="none" xmlns="http://www.w3.org/2000/svg">
<path fill-rule="evenodd" clip-rule="evenodd" d="M30.3934 43.4266C29.5719 43.5798 28.6997 43.3978 27.9985 42.8807C27.8757 42.7902 27.7582 42.6894 27.6471 42.5783C27.2054 42.1366 26.9238 41.5834 26.8089 41.0004C26.6467 40.1782 26.816 39.2969 27.3352 38.5866C27.5922 38.235 27.5922 37.7576 27.3352 37.406C26.4479 36.192 26.5825 34.4788 27.6471 33.4142C28.2478 32.8135 29.0371 32.5134 29.8249 32.5134C30.3611 32.5134 30.898 32.6525 31.3757 32.9307C31.5998 33.0612 31.8108 33.2224 32.0027 33.4142L36.5847 37.9962L32.0027 42.5781C31.5471 43.0337 30.9834 43.3166 30.3934 43.4266ZM44.9093 48.5836L45.1708 48.2037L45.2967 49.2214C45.4665 50.5939 45.2993 52.0147 44.7669 53.356C44.5632 53.8695 44.8141 54.4507 45.3273 54.6547C45.4494 54.703 45.574 54.7256 45.6961 54.7256C46.0947 54.7256 46.4706 54.4859 46.6262 54.094C47.6844 51.4279 47.5798 48.5091 46.4481 45.9897L46.2299 45.504L46.7589 45.4432C47.8594 45.3167 48.9248 44.8342 49.7663 43.9926C51.3368 42.4221 51.6908 40.0905 50.7415 38.1686L50.6563 37.9961L50.7415 37.8236C51.6909 35.9018 51.337 33.5702 49.7665 31.9997C48.7028 30.9361 47.2808 30.4441 45.8834 30.5234L45.4477 30.5481L45.4725 30.1125C45.5518 28.7149 45.0599 27.293 43.9962 26.2293C42.4257 24.6587 40.0939 24.3049 38.172 25.2541L37.9995 25.3393L37.827 25.2541C35.9053 24.3046 33.5735 24.6587 32.0028 26.2293C30.9391 27.293 30.4472 28.7149 30.5265 30.1125L30.5513 30.5481L30.1156 30.5234C28.7182 30.4441 27.2962 30.936 26.2325 31.9997C26.0907 32.1415 25.9589 32.2895 25.837 32.4429C24.7335 33.8311 24.4479 35.6572 25.0277 37.2819C25.0932 37.4654 25.1697 37.6464 25.2574 37.8239L25.3426 37.9964L25.2574 38.1689C25.2216 38.2412 25.1877 38.3141 25.1557 38.3876C24.3365 40.2651 24.7212 42.4815 26.2325 43.9929C27.176 44.9363 28.4004 45.4304 29.64 45.4751C29.7016 45.4773 29.7633 45.4784 29.825 45.4784C29.9199 45.4784 30.0163 45.4749 30.1154 45.4692L30.2028 45.4642L30.5513 45.4442L30.5265 45.8801C30.4472 47.2777 30.9391 48.6998 32.0028 49.7633C33.5733 51.3338 35.9051 51.6876 37.827 50.7385L37.9995 50.6533L38.172 50.7385C38.881 51.0887 39.6453 51.2613 40.4064 51.2613C41.7092 51.2613 43.0041 50.7554 43.9961 49.7633C44.2187 49.5407 44.4156 49.3008 44.5894 49.0484L44.9093 48.5836ZM39.4076 12.8696C39.4076 12.5041 39.2589 12.1455 39.0004 11.887C38.7419 11.6287 38.3834 11.4798 38.0179 11.4798C37.651 11.4798 37.2938 11.6285 37.0353 11.887C36.7755 12.1455 36.6282 12.5041 36.6282 12.8696C36.6282 13.235 36.7755 13.5936 37.0353 13.8521C37.2938 14.1106 37.651 14.2593 38.0179 14.2593C38.3834 14.2593 38.7419 14.1106 39.0004 13.8521C39.2588 13.5936 39.4076 13.235 39.4076 12.8696ZM32.7774 13.3686C32.913 13.904 32.5887 14.4481 32.0532 14.5836C21.333 17.2972 13.846 26.9269 13.846 38C13.846 51.3188 24.681 62.1538 37.9998 62.1538C51.3186 62.1538 62.1535 51.3188 62.1535 38C62.1535 26.9354 54.6737 17.3074 43.9634 14.588C43.4281 14.4521 43.1042 13.9079 43.2402 13.3724C43.3761 12.8369 43.92 12.5131 44.4558 12.649C46.3655 13.1339 48.1795 13.8227 49.879 14.6867L50.2081 14.8541L53.7172 8.77625L53.3579 8.58789C49.1536 6.38375 44.4218 5.05519 39.4058 4.84496L39 4.82795V6.48776C39 7.04006 38.5521 7.48801 37.9998 7.48801C37.4474 7.48801 36.9995 7.04009 36.9995 6.48776V4.82796L36.5938 4.84496C31.5778 5.05505 26.846 6.38362 22.6416 8.5879L22.2823 8.77626L25.7912 14.8538L26.1204 14.6865C27.8254 13.82 29.6456 13.1295 31.5623 12.6443C32.0976 12.509 32.6419 12.8333 32.7774 13.3686ZM36.9995 71.1721L36.5937 71.1551C31.5777 70.9448 26.846 69.6163 22.6416 67.4121L22.2823 67.2238L25.7991 61.1326L26.1287 61.3012C29.3097 62.9287 32.8657 63.9234 36.6302 64.1185L36.9995 64.1377V71.1721ZM37.9998 2.81257C28.6001 2.81257 19.7651 6.47224 13.1184 13.1186C6.47198 19.7653 2.81233 28.6004 2.81233 38C2.81233 47.3996 6.47198 56.2347 13.1184 62.8814C19.7651 69.5278 28.6001 73.1875 37.9998 73.1875C47.3994 73.1875 56.2345 69.5278 62.8812 62.8814C69.5276 56.2347 73.1872 47.3996 73.1872 38C73.1872 28.6004 69.5276 19.7653 62.8812 13.1186C56.2345 6.47223 47.3994 2.81257 37.9998 2.81257ZM42.5816 31.9997C43.7829 30.7986 43.7829 28.845 42.5816 27.6439C41.5171 26.5793 39.8038 26.4443 38.5899 27.3321C38.5572 27.356 38.5233 27.3777 38.4886 27.3972C38.1505 27.5867 37.728 27.565 37.4093 27.3321C36.8705 26.9382 36.2337 26.7465 35.6017 26.7465C34.8074 26.7465 34.012 27.0493 33.4175 27.644C32.2163 28.845 32.2163 30.7986 33.4175 31.9997L37.9995 36.5817L42.5816 31.9997ZM45.0678 43.2749C44.677 43.1251 44.3108 42.8929 43.9962 42.5782L39.4142 37.9964L43.9962 33.4143C44.3949 33.0156 44.8766 32.7492 45.386 32.6152C46.4113 32.3455 47.5495 32.6119 48.3519 33.4143C49.4165 34.479 49.5511 36.1922 48.6638 37.4061C48.4068 37.7575 48.4067 38.235 48.6638 38.5866C49.5511 39.8006 49.4165 41.5136 48.3519 42.5782C47.4653 43.4648 46.169 43.697 45.0678 43.2749ZM33.4175 48.3486C34.4821 49.4133 36.1957 49.5477 37.4093 48.6605C37.5851 48.532 37.7922 48.4677 37.9995 48.4677C38.2068 48.4677 38.4138 48.532 38.5899 48.6606C39.8037 49.5477 41.5171 49.4129 42.5815 48.3487C43.7827 47.1476 43.7827 45.194 42.5815 43.9928L37.9995 39.4109L33.4175 43.9928C32.2163 45.194 32.2163 47.1474 33.4175 48.3486ZM60.1442 24.06L59.943 23.7498C57.9587 20.6918 55.3439 18.0614 52.2514 16.0545L51.9413 15.8532L55.4488 9.77827L55.7919 9.99708C59.8948 12.613 63.3867 16.105 66.0027 20.208L66.2215 20.5512L60.1442 24.06ZM64.1172 36.6304L64.1363 36.9998L71.172 36.9996L71.155 36.5938C70.9447 31.5779 69.6162 26.8461 67.412 22.6417L67.2237 22.2824L61.1434 25.793L61.3109 26.1222C62.9398 29.3229 63.9234 32.8874 64.1172 36.6304ZM61.1324 50.2007L61.301 49.8711C62.9283 46.6899 63.9231 43.134 64.1183 39.3696L64.1374 39.0003H71.1718L71.1548 39.406C70.9447 44.422 69.6162 49.1538 67.4119 53.3582L67.2235 53.7174L61.1324 50.2007ZM52.2397 59.9269L51.9305 60.1284L55.4486 66.2218L55.7918 66.0029C59.8947 63.387 63.3867 59.895 66.0026 55.7922L66.2214 55.449L60.128 51.9309L59.9266 52.2401C57.9285 55.306 55.3056 57.9289 52.2397 59.9269ZM39 64.1377L39.3693 64.1185C43.1339 63.9234 46.6898 62.9287 49.8709 61.3012L50.2005 61.1326L53.7172 67.2238L53.3579 67.4121C49.1536 69.6163 44.4218 70.9448 39.4058 71.1551L39 71.1721V64.1377ZM16.0728 52.2399L15.8714 51.9308L9.77803 55.4489L9.99683 55.792C12.6128 59.895 16.1048 63.387 20.2078 66.0028L20.5509 66.2216L24.069 60.1283L23.7598 59.9268C20.6938 57.9288 18.0709 55.3059 16.0728 52.2399ZM11.8621 39.0003L11.8813 39.3696C12.0764 43.1341 13.0711 46.69 14.6986 49.8711L14.8672 50.2007L8.77602 53.7174L8.58765 53.3582C6.38337 49.1538 5.0548 44.422 4.84471 39.406L4.82772 39.0003H11.8621ZM14.6881 26.1219L14.8556 25.7927L8.77602 22.2826L8.58765 22.6419C6.38337 26.8462 5.0548 31.578 4.84471 36.594L4.82772 36.9998H11.8633L11.8824 36.6304C12.0762 32.8868 13.0594 29.3223 14.6881 26.1219ZM24.058 15.8527L23.7478 16.0539C20.6551 18.0607 18.0401 20.6911 16.0559 23.7494L15.8547 24.0596L9.77803 20.5512L9.99683 20.208C12.6128 16.105 16.1048 12.613 20.2077 9.99708L20.5509 9.77827L24.058 15.8527Z" fill="url(#paint0_linear)"/>
<defs>
<linearGradient id="paint0_linear" x1="37.9998" y1="2.4231" x2="37.9998" y2="73.5769" gradientUnits="userSpaceOnUse">
<stop stop-color="#E3BE7D"/>
<stop offset="1" stop-color="#E3BE7D" stop-opacity="0.5"/>
</linearGradient>
</defs>
</svg>
