<svg width="76" height="76" viewBox="0 0 76 76" fill="none" xmlns="http://www.w3.org/2000/svg">
<path d="M44.6797 10.3971H68.5781C72.4496 10.3971 75.6 13.5248 75.6 17.3684V58.6316C75.6 62.4752 72.4496 65.6029 68.5781 65.6029H7.42188C3.55037 65.6029 0.4 62.4752 0.4 58.6316V17.3684C0.4 13.5248 3.55037 10.3971 7.42188 10.3971H31.3203C31.9192 10.3971 32.4047 10.8791 32.4047 11.4737C32.4047 12.0683 31.9192 12.5502 31.3203 12.5502H7.42188C4.74551 12.5502 2.56875 14.7113 2.56875 17.3684V58.6316C2.56875 61.2887 4.74551 63.4498 7.42188 63.4498H68.5781C71.2545 63.4498 73.4313 61.2887 73.4313 58.6316V17.3684C73.4313 14.7113 71.2545 12.5502 68.5781 12.5502H44.6797C44.0808 12.5502 43.5953 12.0683 43.5953 11.4737C43.5953 10.8791 44.0808 10.3971 44.6797 10.3971Z" fill="url(#paint0_linear)"/>
<path d="M38.7666 12.2348C38.5654 12.4345 38.2842 12.5502 38 12.5502C37.7158 12.5502 37.4346 12.4345 37.2334 12.2348C37.0322 12.035 36.9156 11.7558 36.9156 11.4737C36.9156 11.1916 37.0322 10.9123 37.2334 10.7126C37.4346 10.5129 37.7158 10.3971 38 10.3971C38.2842 10.3971 38.5654 10.5129 38.7666 10.7126C38.9678 10.9123 39.0844 11.1916 39.0844 11.4737C39.0844 11.7558 38.9678 12.035 38.7666 12.2348Z" fill="url(#paint1_linear)"/>
<path d="M22.951 30.1787C22.7507 29.8741 22.4093 29.6905 22.043 29.6905H14.0273C13.4284 29.6905 12.943 30.1725 12.943 30.7671C12.943 31.3617 13.4284 31.8437 14.0273 31.8437H20.3818L14.6453 44.7994C14.4044 45.3437 14.6533 45.9788 15.2013 46.2182C15.3444 46.2805 15.4922 46.3097 15.6371 46.3097C16.0552 46.3097 16.4523 46.0688 16.6306 45.666L23.0356 31.2005C23.183 30.8675 23.1512 30.4833 22.951 30.1787Z" fill="url(#paint2_linear)"/>
<path d="M35.602 46.3097C35.457 46.3097 35.3092 46.2805 35.1662 46.2182C34.6182 45.9788 34.3692 45.3437 34.6101 44.7994L40.3467 31.8437H33.9922C33.3933 31.8437 32.9078 31.3617 32.9078 30.7671C32.9078 30.1725 33.3933 29.6905 33.9922 29.6905H42.0078C42.3741 29.6905 42.7155 29.874 42.9158 30.1786C43.1161 30.4832 43.1479 30.8675 43.0004 31.2005L36.5955 45.666C36.4172 46.0688 36.02 46.3097 35.602 46.3097Z" fill="url(#paint3_linear)"/>
<path d="M55.131 46.2182C54.583 45.9788 54.3341 45.3437 54.575 44.7994L60.3115 31.8437H53.957C53.3581 31.8437 52.8727 31.3617 52.8727 30.7671C52.8727 30.1725 53.3581 29.6905 53.957 29.6905H61.9727C62.3389 29.6905 62.6804 29.874 62.8807 30.1786C63.0809 30.4832 63.1127 30.8676 62.9653 31.2005L56.5603 45.666C56.382 46.0688 55.9849 46.3097 55.5668 46.3097C55.4218 46.3097 55.274 46.2805 55.131 46.2182Z" fill="url(#paint4_linear)"/>
<path fill-rule="evenodd" clip-rule="evenodd" d="M6.93125 58.0421V17.9579C6.93125 17.3633 7.41672 16.8813 8.01562 16.8813H67.9844C68.5833 16.8813 69.0687 17.3633 69.0687 17.9579V58.0421C69.0687 58.6367 68.5833 59.1187 67.9844 59.1187H8.01562C7.41672 59.1187 6.93125 58.6367 6.93125 58.0421ZM29.1391 56.9655V19.0345H46.8609V56.9655H29.1391ZM66.9 56.9655H49.0297V19.0345H66.9V56.9655ZM9.1 19.0345H26.9703V56.9655H9.1V19.0345Z" fill="url(#paint5_linear)"/>
<defs>
<linearGradient id="paint0_linear" x1="38" y1="10" x2="38" y2="66" gradientUnits="userSpaceOnUse">
<stop stop-color="#E3BE7D"/>
<stop offset="1" stop-color="#E3BE7D" stop-opacity="0.5"/>
</linearGradient>
<linearGradient id="paint1_linear" x1="38" y1="10" x2="38" y2="66" gradientUnits="userSpaceOnUse">
<stop stop-color="#E3BE7D"/>
<stop offset="1" stop-color="#E3BE7D" stop-opacity="0.5"/>
</linearGradient>
<linearGradient id="paint2_linear" x1="38" y1="10" x2="38" y2="66" gradientUnits="userSpaceOnUse">
<stop stop-color="#E3BE7D"/>
<stop offset="1" stop-color="#E3BE7D" stop-opacity="0.5"/>
</linearGradient>
<linearGradient id="paint3_linear" x1="38" y1="10" x2="38" y2="66" gradientUnits="userSpaceOnUse">
<stop stop-color="#E3BE7D"/>
<stop offset="1" stop-color="#E3BE7D" stop-opacity="0.5"/>
</linearGradient>
<linearGradient id="paint4_linear" x1="38" y1="10" x2="38" y2="66" gradientUnits="userSpaceOnUse">
<stop stop-color="#E3BE7D"/>
<stop offset="1" stop-color="#E3BE7D" stop-opacity="0.5"/>
</linearGradient>
<linearGradient id="paint5_linear" x1="38" y1="10" x2="38" y2="66" gradientUnits="userSpaceOnUse">
<stop stop-color="#E3BE7D"/>
<stop offset="1" stop-color="#E3BE7D" stop-opacity="0.5"/>
</linearGradient>
</defs>
</svg>
