<svg width="76" height="76" viewBox="0 0 76 76" fill="none" xmlns="http://www.w3.org/2000/svg">
<g clip-path="url(#clip0)">
<path d="M6.3375 72.5365C6.3375 71.9376 6.82309 71.4521 7.42188 71.4521C8.02066 71.4521 8.50625 71.9376 8.50625 72.5365V74.5156C8.50625 75.1145 8.02066 75.6 7.42188 75.6C6.82309 75.6 6.3375 75.1145 6.3375 74.5156V72.5365Z" fill="url(#paint0_linear)"/>
<path d="M11.3802 67.4938H13.3593C13.9581 67.4938 14.4437 67.9792 14.4437 68.5781C14.4437 69.177 13.9581 69.6625 13.3593 69.6625H11.3802C10.7814 69.6625 10.2958 69.177 10.2958 68.5781C10.2958 67.9792 10.7814 67.4938 11.3802 67.4938Z" fill="url(#paint1_linear)"/>
<path d="M6.3375 62.6406C6.3375 62.0417 6.82309 61.5563 7.42188 61.5563C8.02066 61.5563 8.50625 62.0417 8.50625 62.6406V64.6197C8.50625 65.2186 8.02066 65.7041 7.42188 65.7041C6.82309 65.7041 6.3375 65.2186 6.3375 64.6197V62.6406Z" fill="url(#paint2_linear)"/>
<path d="M1.48438 67.4938H3.46349C4.06228 67.4938 4.54787 67.9792 4.54787 68.5781C4.54787 69.177 4.06228 69.6625 3.46349 69.6625H1.48438C0.885469 69.6625 0.4 69.177 0.4 68.5781C0.4 67.9792 0.885469 67.4938 1.48438 67.4938Z" fill="url(#paint3_linear)"/>
<path d="M47.0817 56.8978C48.5629 55.4165 49.5139 53.6041 49.9378 51.6961L47.8532 51.1117C47.5204 52.7116 46.7299 54.1823 45.5479 55.3643C42.6187 58.2937 37.8962 58.6625 34.5571 56.2214C34.1759 55.9428 33.6583 55.9428 33.2772 56.2214C31.6657 57.3994 29.675 57.9684 27.6733 57.8259C27.0772 57.7824 26.5579 58.2323 26.5152 58.8304C26.4726 59.4278 26.9223 59.9465 27.5196 59.9891C29.6947 60.1441 31.8583 59.6287 33.7132 58.5291L33.9172 58.4081L34.1212 58.5291C35.76 59.5009 37.6392 60.0163 39.5548 60.0163C39.813 60.0163 40.0719 60.007 40.3306 59.9881C42.8768 59.8027 45.2744 58.7054 47.0817 56.8978Z" fill="url(#paint4_linear)"/>
<path fill-rule="evenodd" clip-rule="evenodd" d="M49.6569 14.4625L49.8338 13.7962C50.1568 12.5791 50.2616 11.3159 50.1481 10.0693L46.9826 6.96084C48.7526 10.1817 48.2743 14.3173 45.5479 17.0438L36.7798 25.8119L36.5143 25.6596C35.7479 25.2201 34.8619 24.9676 33.917 24.9676C32.9722 24.9676 32.0862 25.2201 31.3198 25.6596L31.0543 25.8119L30.0732 24.8307L29.1654 26.9903L29.5207 27.3455L29.3684 27.611C28.9289 28.3774 28.6764 29.2634 28.6764 30.2082C28.6764 31.1532 28.929 32.039 29.3686 32.8057L29.5208 33.0711L24.4986 38.0931L22.2743 43.3848C22.2766 43.3825 22.2789 43.3802 22.2812 43.3779C22.2861 43.3729 22.2905 43.3686 22.2937 43.3656L31.0545 34.6046L31.3199 34.7569C32.0864 35.1964 32.9723 35.4489 33.9172 35.4489C34.862 35.4489 35.748 35.1964 36.5145 34.7569L36.7799 34.6046L45.5481 43.3727C47.149 44.9736 48.0316 47.1043 48.0316 49.3684C48.0316 49.961 47.9712 50.5445 47.8532 51.1117L49.9378 51.6961C49.9886 51.4675 50.0318 51.2374 50.0675 51.0064L50.2861 49.5905L50.7996 50.835L52.0268 48.3365C51.7943 47.8848 51.546 47.4392 51.2818 47.0006L50.8539 46.2901L51.6763 46.3976C52.0917 46.4519 52.511 46.4842 52.9337 46.4903L54.0239 44.2707C53.7118 44.3052 53.3959 44.3227 53.0774 44.3227C50.8131 44.3227 48.6825 43.4401 47.0816 41.8391L38.3134 33.071L38.4657 32.8055C38.9052 32.0391 39.1577 31.1531 39.1577 30.2082C39.1577 29.2634 38.9052 28.3774 38.4655 27.6109L38.3133 27.3454L47.0814 18.5772C48.6824 16.9763 50.813 16.0937 53.0772 16.0937C54.7146 16.0937 56.282 16.5552 57.6299 17.4162L54.1262 13.9757C53.7798 13.9421 53.4298 13.9251 53.0772 13.9251C52.1343 13.9251 51.211 14.0494 50.3231 14.2854L49.6569 14.4625ZM30.845 30.2082C30.845 28.5141 32.2227 27.1364 33.9169 27.1364C35.6111 27.1364 36.9888 28.5141 36.9888 30.2082C36.9888 31.9024 35.6111 33.2801 33.9169 33.2801C32.2227 33.2801 30.845 31.9024 30.845 30.2082Z" fill="url(#paint5_linear)"/>
<path d="M18.8201 51.136C18.893 51.1308 18.9636 51.1185 19.0315 51.0999L19.8034 49.2634C19.831 47.0646 20.7107 44.9547 22.2743 43.3848L24.4986 38.0931L20.7525 41.839C17.4461 45.1455 12.0672 45.1455 8.76083 41.839C5.83144 38.9098 5.46252 34.1876 7.90375 30.8481C8.18231 30.4669 8.18231 29.9494 7.90375 29.5682C5.46252 26.2288 5.83144 21.5066 8.76083 18.5773C12.0672 15.2712 17.4463 15.271 20.7526 18.5774L29.1654 26.9903L30.0732 24.8307L22.2863 17.0439C20.6851 15.4428 19.8025 13.3122 19.8025 11.0479C19.8025 8.78385 20.6851 6.65312 22.2862 5.05203C25.2152 2.1228 29.9373 1.75357 33.277 4.19495C33.6584 4.4734 34.1757 4.47337 34.557 4.19485C36.0056 3.13604 37.7143 2.60592 39.424 2.58413L40.3302 0.428362C38.1495 0.269827 35.9804 0.7846 34.1209 1.88724L33.9169 2.00823L33.7129 1.88724C31.8534 0.784565 29.6841 0.269395 27.5036 0.428362C24.9575 0.613754 22.5597 1.71116 20.7526 3.51851C18.7409 5.53024 17.6337 8.20295 17.6337 11.0479C17.6337 11.9908 17.758 12.9142 17.994 13.802L18.1712 14.4682L17.5049 14.2914C13.9518 13.3484 10.0061 14.2652 7.2273 17.0438C5.41993 18.8512 4.32255 21.2488 4.13716 23.795C3.97833 25.9753 4.49323 28.1448 5.59603 30.0044L5.71703 30.2084L5.59602 30.4124C4.49322 32.2719 3.97819 34.4413 4.13716 36.6217C4.32255 39.1677 5.41993 41.5654 7.22731 43.3728C9.30301 45.4484 12.0289 46.4864 14.7569 46.4864C15.6824 46.4864 16.6082 46.3637 17.5097 46.124L18.1777 45.9464L17.9989 46.614C17.6953 47.7478 17.5755 48.9349 17.661 50.1317C17.7018 50.7026 18.1778 51.1389 18.7411 51.1389C18.7663 51.1389 18.7926 51.1379 18.8201 51.136Z" fill="url(#paint6_linear)"/>
<path d="M47.0573 75.6C47.3356 75.6 47.6122 75.4943 47.8241 75.2824C55.1034 68.0031 56.5043 57.0364 52.0268 48.3365L50.7996 50.835L50.8325 50.9149C53.9658 58.5085 52.4539 67.5855 46.2906 73.7487C45.8671 74.1722 45.8671 74.8588 46.2906 75.2824C46.5024 75.4943 46.7792 75.6 47.0573 75.6Z" fill="url(#paint7_linear)"/>
<path d="M43.5204 3.56109L40.3302 0.428362L39.424 2.58413C40.8377 2.56612 42.252 2.89561 43.5204 3.56109Z" fill="url(#paint8_linear)"/>
<path d="M47.0812 3.51867C45.2738 1.71129 42.8761 0.613762 40.3302 0.428362L43.5204 3.56109C44.2546 3.94626 44.9399 4.44399 45.5479 5.05203C46.1279 5.632 46.6061 6.27573 46.9826 6.96084L50.1481 10.0693C49.9302 7.67676 48.9081 5.34546 47.0812 3.51867Z" fill="url(#paint9_linear)"/>
<path d="M63.6528 23.3306C63.3749 20.9584 62.3038 18.7408 60.6066 17.0438C58.8443 15.2815 56.5746 14.2134 54.1262 13.9757L57.6299 17.4162C58.1459 17.7458 58.6297 18.134 59.073 18.5772C59.4738 18.978 59.8267 19.4124 60.131 19.8722L63.6528 23.3306Z" fill="url(#paint10_linear)"/>
<path d="M63.725 24.5207C63.7239 24.2791 63.7146 24.0369 63.6969 23.7946C63.6856 23.6394 63.6709 23.4846 63.6528 23.3306L60.131 19.8722C62.0507 22.7728 62.0372 26.6856 59.9302 29.568C59.6516 29.9494 59.6517 30.4672 59.9303 30.8481C60.0715 31.0413 60.2034 31.2391 60.3258 31.4409L63.725 24.5207Z" fill="url(#paint11_linear)"/>
<path d="M62.1172 30.2083L62.2382 30.0042C63.2183 28.3513 63.734 26.4535 63.725 24.5207L60.3258 31.4409C62.3202 34.7278 61.833 39.0792 59.0731 41.8391C57.6974 43.2149 55.9305 44.0601 54.0239 44.2707L52.9337 46.4903C52.9815 46.4909 53.0294 46.4913 53.0774 46.4913C55.9224 46.4913 58.5951 45.3842 60.6068 43.3725C62.4142 41.5651 63.5115 39.1675 63.6971 36.6215C63.8558 34.4411 63.341 32.2717 62.2382 30.4123L62.1172 30.2083Z" fill="url(#paint12_linear)"/>
<path d="M35.0009 47.2537V40.3019C35.0009 39.703 34.5153 39.2175 33.9165 39.2175C33.3176 39.2175 32.8321 39.703 32.8321 40.3019V46.9006L34.9726 47.5007C34.9911 47.4214 35.0009 47.3387 35.0009 47.2537Z" fill="url(#paint13_linear)"/>
<path d="M16.871 29.1238H23.8228C24.4217 29.1238 24.9072 29.6092 24.9072 30.2081C24.9072 30.807 24.4216 31.2925 23.8228 31.2925H16.871C16.2722 31.2925 15.7867 30.807 15.7867 30.2081C15.7867 29.6093 16.2722 29.1238 16.871 29.1238Z" fill="url(#paint14_linear)"/>
<path d="M32.8321 47.2537C32.8321 47.8526 33.3176 48.338 33.9165 48.338C34.4304 48.338 34.8608 47.9806 34.9726 47.5007L32.8321 46.9006V47.2537Z" fill="url(#paint15_linear)"/>
<path d="M33.9165 21.1989C34.5153 21.1989 35.0009 20.7134 35.0009 20.1145V13.1626C35.0009 13.145 35.0005 13.1275 34.9996 13.1102L32.8321 18.2668V20.1144C32.8321 20.7134 33.3178 21.1989 33.9165 21.1989Z" fill="url(#paint16_linear)"/>
<path d="M33.9165 12.0782C33.3176 12.0782 32.8321 12.5637 32.8321 13.1626V18.2668L34.9996 13.1102C34.9723 12.5356 34.4977 12.0782 33.9165 12.0782Z" fill="url(#paint17_linear)"/>
<path d="M44.0103 29.1238H50.962C51.561 29.1238 52.0464 29.6092 52.0464 30.2081C52.0464 30.807 51.5608 31.2925 50.962 31.2925H44.0103C43.4115 31.2925 42.9259 30.807 42.9259 30.2081C42.9259 29.6093 43.4115 29.1238 44.0103 29.1238Z" fill="url(#paint18_linear)"/>
<path d="M67.4938 1.48438C67.4938 0.885495 67.9793 0.4 68.5781 0.4C69.1769 0.4 69.6625 0.885495 69.6625 1.48438V3.46349C69.6625 4.06237 69.1769 4.54787 68.5781 4.54787C67.9793 4.54787 67.4938 4.06237 67.4938 3.46349V1.48438Z" fill="url(#paint19_linear)"/>
<path d="M62.6406 6.3375H64.6197C65.2185 6.3375 65.7041 6.82299 65.7041 7.42188C65.7041 8.02076 65.2185 8.50625 64.6197 8.50625H62.6406C62.0418 8.50625 61.5563 8.02076 61.5563 7.42188C61.5563 6.82299 62.0418 6.3375 62.6406 6.3375Z" fill="url(#paint20_linear)"/>
<path d="M72.5365 6.3375H74.5156C75.1144 6.3375 75.6 6.82299 75.6 7.42188C75.6 8.02076 75.1144 8.50625 74.5156 8.50625H72.5365C71.9377 8.50625 71.4521 8.02076 71.4521 7.42188C71.4521 6.82299 71.9377 6.3375 72.5365 6.3375Z" fill="url(#paint21_linear)"/>
<path d="M67.4938 11.3801C67.4938 10.7812 67.9793 10.2957 68.5781 10.2957C69.1769 10.2957 69.6625 10.7813 69.6625 11.3801V13.3594C69.6625 13.9582 69.1769 14.4437 68.5781 14.4437C67.9793 14.4437 67.4938 13.9582 67.4938 13.3594V11.3801Z" fill="url(#paint22_linear)"/>
<circle cx="21.5" cy="56.1" r="1" fill="url(#paint23_linear)"/>
</g>
<defs>
<linearGradient id="paint0_linear" x1="38" y1="0" x2="38" y2="76" gradientUnits="userSpaceOnUse">
<stop stop-color="#E3BE7D"/>
<stop offset="1" stop-color="#E3BE7D" stop-opacity="0.5"/>
</linearGradient>
<linearGradient id="paint1_linear" x1="38" y1="0" x2="38" y2="76" gradientUnits="userSpaceOnUse">
<stop stop-color="#E3BE7D"/>
<stop offset="1" stop-color="#E3BE7D" stop-opacity="0.5"/>
</linearGradient>
<linearGradient id="paint2_linear" x1="38" y1="0" x2="38" y2="76" gradientUnits="userSpaceOnUse">
<stop stop-color="#E3BE7D"/>
<stop offset="1" stop-color="#E3BE7D" stop-opacity="0.5"/>
</linearGradient>
<linearGradient id="paint3_linear" x1="38" y1="0" x2="38" y2="76" gradientUnits="userSpaceOnUse">
<stop stop-color="#E3BE7D"/>
<stop offset="1" stop-color="#E3BE7D" stop-opacity="0.5"/>
</linearGradient>
<linearGradient id="paint4_linear" x1="38" y1="0" x2="38" y2="76" gradientUnits="userSpaceOnUse">
<stop stop-color="#E3BE7D"/>
<stop offset="1" stop-color="#E3BE7D" stop-opacity="0.5"/>
</linearGradient>
<linearGradient id="paint5_linear" x1="38" y1="0" x2="38" y2="76" gradientUnits="userSpaceOnUse">
<stop stop-color="#E3BE7D"/>
<stop offset="1" stop-color="#E3BE7D" stop-opacity="0.5"/>
</linearGradient>
<linearGradient id="paint6_linear" x1="38" y1="0" x2="38" y2="76" gradientUnits="userSpaceOnUse">
<stop stop-color="#E3BE7D"/>
<stop offset="1" stop-color="#E3BE7D" stop-opacity="0.5"/>
</linearGradient>
<linearGradient id="paint7_linear" x1="38" y1="0" x2="38" y2="76" gradientUnits="userSpaceOnUse">
<stop stop-color="#E3BE7D"/>
<stop offset="1" stop-color="#E3BE7D" stop-opacity="0.5"/>
</linearGradient>
<linearGradient id="paint8_linear" x1="38" y1="0" x2="38" y2="76" gradientUnits="userSpaceOnUse">
<stop stop-color="#E3BE7D"/>
<stop offset="1" stop-color="#E3BE7D" stop-opacity="0.5"/>
</linearGradient>
<linearGradient id="paint9_linear" x1="38" y1="0" x2="38" y2="76" gradientUnits="userSpaceOnUse">
<stop stop-color="#E3BE7D"/>
<stop offset="1" stop-color="#E3BE7D" stop-opacity="0.5"/>
</linearGradient>
<linearGradient id="paint10_linear" x1="38" y1="0" x2="38" y2="76" gradientUnits="userSpaceOnUse">
<stop stop-color="#E3BE7D"/>
<stop offset="1" stop-color="#E3BE7D" stop-opacity="0.5"/>
</linearGradient>
<linearGradient id="paint11_linear" x1="38" y1="0" x2="38" y2="76" gradientUnits="userSpaceOnUse">
<stop stop-color="#E3BE7D"/>
<stop offset="1" stop-color="#E3BE7D" stop-opacity="0.5"/>
</linearGradient>
<linearGradient id="paint12_linear" x1="38" y1="0" x2="38" y2="76" gradientUnits="userSpaceOnUse">
<stop stop-color="#E3BE7D"/>
<stop offset="1" stop-color="#E3BE7D" stop-opacity="0.5"/>
</linearGradient>
<linearGradient id="paint13_linear" x1="38" y1="0" x2="38" y2="76" gradientUnits="userSpaceOnUse">
<stop stop-color="#E3BE7D"/>
<stop offset="1" stop-color="#E3BE7D" stop-opacity="0.5"/>
</linearGradient>
<linearGradient id="paint14_linear" x1="38" y1="0" x2="38" y2="76" gradientUnits="userSpaceOnUse">
<stop stop-color="#E3BE7D"/>
<stop offset="1" stop-color="#E3BE7D" stop-opacity="0.5"/>
</linearGradient>
<linearGradient id="paint15_linear" x1="38" y1="0" x2="38" y2="76" gradientUnits="userSpaceOnUse">
<stop stop-color="#E3BE7D"/>
<stop offset="1" stop-color="#E3BE7D" stop-opacity="0.5"/>
</linearGradient>
<linearGradient id="paint16_linear" x1="38" y1="0" x2="38" y2="76" gradientUnits="userSpaceOnUse">
<stop stop-color="#E3BE7D"/>
<stop offset="1" stop-color="#E3BE7D" stop-opacity="0.5"/>
</linearGradient>
<linearGradient id="paint17_linear" x1="38" y1="0" x2="38" y2="76" gradientUnits="userSpaceOnUse">
<stop stop-color="#E3BE7D"/>
<stop offset="1" stop-color="#E3BE7D" stop-opacity="0.5"/>
</linearGradient>
<linearGradient id="paint18_linear" x1="38" y1="0" x2="38" y2="76" gradientUnits="userSpaceOnUse">
<stop stop-color="#E3BE7D"/>
<stop offset="1" stop-color="#E3BE7D" stop-opacity="0.5"/>
</linearGradient>
<linearGradient id="paint19_linear" x1="38" y1="0" x2="38" y2="76" gradientUnits="userSpaceOnUse">
<stop stop-color="#E3BE7D"/>
<stop offset="1" stop-color="#E3BE7D" stop-opacity="0.5"/>
</linearGradient>
<linearGradient id="paint20_linear" x1="38" y1="0" x2="38" y2="76" gradientUnits="userSpaceOnUse">
<stop stop-color="#E3BE7D"/>
<stop offset="1" stop-color="#E3BE7D" stop-opacity="0.5"/>
</linearGradient>
<linearGradient id="paint21_linear" x1="38" y1="0" x2="38" y2="76" gradientUnits="userSpaceOnUse">
<stop stop-color="#E3BE7D"/>
<stop offset="1" stop-color="#E3BE7D" stop-opacity="0.5"/>
</linearGradient>
<linearGradient id="paint22_linear" x1="38" y1="0" x2="38" y2="76" gradientUnits="userSpaceOnUse">
<stop stop-color="#E3BE7D"/>
<stop offset="1" stop-color="#E3BE7D" stop-opacity="0.5"/>
</linearGradient>
<linearGradient id="paint23_linear" x1="21.5" y1="55.1" x2="21.5" y2="57.1" gradientUnits="userSpaceOnUse">
<stop stop-color="#E3BE7D"/>
<stop offset="1" stop-color="#E3BE7D" stop-opacity="0.5"/>
</linearGradient>
<clipPath id="clip0">
<rect width="76" height="76" fill="white"/>
</clipPath>
</defs>
</svg>
