<svg width="76" height="76" viewBox="0 0 76 76" fill="none" xmlns="http://www.w3.org/2000/svg">
<g clip-path="url(#clip0)">
<path d="M74.9594 44.1071C74.879 43.4248 74.6551 42.7672 74.3024 42.1775C73.9517 41.59 73.4838 41.081 72.9277 40.6823C72.3688 40.2982 71.735 40.0365 71.0678 39.9145C70.1307 39.7807 69.1836 39.73 68.2376 39.7629H65.0233L65.1648 39.2477L65.741 37.2877V37.1665C66.1512 35.8799 66.1897 34.5037 65.8521 33.1961C65.4425 31.6552 64.5166 30.3012 63.2291 29.3599C61.9415 28.4186 60.37 27.9469 58.7766 28.0235H39.9051C39.4133 28.0104 38.9302 27.8897 38.49 27.6699C37.1873 26.9612 35.7429 26.5518 34.2618 26.4714C32.7808 26.391 31.3005 26.6417 29.9286 27.2052C28.3773 27.8449 26.7019 28.1281 25.0263 28.0336H8.25729C6.58817 27.962 4.94998 28.4996 3.64815 29.5461C2.34631 30.5926 1.4697 32.0766 1.18175 33.7215C1.12895 33.9311 1.08845 34.1436 1.06046 34.3579C1.015 34.7236 1.015 35.0935 1.06046 35.4591V35.8936C1.06046 36.3684 2.14201 39.8134 2.98096 42.5816C3.44593 44.097 3.90078 45.6124 4.25456 46.8147C4.32385 47.0798 4.41167 47.3397 4.51736 47.5926C4.62805 47.8185 4.81908 47.995 5.05308 48.0876C5.29324 48.1832 5.56091 48.1832 5.80107 48.0876C6.0354 48.0021 6.22981 47.8329 6.3469 47.6128C6.47254 47.3998 6.51569 47.1482 6.46819 46.9056C6.46819 46.6429 6.33679 46.3802 6.26603 46.1277L6.18517 45.8852C5.27546 42.7264 4.35564 39.5811 3.42571 36.4492C3.03431 35.3143 3.09955 34.0717 3.60765 32.984L3.85024 32.4889L4.25456 32.8627C11.1927 39.3516 20.0707 43.3837 29.5243 44.3395H29.8175L29.8781 44.6223C29.9286 44.8446 29.9691 45.0669 30.0095 45.279C30.1005 45.7134 30.1813 46.1277 30.2925 46.5318C30.8687 48.5523 31.4549 50.482 32.0412 52.452C32.6275 54.422 33.2036 56.4123 33.7798 58.3823C34.3295 60.4445 35.4383 62.3149 36.984 63.7873C37.0913 63.9183 37.1893 64.0567 37.2771 64.2015L37.5904 64.7976H32.4455C29.5041 64.7976 26.593 64.7976 23.682 64.7976C21.7527 64.7876 19.8426 64.414 18.0519 63.6964C15.3632 62.6384 12.9974 60.8972 11.1886 58.645C11.0952 58.5122 10.975 58.4004 10.8357 58.3169C10.6964 58.2334 10.5412 58.1799 10.38 58.1601H10.289C10.0791 58.1676 9.87612 58.2367 9.7052 58.3586C9.53427 58.4805 9.40296 58.6499 9.32758 58.8458C9.2522 59.0417 9.23607 59.2554 9.2812 59.4604C9.32633 59.6654 9.43073 59.8526 9.58143 59.9988C11.1959 62.1265 13.2777 63.8553 15.6664 65.0516C18.0551 66.248 20.6868 66.88 23.3585 66.899C34.8209 67.0202 46.4753 66.9798 57.7254 66.899H60.3332C62.6948 66.8911 64.9925 66.132 66.8934 64.7315C68.7943 63.3311 70.1998 61.362 70.9061 59.1097C72.3212 54.6746 73.6049 50.2294 74.7673 46.0873C74.9699 45.448 75.0353 44.7733 74.9594 44.1071ZM71.4822 41.935L70.6938 42.6422C67.775 45.2547 64.3276 47.2084 60.5859 48.3705L60.0401 48.5422V47.9664C60.2503 46.0977 59.8984 44.2089 59.0293 42.5412L58.716 41.935H71.4822ZM63.5273 32.9739L63.6385 33.2062C64.0237 34.0407 64.1129 34.9815 63.8912 35.8734C63.6789 36.7826 63.406 37.7424 62.9916 38.9749C62.9008 39.1686 62.7616 39.3357 62.5873 39.4598C62.4284 39.5708 62.2442 39.6402 62.0516 39.6619H59.3629H56.8258C56.524 39.64 56.2274 39.5718 55.9464 39.4598L55.6533 39.3588L54.8648 39.1365L63.1331 32.893L63.5273 32.9739ZM47.0413 47.6633C46.9871 46.9191 47.004 46.1715 47.0919 45.4306C47.2828 44.1029 47.96 42.8933 48.9922 42.036C50.0185 41.166 51.3373 40.7182 52.6815 40.7833C54.0319 40.8363 55.3159 41.3827 56.2901 42.3189C57.2806 43.2571 57.8921 44.5262 58.0084 45.8852C58.044 46.5111 58.044 47.1384 58.0084 47.7643C58.0084 48.0573 58.0084 48.3503 58.0084 48.6534V49.007L57.685 49.0676C54.2997 49.7207 50.8208 49.7207 47.4355 49.0676L47.0615 49.007V48.6736C47.0615 48.3402 47.0514 47.9967 47.0413 47.6633ZM42.4321 30.0946H45.4645C47.6983 30.0946 49.8109 30.0946 51.9336 30.0946C52.8635 30.0946 53.8035 30.0946 54.7436 30.0946C56.9025 29.9528 59.0708 30.0681 61.2025 30.4381H61.3642L62.0212 31.4483L61.5462 31.6302C61.4595 31.6691 61.3751 31.7129 61.2935 31.7615C61.223 31.8078 61.1555 31.8584 61.0913 31.9131C57.4874 35.1979 53.2831 37.7569 48.7091 39.4497C47.8272 39.7078 46.9077 39.8137 45.9901 39.7629C45.5555 39.7629 45.1309 39.7629 44.6963 39.7629H44.2414V39.3083C44.3931 36.6109 44.2414 33.479 42.1289 30.6805L41.6336 30.0339L42.4321 30.0946ZM45.8789 41.935L45.7273 42.4503C45.6363 42.7533 45.5353 43.0564 45.4443 43.3494C45.2388 43.937 45.0734 44.5378 44.949 45.1477C44.8809 45.7581 44.8539 46.3724 44.8681 46.9864C44.8681 47.2996 44.8681 47.6229 44.8681 47.9967V48.5119L44.3829 48.3604C40.6759 47.2082 37.2621 45.2678 34.3761 42.6725L33.5877 41.9653L45.8789 41.935ZM22.934 40.4802V41.046L22.3881 40.8944C16.173 39.0876 10.4771 35.829 5.77074 31.3877L5.62923 31.2564L5.69999 30.4785L6.01333 30.428C6.2256 30.428 6.44797 30.3572 6.66024 30.3067C7.169 30.1969 7.68656 30.1326 8.20675 30.1148C12.2499 30.1148 16.2122 30.1148 20.2149 30.1148H24.1671H24.4704L25.4812 30.2158L25.0364 30.7917C22.8228 33.6406 22.7925 36.8836 22.9744 40.4398L22.934 40.4802ZM30.8282 41.9148C30.6929 42.0601 30.5223 42.168 30.333 42.228C30.2192 42.2678 30.0997 42.2882 29.9792 42.2886H29.8276C28.3518 42.0967 27.0479 41.9148 25.845 41.7127C25.5216 41.6521 25.0263 41.2682 25.0263 40.854C25.0263 40.4398 25.0263 39.9953 25.0263 39.5609C24.971 38.2657 25.0217 36.9683 25.1779 35.6814C25.5177 33.5613 26.6525 31.6501 28.3518 30.3364C30.051 29.0227 32.1871 28.4052 34.3256 28.6095C36.3802 28.8046 38.2951 29.735 39.7178 31.2294C41.1404 32.7238 41.9752 34.6815 42.0682 36.7422C42.0682 37.2978 42.0682 37.8434 42.0682 38.4192C42.0682 38.7122 42.0682 39.0153 42.0682 39.3285V39.7326H39.9456C38.5305 39.7326 37.1861 39.7326 35.8216 39.7326C34.8817 39.6369 33.933 39.7836 33.0659 40.1585C32.1989 40.5335 31.4424 41.1242 30.8687 41.8744L30.8282 41.9148ZM72.8771 44.4405C72.8454 44.8445 72.788 45.246 72.7053 45.6427L71.9573 48.2391C70.9465 51.5933 69.9357 55.0585 68.9249 58.4429C68.3513 60.3278 67.1807 61.9754 65.5893 63.1379C63.9978 64.3003 62.0717 64.9147 60.1007 64.8885H44.8075C42.8303 64.8898 40.9045 64.259 39.3114 63.0885C37.7184 61.9179 36.5416 60.2689 35.953 58.3823C34.9422 55.2505 34.0628 52.0681 33.1632 48.9766L32.1524 45.6831C32.0741 45.3507 32.0201 45.0131 31.9907 44.6729L31.8896 43.6626L32.6477 44.289C38.1197 49.0715 45.1498 51.6938 52.4187 51.664C59.7283 51.7113 66.7861 48.9979 72.1797 44.0667L72.9176 43.4201L72.8771 44.4405Z" fill="url(#paint0_linear)"/>
<path d="M32.4356 20.012C32.6299 20.197 32.8851 20.3048 33.1532 20.3151C33.4289 20.3321 33.7015 20.2497 33.9214 20.0827C34.1257 19.9271 34.2631 19.6995 34.3055 19.4462C34.3425 19.2328 34.3594 19.0163 34.3561 18.7997V14.6171C34.3561 14.112 34.3561 13.6068 34.3561 13.1118C34.3561 12.1015 34.3561 11.0912 34.3561 10.081C34.3576 9.93514 34.3293 9.79053 34.273 9.65601C34.2166 9.52149 34.1334 9.39989 34.0283 9.29867C33.9232 9.19746 33.7986 9.11875 33.6621 9.06739C33.5255 9.01603 33.3799 8.99309 33.2341 8.99997C33.0959 8.99566 32.9583 9.01973 32.8298 9.07069C32.703 9.11943 32.5865 9.19138 32.4861 9.28285C32.3886 9.37249 32.3126 9.48301 32.2638 9.60614C32.2073 9.72248 32.1795 9.85067 32.1829 9.97994C32.1829 13.0815 32.1829 16.2336 32.1829 19.3351C32.1808 19.5842 32.2708 19.8252 32.4356 20.012Z" fill="url(#paint1_linear)"/>
<path d="M40.36 22.3357L40.4712 22.275C40.689 22.1761 40.8875 22.0393 41.0574 21.8709C42.887 19.8504 44.6963 17.8298 46.1114 16.2437C46.365 16.0021 46.516 15.6721 46.5329 15.3223C46.5498 14.9725 46.4315 14.6296 46.2023 14.3646C46.1235 14.2688 46.0249 14.1912 45.9132 14.1371C45.8016 14.0831 45.6795 14.0538 45.5554 14.0514C45.3884 14.0674 45.2263 14.1168 45.0787 14.1966C44.9311 14.2765 44.8011 14.3851 44.6963 14.5161L42.0884 17.3853L41.5022 18.0521C40.8452 18.7896 40.1983 19.517 39.5513 20.2646C39.3815 20.4391 39.2687 20.6611 39.2279 20.9011C39.1884 21.1431 39.2163 21.3912 39.3088 21.6184C39.3752 21.8402 39.5158 22.0326 39.7072 22.1632C39.8986 22.2937 40.129 22.3546 40.36 22.3357Z" fill="url(#paint2_linear)"/>
<path d="M25.4412 21.881C25.6178 22.0431 25.8191 22.1761 26.0375 22.275L26.1386 22.3255C26.3616 22.3357 26.5816 22.2719 26.7645 22.144C26.9473 22.016 27.0827 21.8312 27.1494 21.6183C27.249 21.3796 27.2752 21.1167 27.2248 20.863C27.1744 20.6094 27.0496 20.3764 26.8664 20.1938L25.9567 19.1836C24.6089 17.6277 23.2242 16.0753 21.8023 14.5262C21.702 14.3928 21.5744 14.2823 21.428 14.2022C21.2816 14.122 21.1197 14.074 20.9532 14.0615C20.8273 14.0669 20.7039 14.0985 20.5908 14.1541C20.4777 14.2098 20.3774 14.2883 20.2962 14.3848C20.0723 14.6547 19.9584 14.999 19.9771 15.3491C19.9958 15.6992 20.1459 16.0295 20.3973 16.274C22.1157 18.1733 23.7632 20.0322 25.4412 21.881Z" fill="url(#paint3_linear)"/>
<path d="M7.73176 52.745C7.62863 52.6422 7.5045 52.563 7.36788 52.5126C7.24566 52.4643 7.11519 52.4403 6.98378 52.4419C6.84075 52.4426 6.6995 52.4736 6.56935 52.5328C6.43543 52.5874 6.31479 52.6701 6.21558 52.7753C6.11396 52.8793 6.03483 53.0031 5.98309 53.139C5.92585 53.273 5.89826 53.4177 5.90223 53.5633C5.90216 53.7128 5.93314 53.8608 5.9932 53.9977C6.05618 54.1294 6.1417 54.2491 6.2459 54.3513C6.34998 54.4529 6.47384 54.532 6.60978 54.5837C6.74082 54.6502 6.88801 54.6782 7.03432 54.6645C7.18075 54.6653 7.3256 54.6343 7.45885 54.5736C7.59266 54.5142 7.71302 54.4283 7.81263 54.321C7.91428 54.2132 7.99332 54.0861 8.04511 53.9472C8.1038 53.8102 8.13142 53.6618 8.12597 53.5128C8.1211 53.3703 8.09027 53.23 8.035 53.0986C7.96635 52.9564 7.86184 52.8345 7.73176 52.745Z" fill="url(#paint4_linear)"/>
</g>
<defs>
<linearGradient id="paint0_linear" x1="38.0082" y1="26.4567" x2="38.0082" y2="66.9755" gradientUnits="userSpaceOnUse">
<stop stop-color="#E3BE7D"/>
<stop offset="1" stop-color="#E3BE7D" stop-opacity="0.5"/>
</linearGradient>
<linearGradient id="paint1_linear" x1="33.2696" y1="8.99878" x2="33.2696" y2="20.3173" gradientUnits="userSpaceOnUse">
<stop stop-color="#E3BE7D"/>
<stop offset="1" stop-color="#E3BE7D" stop-opacity="0.5"/>
</linearGradient>
<linearGradient id="paint2_linear" x1="42.8725" y1="14.0514" x2="42.8725" y2="22.3391" gradientUnits="userSpaceOnUse">
<stop stop-color="#E3BE7D"/>
<stop offset="1" stop-color="#E3BE7D" stop-opacity="0.5"/>
</linearGradient>
<linearGradient id="paint3_linear" x1="23.6124" y1="14.0615" x2="23.6124" y2="22.3266" gradientUnits="userSpaceOnUse">
<stop stop-color="#E3BE7D"/>
<stop offset="1" stop-color="#E3BE7D" stop-opacity="0.5"/>
</linearGradient>
<linearGradient id="paint4_linear" x1="7.01425" y1="52.4418" x2="7.01425" y2="54.6679" gradientUnits="userSpaceOnUse">
<stop stop-color="#E3BE7D"/>
<stop offset="1" stop-color="#E3BE7D" stop-opacity="0.5"/>
</linearGradient>
<clipPath id="clip0">
<rect width="74" height="58" fill="white" transform="translate(1 9)"/>
</clipPath>
</defs>
</svg>
