<svg width="56" height="74" viewBox="0 0 56 74" fill="none" xmlns="http://www.w3.org/2000/svg">
<g id="1 4" clip-path="url(#clip0_2166_141)">
<g id="Group">
<path id="Vector" d="M45.527 71.0814C47.9731 69.6358 50.1032 67.7145 51.791 65.4315C53.4894 63.1543 54.714 60.5609 55.3927 57.8041C56.0714 55.0472 56.1905 52.1828 55.743 49.3793C55.2945 46.5783 54.2865 43.8959 52.779 41.4912C51.1191 38.829 49.4198 36.1865 47.7204 33.5341L41.2687 23.5064L41.6145 23.2994C42.3866 22.8733 43.0231 22.2391 43.4511 21.4691C43.8792 20.6992 44.0816 19.8246 44.0352 18.9453C43.9889 18.0661 43.6956 17.2175 43.1889 16.4967C42.6822 15.7759 41.9826 15.2118 41.1699 14.869L40.9229 14.7309L41.002 14.4154C41.0711 14.1295 41.1304 13.8928 41.1996 13.6562L41.9109 10.9545C42.6618 8.32516 43.4259 5.6728 44.2031 2.99743C44.3303 2.68582 44.3457 2.33991 44.2467 2.01828C44.1476 1.69664 43.9403 1.41904 43.6597 1.23247C42.6787 0.438478 41.4504 0.0117566 40.1874 0.0261616C38.9244 0.0405666 37.7062 0.495192 36.7437 1.31135C34.8566 2.95799 33.4635 2.95799 31.6061 1.31135C30.6276 0.463446 29.3747 -0.00237626 28.0789 -4.05482e-05C26.7549 -0.0170896 25.4711 0.453287 24.4727 1.32121C22.4967 2.97771 21.1925 2.97771 19.2758 1.32121C18.2975 0.492971 17.0562 0.0383352 15.7733 0.0383352C14.4904 0.0383352 13.2492 0.492971 12.2708 1.32121C12.0129 1.50096 11.823 1.76201 11.7316 2.06243C11.6403 2.36285 11.6527 2.6852 11.767 2.97771C12.1325 4.18064 12.4783 5.39343 12.8241 6.60622L15.1558 14.7605L14.8495 14.9084C14.0354 15.2475 13.3335 15.8087 12.8244 16.5277C12.3152 17.2466 12.0195 18.0943 11.971 18.9733C11.9225 19.8524 12.1233 20.7273 12.5503 21.4977C12.9773 22.2681 13.6132 22.9028 14.3852 23.3289L14.7211 23.536L14.4049 24.0586C14.3061 24.2262 14.2073 24.3938 14.0986 24.5516C12.6858 26.7701 11.2532 28.9985 9.83048 31.217C7.63711 34.6483 5.43386 38.1191 3.26026 41.5208C0.703031 45.539 -0.401978 50.3084 0.128286 55.039C0.578413 59.2215 2.26574 63.1756 4.97536 66.3977C7.68498 69.6199 11.2943 71.9642 15.3435 73.1323C16.2941 73.3851 17.257 73.5891 18.2285 73.7436L19.5524 73.9901H36.4374C36.6149 73.9334 36.7966 73.8906 36.9808 73.8619C39.9989 73.5695 42.9161 72.6203 45.527 71.0814ZM13.9603 2.81995L14.1876 2.65232C14.7794 2.24095 15.5013 2.05907 16.2179 2.14075C16.9345 2.22243 17.5966 2.56207 18.0803 3.09603C18.5948 3.59746 19.2037 3.99237 19.8717 4.25805C20.5398 4.52373 21.2539 4.65491 21.973 4.64406C23.2789 4.63283 24.5348 4.14133 25.5002 3.26365C27.249 1.72548 28.8001 1.72548 30.539 3.26365C31.5371 4.16684 32.8392 4.66218 34.1864 4.65122C35.5337 4.64026 36.8275 4.1238 37.8107 3.20449C38.2971 2.66359 38.9536 2.30434 39.6721 2.18603C40.3906 2.06772 41.1281 2.19742 41.7627 2.55372L42.0591 2.70162L38.6604 14.5337H17.3492L13.9603 2.81995ZM35.3012 71.8406C32.7225 71.8406 30.0351 71.8406 27.2984 71.8406C25.1544 71.8406 22.9808 71.8406 20.7973 71.8406C17.4007 71.7569 14.0877 70.7718 11.199 68.9865C8.31036 67.2013 5.95033 64.6804 4.36161 61.6831C2.7729 58.6858 2.01285 55.3203 2.15963 51.9326C2.3064 48.545 3.35471 45.2575 5.19674 42.4082C7.27813 39.1741 9.33977 35.9466 11.3816 32.7256L16.707 24.3741C16.827 24.1579 17.0095 23.9827 17.2306 23.8712C17.4621 23.7532 17.7231 23.7052 17.9815 23.7332C19.0288 23.7332 20.1255 23.7332 21.2221 23.7332C22.0027 23.7332 22.4868 23.3092 22.4868 22.6585C22.4868 22.0077 21.9928 21.6034 21.2123 21.6034H16.8947C16.1113 21.6344 15.3475 21.3543 14.7705 20.8245C14.5573 20.6052 14.3899 20.3459 14.278 20.0615C14.166 19.7771 14.1118 19.4734 14.1184 19.168C14.1184 17.6988 15.2151 16.7621 16.8749 16.7621H30.1241C33.1869 16.7621 36.2694 16.7621 39.3421 16.7621C39.6626 16.7556 39.9812 16.8122 40.2798 16.9286C40.5783 17.045 40.851 17.219 41.0822 17.4406C41.3134 17.6622 41.4986 17.927 41.6272 18.22C41.7559 18.513 41.8254 18.8284 41.8319 19.1483C41.8384 19.4681 41.7817 19.7861 41.665 20.084C41.5484 20.382 41.3741 20.6541 41.1521 20.8848C40.93 21.1155 40.6646 21.3004 40.371 21.4287C40.0774 21.5571 39.7614 21.6265 39.4409 21.633H34.8961C34.2835 21.633 33.5425 21.8105 33.5327 22.6683C33.5253 22.7993 33.5443 22.9305 33.5884 23.054C33.6325 23.1776 33.7009 23.2912 33.7895 23.3881C34.1618 23.6718 34.6273 23.8055 35.0937 23.7628H35.9039C36.6548 23.7628 37.4056 23.7628 38.1466 23.7628C38.3607 23.7729 38.5699 23.8301 38.7592 23.9304C38.9436 24.0309 39.1078 24.1646 39.2433 24.3248L40.9229 26.9969C44.1932 32.0748 47.5623 37.3204 50.803 42.5167C52.2429 44.7254 53.2024 47.2112 53.6193 49.8132C54.0363 52.4152 53.9015 55.0756 53.2236 57.6223C52.5396 60.1859 51.3327 62.581 49.6786 64.6576C48.0244 66.7343 45.9586 68.4479 43.6103 69.6911C41.0498 71.0519 38.2017 71.7853 35.3012 71.8307V71.8406Z" fill="url(#paint0_linear_2166_141)"/>
<path id="Vector_2" d="M34.5011 53.8459C34.7382 50.5034 33.108 48.413 29.3833 47.2693L29.0671 47.1805V39.5784L30.1737 40.1404C30.5204 40.3293 30.8765 40.5004 31.2407 40.6531C31.5489 40.8026 31.8861 40.8834 32.2287 40.8898C32.4241 40.8688 32.6077 40.7859 32.7524 40.6531C32.8974 40.5177 32.9915 40.3367 33.0191 40.1404C33.0818 39.936 33.0761 39.7168 33.0031 39.5158C32.93 39.3148 32.7935 39.143 32.614 39.0262C31.873 38.622 31.1123 38.267 30.312 37.8923L29.2647 37.4092L29.0671 37.3007V36.7288C29.0671 36.4725 29.0671 36.1569 29.0671 35.8414C29.0646 35.5536 28.9496 35.2782 28.7466 35.0738C28.5436 34.8693 28.2686 34.7521 27.9803 34.7469C27.8402 34.7495 27.7019 34.7796 27.5734 34.8355C27.445 34.8914 27.3288 34.972 27.2315 35.0727C27.1343 35.1735 27.0579 35.2923 27.0066 35.4225C26.9554 35.5527 26.9304 35.6917 26.933 35.8316C26.933 36.1372 26.933 36.433 26.933 36.7288V37.4486L26.686 37.5472L26.0537 37.774C25.6687 37.8916 25.2951 38.0434 24.9373 38.2276C24.0779 38.6887 23.3591 39.3727 22.8566 40.2073C22.354 41.042 22.0864 41.9965 22.0819 42.9703C22.0053 43.8908 22.2109 44.8128 22.6714 45.6141C23.132 46.4153 23.8257 47.0579 24.6606 47.4566C25.1059 47.7256 25.5679 47.966 26.0438 48.1764C26.3328 48.2679 26.5811 48.4563 26.7468 48.7097C26.9124 48.9631 26.9852 49.2659 26.9528 49.5667C26.9528 51.2626 26.9528 52.9585 26.9528 54.6643V57.7012H26.5576C25.3808 57.6713 24.2379 57.3014 23.2675 56.6364C23.0309 56.4851 22.7579 56.4 22.4771 56.3899H22.2993C22.1616 56.4173 22.0313 56.4737 21.9172 56.5553C21.803 56.6369 21.7076 56.7418 21.6373 56.8631C21.5638 56.9966 21.5188 57.1437 21.505 57.2954C21.4912 57.447 21.509 57.5999 21.5573 57.7443C21.6055 57.8888 21.6832 58.0217 21.7854 58.1348C21.8876 58.2478 22.0121 58.3386 22.1511 58.4013C22.6345 58.7334 23.155 59.0081 23.7023 59.2197C24.3247 59.4366 24.9867 59.6042 25.6783 59.7817L26.6663 60.0282L26.9627 60.1071V60.8368C26.9627 61.1326 26.9627 61.4579 26.9627 61.8228C26.9825 62.0896 27.1023 62.3392 27.2982 62.5219C27.4941 62.7046 27.7517 62.807 28.0198 62.8088C28.2862 62.8046 28.5414 62.7011 28.7352 62.5186C28.929 62.3361 29.0474 62.0879 29.0671 61.8228C29.0671 61.4777 29.0671 61.1326 29.0671 60.7776V59.9099L29.3438 59.8212C32.4362 58.7563 34.3134 56.6364 34.5011 53.8459ZM26.9133 46.0762L26.3699 45.8691C24.7989 45.2775 24.1765 44.4591 24.216 43.0491C24.2125 42.3768 24.4203 41.7203 24.8102 41.1719C25.2001 40.6236 25.7525 40.2111 26.3896 39.9925L26.9133 39.8249V46.0762ZM29.0671 49.5469L29.5809 49.6948C30.3692 49.8723 31.0731 50.3131 31.5762 50.9443C32.0793 51.5754 32.3513 52.3591 32.3473 53.1656C32.3734 54.0569 32.1225 54.9343 31.6289 55.6776C31.1354 56.4208 30.4234 56.9934 29.5908 57.3167L29.0671 57.504V49.5469Z" fill="url(#paint1_linear_2166_141)"/>
<path id="Vector_3" d="M28 21.6133C27.7918 21.6097 27.5877 21.6718 27.417 21.7908C27.2395 21.9084 27.1018 22.0768 27.0218 22.2739C26.9435 22.4678 26.9229 22.68 26.9625 22.8853C27.0087 23.0901 27.1113 23.278 27.259 23.4276C27.4121 23.5738 27.6042 23.6731 27.8122 23.7135C28.0219 23.755 28.2393 23.7309 28.4347 23.6445C28.6287 23.5626 28.7914 23.4209 28.899 23.2402C29.0168 23.0659 29.0756 22.8586 29.067 22.6486C29.0573 22.3724 28.9404 22.1107 28.741 21.919C28.6436 21.8219 28.5281 21.745 28.4009 21.6926C28.2738 21.6401 28.1375 21.6132 28 21.6133Z" fill="url(#paint2_linear_2166_141)"/>
</g>
</g>
<defs>
<linearGradient id="paint0_linear_2166_141" x1="28.0035" y1="-0.000488281" x2="28.0035" y2="73.9901" gradientUnits="userSpaceOnUse">
<stop stop-color="#E3BE7D"/>
<stop offset="1" stop-color="#E3BE7D" stop-opacity="0.5"/>
</linearGradient>
<linearGradient id="paint1_linear_2166_141" x1="28.0121" y1="34.7469" x2="28.0121" y2="62.8088" gradientUnits="userSpaceOnUse">
<stop stop-color="#E3BE7D"/>
<stop offset="1" stop-color="#E3BE7D" stop-opacity="0.5"/>
</linearGradient>
<linearGradient id="paint2_linear_2166_141" x1="28.0054" y1="21.6132" x2="28.0054" y2="23.7333" gradientUnits="userSpaceOnUse">
<stop stop-color="#E3BE7D"/>
<stop offset="1" stop-color="#E3BE7D" stop-opacity="0.5"/>
</linearGradient>
<clipPath id="clip0_2166_141">
<rect width="56" height="74" fill="white"/>
</clipPath>
</defs>
</svg>
