<svg xmlns="http://www.w3.org/2000/svg" fill="none" viewBox="0 0 27 34"><g clip-path="url(#a)"><path d="M.5 10.77v8.559c0 6.924 5.826 12.547 13 12.547s13-5.623 13-12.547V10.77H.5zm25.982-.773V4.234c0-1.16-.983-2.109-2.185-2.109H2.685C1.483 2.125.5 3.074.5 4.234V9.98h25.982v.017z" fill="#A11E29"/><path d="M3.955 8.51v-.84l-.332.626h-.147l-.332-.627v.842h-.258V7.22h.277l.387.735.387-.734h.276V8.51h-.258zm.903-1.288h.24l.497 1.27h-.258l-.13-.321h-.46l-.129.322H4.36l.498-1.271zm.295.787-.185-.5-.184.5h.369zM6 7.687v.824h-.258V7.22h.203l.682.842v-.841h.258V8.51h-.221L6 7.687zm1.53-.465h.22l.498 1.27H7.99l-.129-.304h-.46l-.13.323h-.257l.516-1.29zm.295.787-.185-.5-.184.5h.369zm1.436.358a.522.522 0 0 1-.608.107.522.522 0 0 1-.202-.142.615.615 0 0 1-.13-.215.558.558 0 0 1-.055-.25c0-.09.019-.18.056-.251a.686.686 0 0 1 .129-.197.818.818 0 0 1 .202-.144.603.603 0 0 1 .258-.053.58.58 0 0 1 .313.071c.093.054.148.126.203.197l-.184.143a.284.284 0 0 0-.148-.143.38.38 0 0 0-.202-.053.355.355 0 0 0-.148.035.187.187 0 0 0-.11.09.356.356 0 0 0-.074.143c-.018.054-.018.108-.018.161 0 .054.018.108.037.161.018.054.055.09.073.144.037.035.074.071.13.09.055.017.091.035.147.035.129 0 .24-.054.35-.18v-.089h-.258v-.179H9.5v.663h-.203v-.144H9.26zm1.346-.071v.215h-.903V7.22h.884v.233h-.626v.305h.553v.197h-.553v.34h.645zm1.29.215v-.842l-.35.627h-.13l-.35-.627v.842h-.258V7.22h.277l.387.735.405-.734h.258V8.51h-.24zm1.437-.215v.215h-.921V7.22h.902v.233h-.644v.305h.552v.197h-.553v.34h.664zm.46-.609v.824h-.257V7.22h.202l.682.842v-.841h.258V8.51h-.22l-.664-.824zm2.138-.233h-.424v1.057h-.258V7.454h-.405v-.232h1.087v.232zm1.345.108s-.018-.018-.055-.036a.143.143 0 0 0-.092-.036.267.267 0 0 1-.11-.036c-.038-.018-.075-.018-.111-.018a.376.376 0 0 0-.166.036.245.245 0 0 0-.037.108c0 .018 0 .053.018.071l.056.054c.018.018.055.018.092.036s.073.018.129.036c.055.017.129.035.184.053a.299.299 0 0 1 .129.072.476.476 0 0 1 .092.107c.018.036.037.09.037.143a.515.515 0 0 1-.037.18c-.018.053-.055.089-.11.125a.365.365 0 0 1-.148.071c-.055.018-.129.018-.184.018-.092 0-.203-.018-.295-.035a1.146 1.146 0 0 1-.258-.126l.11-.215c.019.018.037.018.056.036.037.018.055.036.11.054a.35.35 0 0 0 .13.036c.055.018.091.018.147.018.147 0 .203-.036.203-.126 0-.036 0-.053-.019-.071a.248.248 0 0 0-.074-.054c-.037-.018-.073-.036-.11-.036-.037-.018-.092-.018-.148-.036l-.165-.053c-.056-.018-.093-.036-.111-.072a.326.326 0 0 1-.074-.09c-.018-.035-.018-.071-.018-.125 0-.071.018-.125.037-.179.018-.054.055-.09.11-.125a.374.374 0 0 1 .148-.072c.055-.018.129-.018.184-.018.092 0 .184.018.258.036.074.036.147.054.203.108l-.11.16zm.479-.34.313.626.331-.626h.277l-.48.841v.448h-.257v-.448l-.46-.841h.276zm1.824.34s-.018-.018-.055-.036a.143.143 0 0 0-.092-.036.267.267 0 0 1-.11-.036c-.037-.018-.074-.018-.111-.018a.376.376 0 0 0-.166.036c-.037.018-.055.054-.055.108 0 .018 0 .053.018.071l.055.054c.019.018.056.018.093.036s.073.018.129.036c.055.017.129.035.184.053a.3.3 0 0 1 .129.072c.037.036.074.071.092.107a.33.33 0 0 1 .037.143.517.517 0 0 1-.037.18c-.018.053-.055.089-.11.125a.374.374 0 0 1-.148.071c-.055.018-.129.018-.184.018-.092 0-.203-.018-.295-.035a1.146 1.146 0 0 1-.258-.126l.11-.215c.019.018.037.018.056.036.037.018.055.036.11.054a.349.349 0 0 0 .13.036c.055.018.091.018.147.018.147 0 .202-.036.202-.126 0-.036 0-.053-.018-.071a.253.253 0 0 0-.074-.054.267.267 0 0 0-.11-.036c-.037-.018-.092-.018-.148-.036l-.165-.053c-.056-.018-.093-.036-.111-.072a.315.315 0 0 1-.074-.09c-.018-.035-.018-.071-.018-.125 0-.071.018-.125.037-.179.018-.054.055-.09.11-.125a.373.373 0 0 1 .148-.072c.055-.018.129-.018.184-.018.092 0 .184.018.258.036.074.036.147.054.203.108l-.093.16zm1.327-.108h-.424v1.057h-.258V7.454h-.424v-.232h1.106v.232zm1.069.842v.215h-.903V7.22h.884v.233h-.626v.305h.552v.197h-.552v.34h.645zm1.27.215v-.842l-.33.627h-.13l-.35-.627v.842h-.258V7.22h.276l.387.735.406-.734h.258V8.51h-.258zM18.917 24.3l-.478.465a5 5 0 0 1-.682 2.65c-.921 1.54-2.635 2.506-4.477 2.506-1.843 0-3.557-.966-4.478-2.506a4.89 4.89 0 0 1 0-5.013c.921-1.54 2.635-2.506 4.478-2.506a5.29 5.29 0 0 1 3.72 1.54l.35-.34a5.81 5.81 0 0 0-4.09-1.683c-2.028 0-3.926 1.056-4.939 2.757a5.412 5.412 0 0 0 0 5.531c1.013 1.701 2.911 2.757 4.938 2.757 2.027 0 3.925-1.056 4.938-2.757a5.29 5.29 0 0 0 .719-3.401z" fill="#fff"/><path d="m19.488 20.129-1.603 1.54-.166.178-3.999 3.885-2.616-2.542-1.327 1.271 3.944 3.831 4.256-4.135 2.837-2.74V21.4l-1.326-1.271zm-7.85-5.227c-.128.107-.294.16-.497.179h-.055v.483h.074c.331-.018.626-.107.866-.286.258-.197.442-.466.534-.824 0-.036-.037-.072-.074-.072l-.331-.089c-.092-.018-.185.036-.203.107a1.02 1.02 0 0 1-.313.502zm0-2.1c-.128-.107-.294-.16-.497-.178h-.055v-.484h.074c.331.018.626.108.866.287.258.197.442.465.534.823 0 .036-.037.072-.074.072l-.331.09c-.092.017-.185-.036-.203-.108a1.099 1.099 0 0 0-.313-.501zm1.843 2.78h.258v-3.455h-.258a.326.326 0 0 0-.332.322v2.793c0 .197.148.34.332.34zm-10.263 0h.258v-3.455h-.258a.326.326 0 0 0-.332.322v2.793c0 .197.148.34.332.34zm2.303-2.905a.776.776 0 0 0-.295-.34.939.939 0 0 0-.442-.16 3.703 3.703 0 0 0-.534-.037h-.608v.52h.645c.202 0 .331.017.405.035a.52.52 0 0 1 .258.18.604.604 0 0 1 .092.322c0 .179-.055.304-.166.393-.11.09-.294.144-.57.144H3.66v.519h.645c.498 0 .848-.108 1.05-.322.203-.215.295-.466.295-.752a1.343 1.343 0 0 0-.129-.502zm3.132.864H6.977v.52h1.345a.326.326 0 0 0 .331-.323v-.197zm-.165-1.414H6.977v.519h1.842v-.197a.326.326 0 0 0-.331-.322zm-1.511 3.455h1.51a.326.326 0 0 0 .332-.322v-.197H6.977v.519zm-.424 0h.258v-3.455h-.258a.326.326 0 0 0-.332.322v2.793c0 .197.148.34.332.34zm3.667-3.263c-.258.144-.46.34-.608.591-.147.25-.203.555-.203.913 0 .322.056.609.185.895.129.287.313.502.552.645.185.107.424.179.7.215h.074v-.502h-.055a1.277 1.277 0 0 1-.369-.125.79.79 0 0 1-.368-.43 1.974 1.974 0 0 1-.13-.698c0-.197.038-.412.112-.59a.944.944 0 0 1 .35-.448.99.99 0 0 1 .405-.143h.055v-.502h-.073a1.92 1.92 0 0 0-.627.18zm5.454 1.683a.783.783 0 0 0-.369-.268.848.848 0 0 0 .258-.251.775.775 0 0 0 .129-.43.87.87 0 0 0-.147-.465.933.933 0 0 0-.406-.34c-.166-.072-.387-.108-.663-.108h-.59v.52h.443c.239 0 .405.017.497.035.092.018.147.072.203.143a.403.403 0 0 1 .073.251.372.372 0 0 1-.073.25.47.47 0 0 1-.222.144 1.928 1.928 0 0 1-.405.036h-.497v.519h.552c.203 0 .369.018.48.054.11.035.184.09.24.16a.53.53 0 0 1 .036.538.426.426 0 0 1-.147.161.736.736 0 0 1-.24.09c-.055.017-.147.017-.295.017h-.608v.52h.608c.221 0 .405-.018.571-.054a.927.927 0 0 0 .406-.18.879.879 0 0 0 .276-.34 1.02 1.02 0 0 0 .11-.465c-.036-.197-.091-.376-.22-.537zm-8.808 3.531a.75.75 0 0 1 .221-.537.658.658 0 0 1 .258-.179.719.719 0 0 1 .35-.072c.147 0 .276.036.387.09a.63.63 0 0 1 .24.25l-.24.162a.275.275 0 0 0-.074-.108.4.4 0 0 0-.092-.071c-.037-.018-.074-.036-.11-.036-.037 0-.074-.018-.111-.018a.379.379 0 0 0-.203.054c-.055.036-.11.071-.147.125-.037.054-.074.107-.092.18-.019.07-.037.124-.037.196 0 .072.018.143.037.197a.827.827 0 0 0 .092.179.48.48 0 0 0 .147.125.38.38 0 0 0 .203.054c.037 0 .074 0 .11-.018.037-.018.074-.018.111-.036.037-.018.074-.035.092-.071a.366.366 0 0 0 .074-.108l.258.144a.422.422 0 0 1-.11.16.436.436 0 0 1-.166.108c-.056.036-.13.054-.203.072-.074.017-.13.017-.203.017a.74.74 0 0 1-.332-.071c-.092-.054-.184-.108-.257-.197a.821.821 0 0 1-.166-.269 1.848 1.848 0 0 1-.037-.322zm3.003.55v.27H8.727v-1.594H9.85v.269h-.81v.394h.7v.25h-.7v.412h.83zm.405-1.324h.738a.38.38 0 0 1 .202.054c.056.036.11.071.166.125.055.054.074.108.11.18.019.07.037.125.037.196a.513.513 0 0 1-.073.287.428.428 0 0 1-.221.178l.368.61h-.368l-.332-.538h-.313v.537h-.313V16.76zm.72.788c.036 0 .054 0 .073-.018.018-.018.055-.036.073-.054a.135.135 0 0 0 .037-.09c.019-.035.019-.07.019-.107 0-.035 0-.071-.019-.107-.018-.036-.037-.054-.055-.09a.248.248 0 0 0-.074-.053c-.018-.018-.055-.018-.073-.018h-.387v.537h.405zm2.192-.52h-.534v1.325h-.313v-1.324h-.534v-.269h1.363v.269h.018zm.369 1.325V16.76h.313v1.593h-.313zm.83 0V16.76h1.105v.269h-.792v.411h.663v.251h-.663v.662h-.314zm1.491 0V16.76h.314v1.593h-.314zm1.972-.268v.268h-1.142V16.76h1.124v.269h-.811v.394h.7v.25h-.7v.412h.829zm.405.268V16.76h.59c.129 0 .258.018.35.072.092.053.184.107.258.179.074.071.11.16.147.25.037.09.056.197.056.305a.75.75 0 0 1-.221.573.627.627 0 0 1-.258.16.916.916 0 0 1-.332.054h-.59zm1.087-.805c0-.072-.018-.143-.036-.215a.344.344 0 0 0-.092-.161.286.286 0 0 0-.148-.108.68.68 0 0 0-.203-.035h-.276v1.056h.276a.68.68 0 0 0 .203-.036c.055-.036.11-.072.148-.107a.466.466 0 0 0 .092-.162c.036-.089.036-.16.036-.232zM3.126 5.879h-.332V4.286h.332v1.593zm1.087-.416c0-.072-.019-.107-.056-.143a.535.535 0 0 0-.184-.108.721.721 0 0 1-.35-.214.432.432 0 0 1-.11-.287c0-.125.055-.25.147-.322a.604.604 0 0 1 .368-.125c.092 0 .185.017.277.053a.438.438 0 0 1 .184.18.558.558 0 0 1 .055.25h-.331c0-.072-.019-.125-.056-.161-.037-.036-.073-.054-.147-.054-.055 0-.11.018-.13.054a.16.16 0 0 0-.054.125c0 .036.018.09.055.125a.535.535 0 0 0 .184.108.721.721 0 0 1 .35.215c.074.09.11.179.11.304 0 .143-.036.25-.128.322a.604.604 0 0 1-.369.126.553.553 0 0 1-.294-.072.474.474 0 0 1-.203-.18.477.477 0 0 1-.074-.285h.35c0 .089.019.16.055.196.037.036.093.054.185.054.11 0 .166-.054.166-.161zm1.843-.25a.816.816 0 0 1-.148.5c-.092.126-.24.18-.424.18s-.331-.054-.442-.18a.704.704 0 0 1-.166-.483v-.268c0-.215.056-.394.148-.52.11-.125.258-.178.442-.178s.332.053.424.179a.82.82 0 0 1 .166.5v.27zm-.332-.27a.73.73 0 0 0-.055-.321.3.3 0 0 0-.203-.09c-.092 0-.147.036-.203.108a.924.924 0 0 0-.073.304v.286c0 .144.018.233.055.305.037.071.11.107.203.107.092 0 .147-.036.184-.09a.644.644 0 0 0 .055-.304v-.304h.037zm.792 1.061h-.24l.498-1.718h.24l-.498 1.718zM7.64 5.88h-.332V4.286h.332v1.593zm1.253-.698h-.516v.43h.608v.268h-.94V4.286h.94v.268h-.608v.376h.516v.25zm1.51.157c0 .179-.054.322-.165.411a.618.618 0 0 1-.405.144c-.185 0-.332-.054-.424-.18a.816.816 0 0 1-.148-.5v-.27c0-.214.056-.393.148-.5a.516.516 0 0 1 .424-.18c.184 0 .313.054.405.144.092.09.148.233.166.412h-.332c0-.108-.018-.197-.055-.233a.25.25 0 0 0-.184-.072c-.092 0-.148.036-.185.09-.036.053-.055.16-.055.304v.304c0 .162.019.269.055.323.037.053.093.09.185.09s.147-.019.184-.055c.037-.035.055-.107.055-.214h.332v-.018zm1.917.537h-.958V5.66l.442-.555c.056-.072.092-.143.13-.197a.51.51 0 0 0 .036-.161.35.35 0 0 0-.037-.161c-.018-.036-.055-.054-.11-.054-.056 0-.092.018-.13.072-.036.053-.036.107-.036.197h-.313c0-.09.018-.18.055-.269a.386.386 0 0 1 .184-.197.432.432 0 0 1 .258-.071c.148 0 .258.035.332.125.073.09.11.179.11.322 0 .09-.018.18-.073.269-.037.09-.13.197-.24.34l-.203.286h.553v.269zm1.29-1.41-.516 1.414h-.331l.515-1.343h-.663v-.25h.995v.179zm1.271.752c0 .215-.037.394-.129.501-.092.107-.202.179-.35.179-.147 0-.276-.054-.35-.161-.073-.125-.11-.287-.11-.501V4.93c0-.215.037-.394.129-.501.092-.107.202-.179.35-.179.147 0 .276.054.35.179a.915.915 0 0 1 .129.501v.287h-.019zm-.313-.323c0-.125-.018-.214-.037-.286-.018-.054-.073-.09-.11-.09-.092 0-.148.108-.166.34v.395c0 .125.018.214.037.286.018.054.074.09.129.09.055 0 .092-.036.11-.09a.85.85 0 0 0 .037-.269v-.376zm1.603.323c0 .215-.037.394-.129.501-.092.107-.202.179-.35.179-.147 0-.276-.054-.35-.161-.074-.125-.11-.287-.11-.501V4.93c0-.215.036-.394.129-.501.092-.107.202-.179.35-.179.147 0 .276.054.35.179a.915.915 0 0 1 .129.501v.287h-.019zm-.313-.323c0-.125-.018-.214-.037-.286-.018-.054-.073-.09-.11-.09-.093 0-.148.108-.166.34v.395c0 .125.018.214.037.286.018.054.073.09.129.09.055 0 .092-.036.11-.09a.85.85 0 0 0 .037-.269v-.376zm1.364.985h-.332V4.662l-.313.125v-.25l.59-.233h.037v1.575h.018zm.626-1.056a.16.16 0 0 1 .055-.126.17.17 0 0 1 .13-.053.17.17 0 0 1 .128.053.16.16 0 0 1 .055.126.16.16 0 0 1-.055.125.17.17 0 0 1-.129.054.17.17 0 0 1-.129-.054.16.16 0 0 1-.055-.125zm0 .895a.16.16 0 0 1 .055-.126.17.17 0 0 1 .13-.053.17.17 0 0 1 .128.053.16.16 0 0 1 .055.126.16.16 0 0 1-.055.125.17.17 0 0 1-.129.054.17.17 0 0 1-.129-.054.16.16 0 0 1-.055-.125zm.718.157V5.66l.443-.555c.055-.072.092-.143.129-.197a.51.51 0 0 0 .036-.161.35.35 0 0 0-.036-.161c-.019-.036-.056-.054-.111-.054s-.092.018-.129.072c-.037.053-.037.107-.037.197h-.313a.7.7 0 0 1 .055-.269.385.385 0 0 1 .184-.197.432.432 0 0 1 .258-.071c.148 0 .258.035.332.125a.517.517 0 0 1 .055.609c-.037.09-.129.196-.24.34l-.202.286h.553v.25h-.977zm2.23-.663c0 .215-.037.394-.129.502-.092.107-.202.179-.35.179-.147 0-.276-.054-.35-.161a.849.849 0 0 1-.129-.484v-.304c0-.215.037-.394.13-.501a.446.446 0 0 1 .35-.18c.147 0 .276.054.35.18a.915.915 0 0 1 .128.5v.27zm-.313-.322c0-.125-.018-.215-.037-.286-.018-.054-.074-.09-.11-.09-.092 0-.148.108-.166.34v.394c0 .126.018.215.037.287.018.053.073.09.129.09.055 0 .092-.037.11-.09a.85.85 0 0 0 .037-.269V4.89zm1.363.99h-.313v-1.22l-.313.125v-.25l.59-.233h.037v1.575zm1.014-.932a.17.17 0 0 0 .13-.054.35.35 0 0 0 .036-.16.272.272 0 0 0-.037-.144c-.037-.036-.073-.054-.11-.054-.037 0-.074.018-.11.054-.038.036-.038.072-.038.125h-.313c0-.09.018-.16.055-.215a.356.356 0 0 1 .166-.16.522.522 0 0 1 .24-.054c.147 0 .276.035.35.125a.44.44 0 0 1 .129.34.353.353 0 0 1-.056.197.552.552 0 0 1-.147.143c.074.036.129.072.166.143a.485.485 0 0 1 .055.233c0 .143-.055.25-.147.34-.092.09-.221.126-.369.126a.466.466 0 0 1-.35-.126.439.439 0 0 1-.129-.34h.313a.33.33 0 0 0 .037.143c.019.036.074.054.11.054a.17.17 0 0 0 .13-.054c.037-.035.055-.09.055-.16 0-.162-.055-.233-.184-.233h-.148v-.269h.166zm-2.377 7.143h-.258l-1.124 1.915-1.013-1.915v1.002L19.1 14.92l1.106-1.88v2.507h.258a.326.326 0 0 0 .331-.322v-2.811c.019-.179-.129-.322-.313-.322zm-3.077.322v2.793c0 .179.147.322.332.322h.258V12.09h-.258a.326.326 0 0 0-.332.322zm6.708 1.737a.943.943 0 0 0-.258-.287 1.193 1.193 0 0 0-.406-.178 3.076 3.076 0 0 0-.516-.126l-.129-.036v.466l.056.018c.11.018.202.053.294.071.13.036.221.072.314.126.073.053.129.107.184.16a.437.437 0 0 1 .055.233.44.44 0 0 1-.202.377c-.148.089-.35.125-.609.125h-.073v.43h.073c.185 0 .369-.018.516-.054.166-.036.295-.09.424-.18.11-.089.221-.178.277-.304.073-.125.092-.268.092-.43a.91.91 0 0 0-.092-.411zm-.738-1.611c.148.053.277.143.37.232l.054.072.24-.394-.037-.036a1.457 1.457 0 0 0-.516-.286 1.666 1.666 0 0 0-.608-.107h-.074v.43h.074c.184 0 .35.035.497.089zm-1.235-.452a.946.946 0 0 0-.405.197.931.931 0 0 0-.276.322c-.074.125-.092.268-.092.43a.81.81 0 0 0 .073.376.675.675 0 0 0 .24.268c.092.072.221.125.368.18.13.035.295.089.48.124l.092.018v-.465l-.056-.018-.22-.054a2.185 2.185 0 0 1-.277-.107c-.074-.036-.11-.09-.148-.143a.374.374 0 0 1-.055-.215c0-.18.055-.305.184-.394.111-.09.277-.125.498-.143h.074v-.43h-.074c-.184 0-.295.018-.405.054zm.185 2.976c-.11-.018-.221-.054-.332-.09a1.33 1.33 0 0 1-.276-.143l-.221-.161-.056-.054-.258.394.037.036c.369.286.793.465 1.272.483h.073v-.43h-.055c-.055-.017-.129-.017-.184-.035z" fill="#fff"/></g><defs><clipPath id="a"><path d="M0 0h26v34H0z" fill="#fff" transform="translate(.5)"/></clipPath></defs></svg>
