<svg xmlns="http://www.w3.org/2000/svg"><symbol id="all-icon" viewBox="0 0 32 32" xmlns="http://www.w3.org/2000/svg"><path fill-rule="evenodd" clip-rule="evenodd" d="M8.733 10.474a2.146 2.146 0 010 3.031 2.136 2.136 0 01-1.516.627c-.549 0-1.097-.21-1.515-.627a2.146 2.146 0 010-3.031 2.146 2.146 0 013.031 0zm-2.386.646c.24-.24.556-.36.87-.36a1.232 1.232 0 01.87 2.1 1.232 1.232 0 01-1.74-1.74z"/><path fill-rule="evenodd" clip-rule="evenodd" d="M7.69 4.36a.457.457 0 00.646 0l3.014-3.014a.899.899 0 01.639-.264c.24 0 .468.094.639.264l10.004 10.005a.905.905 0 010 1.278l-1.086 1.085-.009.01-8.91 8.909a.9.9 0 01-.638.265.899.899 0 01-.64-.265L1.346 12.629a.905.905 0 010-1.279L4.36 8.337a.456.456 0 10-.646-.646L.7 10.705a1.82 1.82 0 000 2.57l10.004 10.003c.343.344.799.533 1.285.533.485 0 .941-.19 1.284-.532l.776-.776v7.512a1.82 1.82 0 001.817 1.817h14.148a1.82 1.82 0 001.817-1.817V15.867a1.82 1.82 0 00-1.817-1.817h-7.512l.776-.776a1.82 1.82 0 000-2.57L13.273.702A1.804 1.804 0 0011.99.168c-.486 0-.942.19-1.285.533L7.69 3.714a.457.457 0 000 .646zm11.062 8.42l.007-.017a2.147 2.147 0 00-.483-2.29 2.146 2.146 0 00-3.579.936 2.147 2.147 0 00.547 2.096c.418.418.967.627 1.516.627a2.139 2.139 0 001.992-1.351zM6.071 6.48a.461.461 0 00.404-.529.46.46 0 00-.45-.382.459.459 0 00-.323.134.461.461 0 00-.134.323c0 .12.05.238.134.322a.461.461 0 00.369.132zm3.774.738a2.128 2.128 0 01.628-1.515 2.146 2.146 0 013.031 0 2.146 2.146 0 010 3.031 2.136 2.136 0 01-1.585.625 2.139 2.139 0 01-2.074-2.14zM21.71 22.941c0 .678.552 1.23 1.23 1.23.68 0 1.231-.552 1.231-1.23 0-.679-.552-1.23-1.23-1.23-.679 0-1.23.551-1.23 1.23zm-.913 0c0-1.182.962-2.144 2.144-2.144 1.181 0 2.143.962 2.143 2.144a2.146 2.146 0 01-2.143 2.143 2.146 2.146 0 01-2.144-2.143zm-7.937-7.05c.232.232.36.542.36.87 0 .328-.128.637-.36.87-.232.232-.542.36-.87.36-.329 0-.638-.128-.87-.36a1.223 1.223 0 01-.36-.87 1.226 1.226 0 011.23-1.23c.314 0 .63.12.87.36zm-2.386 2.385a2.129 2.129 0 01-.628-1.515 2.146 2.146 0 014.287 0c0 .573-.223 1.11-.628 1.515a2.128 2.128 0 01-1.515.628c-.573 0-1.11-.223-1.516-.628zM12.86 8.088a1.232 1.232 0 01-2.015-1.322 1.228 1.228 0 011.145-.777 1.232 1.232 0 01.87 2.1zm-1.48 0l.018.012-.005-.012h-.012zm6.251 4.772a1.232 1.232 0 01-2.045-1.234 1.227 1.227 0 011.175-.866 1.232 1.232 0 01.87 2.1zm12.384 2.103c.498 0 .904.405.904.904v14.148a.905.905 0 01-.904.903H15.866a.905.905 0 01-.904-.903V21.59l6.627-6.627h8.425z"/></symbol><symbol id="arrow-dropdown" viewBox="0 0 16 16" xmlns="http://www.w3.org/2000/svg"><path fill-rule="evenodd" clip-rule="evenodd" d="M15.28 4l-7.536 6.823L.748 4 0 4.676l7.357 7.175a.536.536 0 00.364.149.538.538 0 00.37-.136L16 4.702 15.28 4z"/></symbol><symbol id="arrow-left" viewBox="0 0 6 13" xmlns="http://www.w3.org/2000/svg"><path fill-rule="evenodd" clip-rule="evenodd" d="M6 11.96L.883 6.308 6 1.061 5.493.5.112 6.018A.401.401 0 000 6.29a.403.403 0 00.102.277L5.474 12.5 6 11.96z"/></symbol><symbol id="arrow" xmlns="http://www.w3.org/2000/svg"><path fill-rule="evenodd" clip-rule="evenodd" d="M0 10.07l4.265-4.71L0 .987.423.52l4.484 4.598a.336.336 0 01.008.459L.439 10.52 0 10.07z"/></symbol><symbol id="burger-icon-ja" viewBox="0 0 20 20" xmlns="http://www.w3.org/2000/svg"><rect y="2.5" width="20" height="3" rx="1.5"/><rect y="8.5" width="20" height="3" rx="1.5"/><rect y="14.5" width="20" height="3" rx="1.5"/></symbol><symbol id="bonus-buy-icon" viewBox="0 0 32 32" xmlns="http://www.w3.org/2000/svg"><g clip-path="url(#clip0_11277:84683)"><path d="M31.561 18.571a2.05 2.05 0 00-.276-.812 2.098 2.098 0 00-.58-.63 2.027 2.027 0 00-.782-.323 6.757 6.757 0 00-1.192-.064h-1.353l.06-.217.242-.825v-.051a3.02 3.02 0 00.047-1.672 2.936 2.936 0 00-2.98-2.178h-7.945a1.419 1.419 0 01-.596-.149 4.203 4.203 0 00-3.605-.195 4.717 4.717 0 01-2.064.349h-7.06a2.9 2.9 0 00-2.98 2.394 1.879 1.879 0 00-.051.732v.183c0 .2.455 1.65.809 2.816.195.638.387 1.276.536 1.782.03.112.066.222.11.328a.425.425 0 00.541.208.425.425 0 00.23-.2.425.425 0 00.05-.297c0-.11-.054-.221-.084-.328l-.034-.102c-.383-1.33-.77-2.654-1.162-3.973a1.947 1.947 0 01.077-1.459l.102-.208.17.157a18.266 18.266 0 0010.64 4.832h.123l.026.12c.021.093.038.186.055.276.038.183.072.357.12.527.242.851.489 1.664.736 2.493.246.83.489 1.668.732 2.497a4.88 4.88 0 001.349 2.276c.045.055.086.113.123.174l.132.251H9.971a6.466 6.466 0 01-2.37-.463 6.988 6.988 0 01-2.89-2.127.489.489 0 00-.341-.205h-.038a.452.452 0 00-.298.775 7.345 7.345 0 005.8 2.905c4.827.051 9.734.034 14.47 0h1.099a4.684 4.684 0 004.452-3.28c.596-1.867 1.136-3.739 1.625-5.483.086-.269.113-.553.081-.834zm-1.464-.914l-.332.298a11.492 11.492 0 01-4.256 2.412l-.23.072v-.243a3.98 3.98 0 00-.425-2.284l-.132-.255h5.375zm-3.35-3.773l.048.098c.162.35.2.747.106 1.123-.09.382-.204.787-.379 1.305a.523.523 0 01-.17.205.488.488 0 01-.226.085h-2.2a1.241 1.241 0 01-.37-.085l-.124-.043-.331-.093 3.48-2.63.167.035zm-6.94 6.185a4.93 4.93 0 01.02-.94 2.28 2.28 0 01.8-1.43 2.235 2.235 0 011.554-.527c.569.022 1.11.252 1.52.646.417.395.674.93.723 1.502.015.264.015.528 0 .791v.523l-.136.026a11.39 11.39 0 01-4.316 0l-.157-.026v-.14c0-.14-.004-.285-.009-.425zm-1.941-7.398h5.183c.91-.06 1.822-.01 2.72.145h.068l.277.425-.2.077a1.051 1.051 0 00-.107.055.852.852 0 00-.085.064 15.965 15.965 0 01-5.213 3.173 3.41 3.41 0 01-1.145.132h-.736v-.191c.063-1.136 0-2.455-.89-3.633l-.209-.272.337.025zm1.45 4.986l-.063.217c-.038.127-.08.255-.12.378-.086.248-.155.5-.208.758a5.77 5.77 0 00-.034.774v.642l-.204-.064a11.33 11.33 0 01-4.213-2.395l-.332-.297 5.175-.013zm-9.66-.613v.238l-.23-.063a17.184 17.184 0 01-6.997-4.003l-.06-.055.03-.328.132-.021c.09 0 .183-.03.273-.051.214-.047.432-.074.651-.081h6.848l.425.042-.187.243c-.932 1.2-.945 2.565-.868 4.062l-.017.017zm3.324.604a.486.486 0 01-.209.132.458.458 0 01-.149.026h-.063c-.622-.081-1.17-.158-1.677-.243-.137-.025-.345-.187-.345-.361v-.545a10.007 10.007 0 01.064-1.633 3.556 3.556 0 013.851-2.978 3.605 3.605 0 013.26 3.424v1.259h-2.63a2.33 2.33 0 00-2.085.902l-.017.017zm17.705 1.064a4.02 4.02 0 01-.073.506l-.315 1.093c-.425 1.413-.85 2.872-1.277 4.297a3.828 3.828 0 01-3.715 2.713h-6.44a3.903 3.903 0 01-3.727-2.739c-.426-1.319-.796-2.659-1.175-3.96l-.426-1.387a2.986 2.986 0 01-.068-.425l-.042-.426.319.264a12.571 12.571 0 008.324 3.105c3.078.02 6.05-1.122 8.32-3.199l.312-.272-.017.43zM13.657 8.426c.082.078.19.123.303.128a.485.485 0 00.323-.098.425.425 0 00.162-.268 1.46 1.46 0 00.02-.272V6.155 5.52 4.245a.449.449 0 00-.472-.455.459.459 0 00-.315.12.37.37 0 00-.093.135.341.341 0 00-.034.157v3.94c-.001.104.037.206.106.284zM16.994 9.405l.047-.026a.85.85 0 00.246-.17c.77-.85 1.533-1.702 2.128-2.37a.574.574 0 00.039-.79.362.362 0 00-.273-.133.528.528 0 00-.361.196L17.72 7.32l-.246.281c-.277.31-.55.617-.822.932a.506.506 0 00-.136.268.56.56 0 00.034.302.425.425 0 00.443.302zM10.712 9.213c.074.068.159.124.25.166l.043.021a.425.425 0 00.426-.298.549.549 0 00-.12-.6l-.382-.425a91.517 91.517 0 00-1.75-1.96.494.494 0 00-.357-.196.383.383 0 00-.277.136.587.587 0 00.043.795c.723.8 1.417 1.583 2.124 2.361z"/><path d="M3.256 22.209a.425.425 0 00-.153-.098.428.428 0 00-.337.008.446.446 0 00-.247.255.425.425 0 00-.033.179.454.454 0 00.144.332.445.445 0 00.153.098c.056.028.118.04.18.034a.455.455 0 00.328-.145.468.468 0 00.097-.157.426.426 0 00.034-.183.494.494 0 00-.038-.175.383.383 0 00-.128-.148z"/></g></symbol><symbol id="balance-history" viewBox="0 0 24 24" xmlns="http://www.w3.org/2000/svg"><path d="M21.84 6.108v15.583A2.311 2.311 0 0119.53 24H8.998a2.311 2.311 0 01-2.308-2.309V11.56c.329.055.665.09 1.01.09.244 0 .484-.018.721-.046v10.088c0 .319.259.578.577.578h10.533a.578.578 0 00.577-.578V6.108a.578.578 0 00-.577-.577h-5.713c0-.602-.09-1.182-.253-1.731h5.966a2.311 2.311 0 012.309 2.308zM7.603 10.89a5.451 5.451 0 01-5.445-5.445A5.451 5.451 0 017.603 0a5.451 5.451 0 015.445 5.445 5.451 5.451 0 01-5.445 5.445zm0-1.155a4.295 4.295 0 004.29-4.29 4.295 4.295 0 00-4.29-4.29 4.295 4.295 0 00-4.29 4.29 4.295 4.295 0 004.29 4.29zm3.266-3.713a.577.577 0 000-1.154H8.18V2.602a.577.577 0 00-1.154 0v2.843c0 .319.259.577.577.577h3.266zm6.661 4.68h-6.253a.577.577 0 000 1.154h6.253a.577.577 0 000-1.154zm.01 3.5h-6.252a.577.577 0 000 1.155h6.252a.577.577 0 000-1.154zm0 3.646h-6.252a.577.577 0 000 1.155h6.252a.577.577 0 000-1.155z"/></symbol><symbol id="change" viewBox="0 0 16 16" xmlns="http://www.w3.org/2000/svg"><path d="M8 0a8 8 0 100 16A8 8 0 008 0zm0 15A7 7 0 118 1a7 7 0 010 14z"/><path d="M9.855 3.145l-.71.71L10.295 5H5a1 1 0 00-1 1v1.5h1V6h5.295L9.15 7.145l.705.705 2-2a.5.5 0 000-.705l-2-2zM11 10H5.705L6.85 8.855l-.705-.705-2 2a.5.5 0 000 .705l2 2 .705-.705L5.705 11H11a1 1 0 001-1V8.5h-1V10z"/></symbol><symbol id="burger-icon" viewBox="0 0 20 21" xmlns="http://www.w3.org/2000/svg"><path fill-rule="evenodd" clip-rule="evenodd" d="M0 1.3h20v2.256H0V1.3zm5.715 12.756V18.8H4.558v-2.845L3.495 18.8H2.56l-1.07-2.852V18.8H.333v-4.744h1.368l1.333 3.284 1.32-3.284h1.361zm2.126.926v.96h1.55v.891H7.84v1.041h1.753v.926H6.683v-4.744h2.91v.926H7.842zm5.733 3.818h1.158v-4.744h-1.158v2.94l-1.936-2.94h-1.157V18.8h1.157v-2.926l1.936 2.926zm3.27-4.744v2.838c0 .284.07.503.21.656.14.153.345.23.616.23.27 0 .478-.077.622-.23.145-.154.217-.372.217-.656v-2.838h1.158v2.832c0 .423-.09.781-.271 1.074-.18.293-.424.514-.731.662-.303.149-.652.165-1.026.165-.375 0-.7-.014-.998-.158a1.67 1.67 0 01-.698-.662c-.171-.298-.257-.658-.257-1.082v-2.83h1.158zM20 7.85H0v2.257h20V7.849z"/></symbol><symbol id="casino-icon" viewBox="0 0 32 32" xmlns="http://www.w3.org/2000/svg"><path fill-rule="evenodd" clip-rule="evenodd" d="M27.456 23.08l-2.408-1.396c-.165.194-.324.39-.482.586-.344.425-.683.843-1.06 1.223-.387.388-.813.734-1.244 1.084-.185.15-.371.301-.556.457l1.397 2.422.19-.123.274-.177c.289-.184.531-.162.667.062.129.21.055.436-.214.617a14.081 14.081 0 01-4.542 2.025c-6.215 1.526-12.565-1.154-15.8-6.712-1.516-2.601-2.157-5.435-1.849-8.44.5-4.856 2.862-8.574 7.038-11.069 2.879-1.721 6.033-2.3 9.348-1.76 4.451.724 7.846 3.068 10.143 6.942 1.52 2.56 2.118 5.369 1.877 8.348a14.208 14.208 0 01-2.29 6.67l-.038.062c-.041.07-.086.147-.142.16-.157.034-.373.074-.478-.005-.106-.079-.158-.31-.125-.454.023-.117.096-.224.178-.344.038-.056.079-.115.116-.179zm-11.43 2.712c5.373 0 9.774-4.375 9.779-9.727.005-5.472-4.35-9.861-9.79-9.866-5.35-.004-9.76 4.385-9.763 9.713-.002 5.488 4.342 9.879 9.774 9.88zM2.58 16.422a13.4 13.4 0 001.597 5.96l2.478-1.436a10.867 10.867 0 01-1.22-4.524H2.58zm1.592-6.815a13.349 13.349 0 00-1.588 5.965h2.791c.044-.243.083-.487.122-.729.086-.541.171-1.077.31-1.598.14-.522.334-1.028.531-1.542.087-.228.176-.458.26-.691L4.173 9.607zM9.774 5.96l.607 1.05a10.79 10.79 0 00-3.318 3.325L4.581 8.903a13.61 13.61 0 014.366-4.376l.826 1.432.001.001zm5.83-.593V2.525c-2.08.06-4.117.607-5.947 1.595L11.08 6.59c2.088-.864 2.088-.864 4.522-1.222zm.847-.045c.238.043.476.081.713.12.544.087 1.082.173 1.605.314.523.14 1.03.335 1.546.533.226.087.454.174.687.258l1.397-2.427c-1.875-.99-3.837-1.537-5.948-1.593v2.795zM7.063 21.657a10.736 10.736 0 003.318 3.324l-1.428 2.48a13.547 13.547 0 01-4.368-4.37l2.478-1.434zm2.596 6.212a13.37 13.37 0 005.943 1.591v-2.854a10.788 10.788 0 01-4.513-1.216l-1.43 2.48zm6.794 1.595a13.306 13.306 0 005.94-1.604l-.991-1.718-.402-.696c-.236.085-.467.174-.694.261-.515.197-1.015.389-1.529.526-.515.137-1.054.224-1.6.313-.24.039-.482.078-.724.122v2.796zm8.542-19.129l2.469-1.43a13.55 13.55 0 00-4.36-4.375 2289.875 2289.875 0 00-1.428 2.479 10.713 10.713 0 013.319 3.326zm4.468 5.23a13.487 13.487 0 00-1.594-5.95l-2.41 1.396c.088.242.178.479.267.711.197.516.388 1.015.525 1.529.137.518.223 1.058.31 1.6v.001c.037.238.075.476.117.714h2.785zm-1.596 6.806a13.37 13.37 0 001.592-5.948h-2.844a10.75 10.75 0 01-1.216 4.519l2.468 1.43zm-2.121 3.904c-.3-.005-.51-.33-.343-.579.144-.208.322-.39.527-.54.255-.183.595.031.594.347-.001.271-.51.778-.778.772zM14.11 16.407c.408.956.523 1.074 1.509 1.515l-.002.463c-.003.333-.005.669.003 1.004.008.22-.047.34-.263.446a1.408 1.408 0 00-.682 1.73 1.432 1.432 0 102.619-1.14 1.441 1.441 0 00-.641-.627c-.084-.043-.205-.13-.205-.2a39.409 39.409 0 01-.01-1.286l.001-.415c.792-.22 1.273-.719 1.491-1.49.148 0 .296 0 .443.002.357.002.71.005 1.064-.008.217-.008.322.06.419.258a1.402 1.402 0 001.527.75c.61-.105 1.085-.633 1.16-1.285.067-.588-.297-1.196-.865-1.443a1.404 1.404 0 00-1.652.394 4.86 4.86 0 00-.32.498h-1.78c-.213-.786-.722-1.27-1.486-1.486l.002-.437c.002-.36.004-.712-.007-1.062-.007-.213.05-.323.252-.423a1.428 1.428 0 00-1.214-2.584c-.527.234-.834.647-.865 1.232-.031.622.251 1.07.787 1.377.093.053.217.162.217.25.015.412.013.827.011 1.244v.407c-.788.217-1.28.722-1.496 1.495-.174 0-.346-.001-.517-.003-.337-.002-.67-.005-1 .003-.2.005-.304-.048-.399-.243a1.399 1.399 0 00-1.716-.708 1.436 1.436 0 00.206 2.774c.652.099 1.23-.205 1.538-.793.046-.087.153-.2.232-.2.418-.013.836-.012 1.252-.01h.387zm2.848-1.028a1.12 1.12 0 11-1.86 1.245 1.12 1.12 0 011.86-1.245zm-5.404.63v.001-.004.003zm0 0a.602.602 0 00-.04-.236l.04.236zm-.04-.236a.6.6 0 00-.129-.203l.13.203zm-.129-.203a.6.6 0 00-.198-.137l.198.137zm-.198-.137a.6.6 0 00-.235-.047l.235.047zm-.235-.047a.613.613 0 00-.437.172l.437-.172zm-.437.172a.614.614 0 00-.187.431l.187-.43zm-.187.431c-.002.163.06.32.173.437l-.173-.437zm.173.437a.614.614 0 00.431.187l-.431-.187zm.431.187a.598.598 0 00.238-.04l-.238.04zm.238-.04a.599.599 0 00.203-.13l-.203.13zm.203-.13a.601.601 0 00.135-.2l-.135.2zm.135-.2a.599.599 0 00.046-.234l-.046.234zm4.28 4.285a.6.6 0 01.235-.045.602.602 0 01.619.607.613.613 0 01-1.228.009.6.6 0 01.373-.571zm.482-9.058a.6.6 0 01-.236.045.604.604 0 01-.62-.606.614.614 0 111.228-.011.6.6 0 01-.372.572zm4.277 4.765a.599.599 0 01-.043-.236.597.597 0 01.607-.617.614.614 0 11.005 1.228.597.597 0 01-.569-.375z"/></symbol><symbol id="chat" viewBox="0 0 16 15" xmlns="http://www.w3.org/2000/svg"><path d="M15.357 3.859a5.598 5.598 0 00-1.776-2.094C12.213.777 10.283.254 8 .254c-2.283 0-4.213.522-5.581 1.511A5.598 5.598 0 00.643 3.86C.216 4.732 0 5.748 0 6.879c0 2.446 1.009 4.318 2.925 5.444-.265.935-.609 1.502-.612 1.507l-.593.954 1.124.001H2.857c.354 0 1.981-.076 3.304-1.403.583.08 1.2.122 1.839.122 2.283 0 4.213-.523 5.581-1.511a5.598 5.598 0 001.776-2.094c.427-.873.643-1.889.643-3.02s-.216-2.147-.643-3.02zm-2.508 7.12c-1.154.834-2.83 1.275-4.849 1.275a11.8 11.8 0 01-1.967-.157l-.348-.059-.23.268a3.506 3.506 0 01-1.551 1.045c.126-.34.253-.748.356-1.212l.106-.48-.44-.216C2.152 10.567 1.25 9.031 1.25 6.879c0-1.81.64-3.19 1.901-4.1C4.305 1.944 5.981 1.503 8 1.503c2.018 0 3.695.44 4.849 1.274 1.261.912 1.901 2.291 1.901 4.1 0 1.81-.64 3.19-1.901 4.101z"/></symbol><symbol id="close" viewBox="0 0 20 20" xmlns="http://www.w3.org/2000/svg"><path fill-rule="evenodd" clip-rule="evenodd" d="M9.937 10.646l6.708 6.71.707-.708-6.708-6.71 6.709-6.71-.707-.707-6.709 6.71-6.708-6.71-.708.708 6.71 6.71-6.71 6.71.708.706 6.708-6.71z"/></symbol><symbol id="down-arrow-icon" viewBox="0 0 15 12" xmlns="http://www.w3.org/2000/svg"><path fill-rule="evenodd" clip-rule="evenodd" d="M7.375 7.741l5.707-5.491L14.5 3.614 8.651 9.241a1.855 1.855 0 01-2.552 0L.25 3.614 1.668 2.25l5.707 5.491z"/></symbol><symbol id="check-mark" xmlns="http://www.w3.org/2000/svg" viewBox="0 0 16 17"><path d="M8 .5a8 8 0 10-.01 15.99A8 8 0 008 .5zm-.68 11.06a.73.73 0 01-.52.22.73.73 0 01-.51-.22L3.94 9.24 5 8.19l1.8 1.8L11 5.8l1.06 1.05-4.74 4.72z"/></symbol><symbol id="cup" viewBox="0 0 16 16" xmlns="http://www.w3.org/2000/svg"><g clip-path="url(#a)"><path d="M14.4 1.844h-1.364V.976a.437.437 0 00-.438-.443H3.402a.437.437 0 00-.438.443v.868H1.6c-.893 0-1.6.732-1.6 1.617v1.48C0 6.048.657 7.018 1.667 7.41l1.735.698c.573 1.31 1.667 2.349 3.032 2.791v1.248H5.81c-.826 0-1.516.68-1.516 1.532v1.361c0 .239.185.443.438.443h6.518a.437.437 0 00.437-.443v-1.361c0-.834-.673-1.532-1.515-1.532h-.607v-1.23a5.089 5.089 0 003.032-2.792l1.735-.698A2.655 2.655 0 0016 4.958v-1.48c0-.902-.724-1.634-1.6-1.634zM1.987 6.609A1.772 1.772 0 01.876 4.96V3.477c0-.409.337-.75.74-.75h1.365v3.37c0 .324.034.647.084.954l-1.078-.443zm8.842 7.086v.919H5.171v-.92c0-.357.286-.646.64-.646h4.379c.353-.017.64.29.64.647zm-2.122-1.532H7.293V11.12a4.95 4.95 0 001.414 0v1.044zM8 10.285c-2.29 0-4.16-1.889-4.16-4.203V1.418h8.32v4.664c0 2.331-1.87 4.203-4.16 4.203zm7.141-5.344c0 .732-.438 1.396-1.111 1.651l-1.078.443a5.9 5.9 0 00.084-.953V2.729H14.4c.404 0 .741.34.741.749V4.94z"/></g></symbol><symbol id="error" viewBox="0 0 38 38" xmlns="http://www.w3.org/2000/svg"><path fill-rule="evenodd" clip-rule="evenodd" d="M19 38c10.493 0 19-8.507 19-19S29.493 0 19 0 0 8.507 0 19s8.507 19 19 19zm7.433-13.907c.201.205.201.533 0 .698l-1.768 1.807c-.2.205-.522.205-.683 0L19 21.505l-4.982 5.093c-.201.205-.522.205-.683 0l-1.768-1.807c-.2-.206-.2-.534 0-.698L16.549 19l-4.982-5.092c-.2-.206-.2-.534 0-.699l1.768-1.807c.2-.205.522-.205.683 0L19 16.495l4.982-5.093c.201-.205.523-.205.683 0l1.768 1.807c.201.206.201.534 0 .699L21.451 19l4.982 5.093z"/></symbol><symbol id="event-summer-fill" xmlns="http://www.w3.org/2000/svg" viewBox="0 0 18 18"><g clip-path="url(#A)"><path d="M8.976 0h.053a.328.328 0 01.231.175l.034.066 1.258 2.181a.483.483 0 01.08.239.236.236 0 01-.118.202.415.415 0 01-.21.045H7.722a.464.464 0 01-.243-.05.226.226 0 01-.11-.227.556.556 0 01.083-.216L8.782.108c.031-.054.096-.09.193-.108zM4.558 5.059l-.772.766a.85.85 0 01-.105.091.25.25 0 01-.128.045c-.143.011-.235-.056-.277-.201l-.682-2.536a.66.66 0 01-.032-.209.257.257 0 01.131-.188.264.264 0 01.159-.041 1.72 1.72 0 01.154.037l2.433.651c.119.033.199.072.239.118a.243.243 0 01.053.215.33.33 0 01-.098.165L4.558 5.059zm7.754-1.448a.273.273 0 01.165-.12l2.509-.669a.553.553 0 01.266-.024c.102.029.165.107.191.235a.38.38 0 01-.023.154l-.039.133-.606 2.278-.045.147a.397.397 0 01-.073.134.243.243 0 01-.237.079.314.314 0 01-.157-.092l-1.85-1.841a.61.61 0 01-.136-.174c-.029-.077-.017-.156.037-.239zM9 13.943a4.944 4.944 0 100-9.888 4.944 4.944 0 000 9.888zM0 9.024v-.053a.276.276 0 01.125-.198L2.419 7.45a.496.496 0 01.245-.083.232.232 0 01.2.119.417.417 0 01.043.21l.002 2.54.004.076c.003.06-.008.117-.032.169s-.062.092-.114.119a.273.273 0 01-.233.015 5.33 5.33 0 01-.193-.109L.134 9.235C.063 9.194.019 9.124 0 9.024zm18-.048v.053c-.02.095-.063.162-.13.202l-2.292 1.321a.483.483 0 01-.239.08.236.236 0 01-.203-.119.416.416 0 01-.044-.21V7.72c0-.108.016-.187.049-.238a.23.23 0 01.228-.113.568.568 0 01.218.083l2.28 1.312c.07.042.115.112.134.211zM2.671 15.61a.253.253 0 01-.11-.182.634.634 0 01.031-.196l.651-2.428c.034-.126.073-.21.117-.252.06-.057.135-.075.225-.057a.347.347 0 01.165.101l1.803 1.795.135.14a.259.259 0 01.044.199.27.27 0 01-.1.168.373.373 0 01-.153.072l-.078.017-2.513.673a.25.25 0 01-.218-.05zm9.725-.699c-.126-.096-.165-.2-.117-.313a.93.93 0 01.183-.222l1.739-1.739a.92.92 0 01.114-.099.254.254 0 01.138-.049c.14-.007.23.06.271.201l.693 2.585a.37.37 0 01.006.197c-.051.168-.183.224-.396.167l-2.452-.659a.603.603 0 01-.179-.068zM9.033 18h-.062c-.098-.02-.167-.065-.207-.134l-1.287-2.237-.083-.162a.28.28 0 01-.019-.176.24.24 0 01.137-.171.5.5 0 01.202-.03l2.592.002a.39.39 0 01.202.045c.105.064.145.155.118.273a1.06 1.06 0 01-.115.243l-1.27 2.193a.31.31 0 01-.209.153z"/></g></symbol><symbol id="check" viewBox="0 0 16 16" xmlns="http://www.w3.org/2000/svg"><path d="M6.332 15.2L0 9.149l2.204-2.483 3.795 3.627L13.483.801 16 2.939 6.332 15.2z"/></symbol><symbol id="full-screen" viewBox="0 0 16 16" xmlns="http://www.w3.org/2000/svg"><path d="M14.082 1.6H9.796a.318.318 0 00-.319.318v.606c0 .176.143.318.319.318h2.484L8.733 6.388a.318.318 0 000 .45l.429.429a.317.317 0 00.45 0l3.546-3.547v2.484c0 .176.143.319.318.319h.606a.318.318 0 00.318-.319V1.918a.318.318 0 00-.318-.318zM3.72 2.842h2.485a.318.318 0 00.318-.318v-.606a.318.318 0 00-.318-.318H1.918a.318.318 0 00-.318.318v4.287c0 .175.143.318.318.318h.606a.318.318 0 00.318-.318V3.72L6.39 7.267a.317.317 0 00.45 0l.428-.428a.318.318 0 000-.45L3.72 2.841zm10.362 6.635h-.606a.318.318 0 00-.318.318v2.485L9.612 8.733a.318.318 0 00-.45 0l-.429.428a.318.318 0 000 .45l3.547 3.547H9.796a.318.318 0 00-.319.318v.606c0 .175.143.318.319.318h4.286a.318.318 0 00.318-.318V9.795a.318.318 0 00-.318-.318zm-7.243-.744a.318.318 0 00-.45 0L2.842 12.28V9.796a.318.318 0 00-.318-.319h-.606a.318.318 0 00-.318.319v4.286c0 .175.143.318.318.318h4.287a.318.318 0 00.318-.318v-.606a.318.318 0 00-.318-.318H3.72l3.546-3.546a.318.318 0 000-.45l-.428-.429z"/></symbol><symbol id="icon-address" viewBox="0 0 32 32" xmlns="http://www.w3.org/2000/svg"><path d="M28.155 14.327L17.672 3.843A2.346 2.346 0 0016 3.15c-.632 0-1.224.246-1.67.693L3.85 14.322l-.01.01a2.372 2.372 0 00.006 3.342c.421.422.973.663 1.57.688.025 0 .05.005.076.005h.416v7.713c0 1.526 1.24 2.77 2.77 2.77h4.1a.752.752 0 00.753-.752v-6.053c0-.697.567-1.265 1.265-1.265h2.419c.698 0 1.265.568 1.265 1.265v6.047c0 .417.336.753.753.753h4.095c1.525 0 2.77-1.24 2.77-2.77v-7.713h.386c.633 0 1.225-.246 1.671-.693a2.372 2.372 0 000-3.342z"/></symbol><symbol id="favorite" viewBox="0 0 16 14" xmlns="http://www.w3.org/2000/svg"><path d="M14.715 1.647a4.468 4.468 0 00-6.311 0L8 2.05l-.404-.404a4.467 4.467 0 00-6.31 0C-.42 3.35-.43 6.053 1.26 7.93c1.541 1.713 6.086 5.413 6.28 5.57a.7.7 0 00.444.157H8a.682.682 0 00.46-.158c.193-.156 4.739-3.856 6.28-5.57 1.69-1.877 1.679-4.579-.025-6.283zM13.69 6.986C12.488 8.32 9.185 11.074 8 12.05c-1.186-.977-4.488-3.73-5.69-5.065-1.179-1.31-1.19-3.176-.025-4.34a3.04 3.04 0 012.156-.892c.78 0 1.561.297 2.156.892l.888.888a.683.683 0 00.379.191.708.708 0 00.65-.19l.889-.89a3.053 3.053 0 014.312 0c1.164 1.165 1.153 3.03-.025 4.34z"/></symbol><symbol id="icon-any" viewBox="0 0 32 32" xmlns="http://www.w3.org/2000/svg"><path fill-rule="evenodd" clip-rule="evenodd" d="M23.258 13.721c3.567 0 6.492-2.911 6.492-6.479 0-3.567-2.912-6.478-6.479-6.478-3.58 0-6.492 2.898-6.492 6.465 0 3.567 2.912 6.479 6.48 6.492zm3.004-4.984l-.014.014a.98.98 0 01-1.298.432l-.863-.435h-.001c-.432-.217-.862-.433-1.287-.653-.315-.158-.498-.433-.498-.787V3.072a.982.982 0 111.967 0c0 .983 0 2.465-.013 3.279-.013.236.079.354.275.445.433.21.866.42 1.299.643a.965.965 0 01.433 1.298zM8.78 29.236H20.07a3.011 3.011 0 003.017-3.03v-7.96c0-1.351-.892-2.531-2.177-2.912-.433-.118-2.01-.979-3.411-2.303-1.4-1.324-2.401-3.795-2.531-4.936-.148-1.299-1.258-2.767-2.74-2.767h-3.45a3.03 3.03 0 00-3.029 3.03v17.848a3.04 3.04 0 003.03 3.03zm6.626-11.113H9.68a1.243 1.243 0 000 2.484h5.726a1.243 1.243 0 000-2.484zM9.68 25.577h9.453a1.242 1.242 0 100-2.484H9.68a1.243 1.243 0 000 2.485z"/></symbol><symbol id="gift" viewBox="0 0 18 19" xmlns="http://www.w3.org/2000/svg"><g clip-path="url(#clip0_9347:333236)"><path d="M17.5 3.875h-3.77A2.45 2.45 0 0014 2.75C14 1.51 13.103.5 12 .5c-1.152 0-2.347.93-3 2.123C8.347 1.43 7.152.5 6 .5 4.897.5 4 1.51 4 2.75c0 .41.1.794.27 1.125H.5c-.276 0-.5.252-.5.563v3.375c0 .31.224.562.5.562H1v9.563c0 .31.224.562.5.562h15c.276 0 .5-.252.5-.563V8.376h.5c.276 0 .5-.252.5-.563V4.438c0-.31-.224-.562-.5-.562zM12 1.625c.551 0 1 .505 1 1.125s-.449 1.125-1 1.125H9.581c.305-1.13 1.438-2.25 2.419-2.25zM5 2.75c0-.62.449-1.125 1-1.125.981 0 2.114 1.12 2.419 2.25H6c-.551 0-1-.505-1-1.125zM1 5h7.5v2.25H1V5zm1 3.375h6.5v9H2v-9zm14 9H9.5v-9H16v9zM17 7.25H9.5V5H17v2.25z"/></g></symbol><symbol id="icon-document" viewBox="0 0 32 32" xmlns="http://www.w3.org/2000/svg"><path d="M26.595 5.688H5.4A3.154 3.154 0 002.248 8.84v14.325a3.153 3.153 0 003.153 3.147H26.6a3.154 3.154 0 003.153-3.153V8.84a3.162 3.162 0 00-3.158-3.152zm-15.753 4.58a2.865 2.865 0 012.862 2.864 2.865 2.865 0 01-2.862 2.862 2.865 2.865 0 01-2.863-2.862 2.869 2.869 0 012.863-2.863zm5.156 10.603c0 .473-.387.86-.86.86H6.545a.862.862 0 01-.86-.86v-.574a3.154 3.154 0 013.153-3.153h4.012a3.154 3.154 0 013.153 3.153v.574h-.005zm9.453.86h-6.3a.862.862 0 01-.86-.86c0-.472.387-.86.86-.86h6.3c.472 0 .859.388.859.86 0 .473-.387.86-.86.86zm0-4.587h-6.3a.862.862 0 01-.86-.86c0-.472.387-.859.86-.859h6.3c.472 0 .859.387.859.86 0 .472-.387.859-.86.859zm0-4.582h-6.3a.862.862 0 01-.86-.859c0-.473.387-.86.86-.86h6.3c.472 0 .859.387.859.86s-.387.86-.86.86z"/></symbol><symbol id="info-notification" viewBox="0 0 38 38" xmlns="http://www.w3.org/2000/svg"><path fill-rule="evenodd" clip-rule="evenodd" d="M22.08 4.14c-1.419-2.353-4.7-2.353-6.12 0L.588 29.662c-1.567 2.563.195 5.963 3.035 5.963H34.37c2.89 0 4.603-3.4 3.036-5.963L22.081 4.14zM16.98 16.625h4.244v-4.02H16.98v4.02zm0 3.563V30.51h4.244V20.187H16.98z"/></symbol><symbol id="jackpots-icon" viewBox="0 0 32 32" xmlns="http://www.w3.org/2000/svg"><g clip-path="url(#clip0_11277:84595)"><path d="M2.668 30.542a.457.457 0 11.914 0v.833a.457.457 0 11-.914 0v-.833zM4.792 28.418h.833a.457.457 0 010 .914h-.833a.457.457 0 010-.914zM2.668 26.375a.457.457 0 11.914 0v.833a.457.457 0 11-.914 0v-.833zM.625 28.418h.833a.457.457 0 010 .914H.625a.457.457 0 110-.914zM19.824 23.957a4.454 4.454 0 001.202-2.19l-.877-.246a3.547 3.547 0 01-.97 1.79 3.592 3.592 0 01-4.629.361.457.457 0 00-.539 0 3.572 3.572 0 01-2.36.676.456.456 0 10-.064.91 4.492 4.492 0 002.608-.614l.086-.051.086.05a4.488 4.488 0 005.457-.686z"/><path fill-rule="evenodd" clip-rule="evenodd" d="M20.908 6.09l.075-.281a4.52 4.52 0 00.132-1.57l-1.333-1.308a3.577 3.577 0 01-.604 4.245l-3.692 3.692-.112-.064a2.191 2.191 0 00-2.187 0l-.111.064-.414-.413-.382.91.15.149-.064.112a2.191 2.191 0 000 2.187l.064.112-2.115 2.114-.936 2.228.003-.003.005-.005 3.689-3.689.111.064a2.192 2.192 0 002.188 0l.111-.064 3.692 3.692a3.548 3.548 0 011.046 2.525 3.6 3.6 0 01-.075.734l.877.246a4.51 4.51 0 00.055-.29l.092-.597.216.524.517-1.052a9.617 9.617 0 00-.314-.562l-.18-.3.346.046c.175.023.352.036.53.039l.459-.935a3.548 3.548 0 01-2.923-1.024l-3.692-3.691.064-.112a2.191 2.191 0 000-2.187l-.064-.112 3.692-3.692a3.548 3.548 0 012.524-1.046c.69 0 1.35.195 1.917.557L22.79 5.884a4.57 4.57 0 00-1.601.13l-.28.075zm-7.92 6.63c0-.714.58-1.294 1.293-1.294s1.293.58 1.293 1.293c0 .714-.58 1.294-1.293 1.294s-1.294-.58-1.294-1.294z"/><path d="M7.924 21.531a.456.456 0 00.09-.015l.324-.773a3.57 3.57 0 011.04-2.476l.937-2.228-1.577 1.577a3.574 3.574 0 01-5.05 0 3.592 3.592 0 01-.36-4.627.457.457 0 000-.54 3.592 3.592 0 01.36-4.627 3.574 3.574 0 015.05 0l3.542 3.542.382-.909-3.278-3.279a3.548 3.548 0 01-1.046-2.524c0-.954.372-1.85 1.046-2.525a3.592 3.592 0 014.627-.36c.161.117.379.117.54 0a3.543 3.543 0 012.049-.679L16.98.18a4.49 4.49 0 00-2.614.615l-.086.05-.086-.05a4.49 4.49 0 00-5.457.686 4.453 4.453 0 00-1.313 3.17c0 .398.052.787.151 1.16l.075.28-.28-.074a4.482 4.482 0 00-5.014 6.616l.05.086-.05.086a4.49 4.49 0 00.686 5.457 4.47 4.47 0 004.33 1.159l.28-.075-.075.28a4.487 4.487 0 00-.142 1.482.457.457 0 00.488.423zM19.814 31.832a.454.454 0 00.323-.134c3.064-3.065 3.654-7.683 1.769-11.346l-.517 1.052.014.034c1.32 3.197.683 7.02-1.912 9.614a.457.457 0 00.323.78zM18.324 1.5L16.981.18l-.381.908a3.619 3.619 0 011.724.411z"/><path d="M19.824 1.482A4.482 4.482 0 0016.98.18l1.343 1.32a3.516 3.516 0 011.458 1.43l1.333 1.31a4.46 4.46 0 00-1.291-2.758zM26.801 9.823a4.482 4.482 0 00-1.282-2.647 4.449 4.449 0 00-2.729-1.292l1.475 1.45a3.597 3.597 0 011.053 1.033l1.483 1.456z"/><path d="M26.832 10.325a4.534 4.534 0 00-.03-.502l-1.484-1.456c.809 1.222.803 2.869-.084 4.083a.457.457 0 000 .539c.06.081.115.164.166.25l1.432-2.915z"/><path d="M26.155 12.72l.05-.087a4.49 4.49 0 00.627-2.308L25.4 13.238a3.596 3.596 0 01-.527 4.378c-.58.58-1.323.936-2.126 1.024l-.46.935h.061a4.453 4.453 0 003.17-1.313 4.482 4.482 0 00.688-5.457l-.051-.086zM14.737 19.896V16.97a.457.457 0 00-.913 0v2.779l.901.252a.457.457 0 00.012-.104zM7.104 12.263h2.927a.457.457 0 010 .913H7.104a.457.457 0 010-.913z"/><path d="M13.824 19.896a.457.457 0 00.901.104l-.9-.252v.148zM14.28 8.926a.457.457 0 00.457-.457V5.542 5.52l-.913 2.171v.778c0 .252.204.457.457.457z"/><path d="M14.28 5.086a.457.457 0 00-.456.456v2.15l.913-2.172a.457.457 0 00-.456-.434zM18.53 12.263h2.928a.457.457 0 110 .913H18.53a.457.457 0 010-.913zM28.418.625a.457.457 0 01.914 0v.833a.457.457 0 01-.914 0V.625zM26.375 2.668h.833a.457.457 0 010 .914h-.833a.457.457 0 010-.914zM30.542 2.668h.833a.457.457 0 010 .914h-.833a.457.457 0 110-.914zM28.418 4.792a.457.457 0 01.914 0v.833a.457.457 0 01-.914 0v-.833z"/><circle cx="9.053" cy="23.621" r=".421"/></g></symbol><symbol id="log-out-icon" viewBox="0 0 20 20" xmlns="http://www.w3.org/2000/svg"><g clip-path="url(#clip0)"><path d="M19.937 8.849a.843.843 0 00-.18-.272l-2.5-2.5a.834.834 0 00-1.178 1.18l1.077 1.077h-4.655a.833.833 0 100 1.666h4.655l-1.077 1.078a.832.832 0 101.178 1.178l2.5-2.5a.835.835 0 00.18-.908z"/><path d="M14.168 11.667a.833.833 0 00-.834.833v4.167h-3.333V3.333a.834.834 0 00-.594-.798l-2.894-.868h6.821v4.166a.833.833 0 101.667 0v-5A.833.833 0 0014.168 0H.834C.804 0 .778.013.748.016a.835.835 0 00-.353.123C.377.151.355.152.337.165.33.17.327.179.32.185a.826.826 0 00-.222.263C.088.47.085.493.076.518.049.58.02.641.01.712.006.738.013.76.013.784.012.802 0 .817 0 .833V17.5c0 .398.28.74.67.817l8.333 1.666a.833.833 0 00.997-.817v-.833h4.167c.46 0 .833-.373.833-.833v-5a.833.833 0 00-.833-.833z"/></g></symbol><symbol id="live-casino-icon" viewBox="0 0 32 32" xmlns="http://www.w3.org/2000/svg"><path fill-rule="evenodd" clip-rule="evenodd" d="M12.798 18.285a1.299 1.299 0 01-1.157-.357 1.29 1.29 0 01-.353-.665 1.297 1.297 0 01.222-1.016.421.421 0 000-.497 1.304 1.304 0 01.131-1.68 1.293 1.293 0 011.57-.204c.095.055.183.122.264.203l1.93 1.93-1.93 1.929a1.29 1.29 0 01-.677.357zm6.112 2.171l.11-.16.053.429a3.537 3.537 0 01-.223 1.74.421.421 0 00.782.311 4.38 4.38 0 00-.075-3.412l-.091-.204.222-.026a2.127 2.127 0 001.267-.61c.66-.662.81-1.644.41-2.453l-.036-.073.036-.072c.4-.81.25-1.791-.41-2.452a2.134 2.134 0 00-1.635-.622l-.184.01.01-.183a2.134 2.134 0 00-.62-1.635 2.125 2.125 0 00-2.453-.41l-.073.035-.072-.036c-.81-.4-1.791-.25-2.453.41a2.134 2.134 0 00-.621 1.636l.01.183-.183-.01a2.134 2.134 0 00-1.802.808 2.122 2.122 0 00-.244 2.266l.036.072-.036.073a2.125 2.125 0 00.41 2.452 2.13 2.13 0 001.636.622l.036-.002.147-.009-.01.184a2.134 2.134 0 00.621 1.635c.662.661 1.643.81 2.453.41l.072-.035.073.036a2.123 2.123 0 002.452-.411c.094-.094.177-.195.25-.301l.135-.196zM16.593 5.42a.59.59 0 00-.171-.414.588.588 0 00-.999.414.587.587 0 00.585.585.59.59 0 00.414-.172.59.59 0 00.171-.413zm-2.792.21a.421.421 0 01-.305.511A10.157 10.157 0 005.83 16c0 5.608 4.562 10.17 10.17 10.17S26.17 21.608 26.17 16c0-4.659-3.15-8.713-7.659-9.858a.421.421 0 11.208-.816c.804.204 1.567.494 2.283.858l.139.07 1.477-2.559-.151-.079a13.877 13.877 0 00-5.875-1.576l-.17-.007v.699a.421.421 0 01-.843 0v-.7l-.17.008a13.875 13.875 0 00-5.875 1.576l-.152.08 1.478 2.558.138-.07a11.025 11.025 0 012.292-.86.421.421 0 01.511.305zm1.778 24.338l-.17-.007a13.877 13.877 0 01-5.875-1.576l-.152-.08 1.481-2.564.139.071a10.933 10.933 0 004.422 1.186l.155.008v2.962zM16 1.184c-3.957 0-7.678 1.541-10.476 4.34A14.718 14.718 0 001.184 16c0 3.958 1.541 7.678 4.34 10.476A14.718 14.718 0 0016 30.816c3.958 0 7.678-1.541 10.477-4.34A14.718 14.718 0 0030.816 16c0-3.958-1.54-7.678-4.34-10.476A14.718 14.718 0 0016 1.184zm1.93 12.29a1.298 1.298 0 000-1.834 1.304 1.304 0 00-1.681-.132.422.422 0 01-.497 0 1.3 1.3 0 00-1.68.131 1.298 1.298 0 00-.001 1.835L16 15.403l1.928-1.93zm1.046 4.747a1.289 1.289 0 01-.45-.293l-1.93-1.93 1.93-1.929a1.297 1.297 0 011.834 0c.447.448.504 1.17.13 1.681a.42.42 0 000 .497 1.304 1.304 0 01-.13 1.68c-.374.374-.92.472-1.384.294zm-4.905 2.136c.448.449 1.17.505 1.68.132a.42.42 0 01.498 0 1.304 1.304 0 001.68-.132 1.298 1.298 0 000-1.834L16 16.594l-1.93 1.93a1.298 1.298 0 000 1.833zm11.253-10.226L25.24 10a11.003 11.003 0 00-3.238-3.24l-.13-.085 1.476-2.558.145.092a14.084 14.084 0 014.299 4.3l.092.144-2.559 1.478zm1.673 5.292l.008.156h2.963l-.008-.171a13.877 13.877 0 00-1.576-5.875l-.079-.15-2.56 1.477.07.139a10.997 10.997 0 011.182 4.424zm-1.257 5.714l.071-.139a10.932 10.932 0 001.186-4.421l.009-.156h2.961l-.007.171a13.876 13.876 0 01-1.576 5.875l-.079.15-2.565-1.48zm-3.744 4.095l-.13.085 1.481 2.566.145-.092a14.082 14.082 0 004.299-4.3l.092-.144-2.566-1.481-.084.13a11.102 11.102 0 01-3.237 3.236zm-5.575 1.773l.156-.008a10.933 10.933 0 004.422-1.186l.138-.07 1.481 2.564-.151.08a13.877 13.877 0 01-5.875 1.575l-.17.007v-2.962zm-9.653-5.01l-.085-.13-2.566 1.482.093.144a14.082 14.082 0 004.299 4.3l.144.092 1.482-2.566-.13-.085a11.102 11.102 0 01-3.237-3.236zm-1.773-5.574l.008.156a10.932 10.932 0 001.186 4.421l.071.14-2.564 1.48-.08-.151a13.875 13.875 0 01-1.576-5.875l-.007-.17h2.962zM6.185 11l.07-.139-2.56-1.478-.079.151a13.875 13.875 0 00-1.576 5.875l-.007.17h2.962l.008-.155A10.996 10.996 0 016.185 11zm3.945-4.324L10 6.76A10.999 10.999 0 006.76 10l-.084.13-2.559-1.477.093-.144a14.083 14.083 0 014.299-4.3l.144-.092 1.477 2.558z"/></symbol><symbol id="info" viewBox="0 0 6 18" xmlns="http://www.w3.org/2000/svg"><circle cx="3" cy="2.4" r="2.1"/><path d="M1.5 6.6h3v11.1h-3V6.6z"/></symbol><symbol id="mail" viewBox="0 0 20 16" xmlns="http://www.w3.org/2000/svg"><path d="M19.286.505H.657a.531.531 0 00-.15 0L.386.558a.463.463 0 00-.107.075.489.489 0 00-.108.105L.13.783a.283.283 0 000 .067.832.832 0 00-.058.143A.996.996 0 000 1.18V14.75c0 .2.075.39.21.53.133.141.315.22.504.22h18.572c.19 0 .37-.079.505-.22a.77.77 0 00.209-.53V1.255a.77.77 0 00-.21-.53.698.698 0 00-.504-.22zM10 7.11L3 2.005h14.921L10 7.11zM1.429 14V2.688l8.164 5.93c.041.026.084.048.128.068h.058a.75.75 0 00.221.067.687.687 0 00.293-.075h.05l8.228-5.33V14H1.43z"/></symbol><symbol id="megaways-icon" viewBox="0 0 32 32" xmlns="http://www.w3.org/2000/svg"><g clip-path="url(#clip0_11277:84714)"><path d="M23.38 30.35a8.928 8.928 0 002.637-2.379 8.951 8.951 0 001.664-6.759 8.901 8.901 0 00-1.248-3.32c-.699-1.122-1.414-2.234-2.13-3.351l-2.716-4.223.146-.087a1.978 1.978 0 001.019-1.833 1.974 1.974 0 00-1.207-1.716l-.104-.058.034-.133c.029-.12.054-.22.083-.32l.3-1.137c.315-1.108.637-2.224.964-3.35a.613.613 0 00-.228-.744 2.282 2.282 0 00-2.912.033c-.795.694-1.381.694-2.164 0a2.262 2.262 0 00-1.485-.552 2.27 2.27 0 00-1.518.556c-.832.698-1.381.698-2.188 0a2.282 2.282 0 00-2.95 0 .59.59 0 00-.212.698c.154.506.3 1.017.445 1.528l.982 3.433-.129.062A1.975 1.975 0 009.251 8.41a1.969 1.969 0 001.017 1.834l.14.087-.132.22c-.042.07-.083.141-.13.208-.594.934-1.197 1.872-1.796 2.806-.924 1.445-1.851 2.906-2.767 4.339a8.78 8.78 0 00-1.318 5.691c.19 1.761.9 3.426 2.04 4.783a8.942 8.942 0 004.366 2.836c.4.106.806.192 1.215.257l.557.104h7.11c.074-.024.15-.042.228-.054a8.749 8.749 0 003.599-1.17zM10.089 1.608l.095-.07a1.25 1.25 0 011.64.187 2.297 2.297 0 001.638.651 2.236 2.236 0 001.486-.58c.736-.648 1.389-.648 2.121 0a2.262 2.262 0 003.062-.026 1.349 1.349 0 011.664-.274l.125.063-1.431 4.982h-8.974L10.09 1.608zm8.985 29.062h-6.107a8.067 8.067 0 01-4.041-1.202 8.044 8.044 0 01-2.879-3.075 8.024 8.024 0 01.352-8.116c.876-1.361 1.744-2.72 2.604-4.077l2.242-3.516a.519.519 0 01.22-.212.561.561 0 01.317-.058h1.364c.329 0 .533-.178.533-.453 0-.274-.208-.444-.537-.444h-1.818a1.25 1.25 0 01-.894-.328.971.971 0 01-.275-.697c0-.619.462-1.013 1.16-1.013h9.46a1.03 1.03 0 011.049 1.005 1.023 1.023 0 01-.615.96 1.03 1.03 0 01-.392.086h-1.913c-.258 0-.57.074-.574.436a.414.414 0 00.108.303c.157.12.353.175.549.158h1.285a.61.61 0 01.258.07.716.716 0 01.204.166l.707 1.125a537.651 537.651 0 014.16 6.535 7.919 7.919 0 011.02 6.36 8.11 8.11 0 01-4.048 5.082 7.712 7.712 0 01-3.499.9v.005z"/><path d="M18.738 23.093c.1-1.407-.587-2.288-2.155-2.77l-.133-.037v-3.2l.466.236c.145.08.296.152.449.216.13.063.272.097.416.1a.387.387 0 00.22-.1.365.365 0 00.113-.216.415.415 0 00-.17-.469c-.313-.17-.633-.32-.97-.477l-.441-.204-.083-.046v-.24-.374a.464.464 0 00-.458-.46.447.447 0 00-.44.456v.681l-.105.041-.266.096a2.282 2.282 0 00-1.672 2.188 1.915 1.915 0 001.085 1.889c.188.113.382.214.583.303a.553.553 0 01.382.585v3.426h-.166a2.566 2.566 0 01-1.385-.45.662.662 0 00-.333-.103H13.6a.417.417 0 00-.334.381.465.465 0 00.272.466c.203.14.422.256.653.345.262.09.54.161.832.236l.416.104.124.033v.723a.448.448 0 00.446.415.45.45 0 00.44-.415v-.806l.117-.037c1.302-.449 2.093-1.341 2.172-2.516zm-3.195-3.271l-.23-.088c-.66-.249-.923-.593-.906-1.187a1.352 1.352 0 01.915-1.287l.22-.07v2.631zm.907 1.46l.216.063a1.493 1.493 0 011.165 1.462 1.816 1.816 0 01-1.16 1.747l-.221.08v-3.351zM16 9.522a.445.445 0 00-.08.884.438.438 0 00.458-.2.415.415 0 00.071-.249.448.448 0 00-.137-.307.442.442 0 00-.312-.128z"/></g></symbol><symbol id="money" viewBox="0 0 18 19" xmlns="http://www.w3.org/2000/svg"><g clip-path="url(#clip0_9347:333239)"><path fill-rule="evenodd" clip-rule="evenodd" d="M9 .5c-4.967 0-9 4.033-9 9s4.033 9 9 9 9-4.033 9-9-4.033-9-9-9zm0 1.2c4.305 0 7.8 3.495 7.8 7.8s-3.495 7.8-7.8 7.8a7.804 7.804 0 01-7.8-7.8c0-4.305 3.495-7.8 7.8-7.8z"/><path d="M9 6.773c.368 0 .722.12.982.333.26.213.407.502.407.803 0 .12.058.236.163.321a.624.624 0 00.392.134.624.624 0 00.393-.134.417.417 0 00.163-.32c-.001-.464-.194-.913-.547-1.274-.353-.362-.846-.615-1.397-.717v-.964a.417.417 0 00-.163-.322A.624.624 0 009 4.5a.624.624 0 00-.393.133.417.417 0 00-.163.322v.964c-.594.115-1.117.404-1.469.813-.351.409-.508.91-.44 1.406.069.497.358.956.812 1.29A2.833 2.833 0 009 9.956c.275 0 .543.066.772.191.228.125.406.302.511.51a.946.946 0 01.08.657c-.054.22-.187.422-.38.581a1.505 1.505 0 01-.712.311c-.27.044-.549.022-.803-.064a1.366 1.366 0 01-.623-.419.996.996 0 01-.234-.631.417.417 0 00-.163-.321.624.624 0 00-.392-.134.624.624 0 00-.393.134.417.417 0 00-.163.32c.001.464.194.913.547 1.274.353.362.846.614 1.397.717v.965c0 .12.059.236.163.32A.624.624 0 009 14.5a.624.624 0 00.393-.133.417.417 0 00.163-.322v-.964c.594-.115 1.117-.404 1.469-.813.351-.409.508-.91.44-1.406-.07-.497-.357-.956-.812-1.29A2.833 2.833 0 009 9.044a1.56 1.56 0 01-.982-.332c-.26-.213-.407-.503-.407-.804 0-.301.146-.59.407-.803A1.56 1.56 0 019 6.773z"/></g></symbol><symbol id="new-icon" viewBox="0 0 32 32" xmlns="http://www.w3.org/2000/svg"><g clip-path="url(#clip0_11231:84844)" fill-rule="evenodd" clip-rule="evenodd"><path d="M22.155 21.839c2.537-1.468 4.305-4.11 4.549-7.172.012-.161.021-.324.025-.488l.002-.063.043-.046a6.27 6.27 0 013.959-1.976l.185-.02v1.08a8.991 8.991 0 01-1.034 4.187.454.454 0 00.403.666.457.457 0 00.405-.243 9.901 9.901 0 001.14-4.61v-1.547a.456.456 0 00-.457-.455 7.194 7.194 0 00-4.371 1.48l-.271.207V7.967a.456.456 0 00-.457-.454 5.965 5.965 0 00-5.18 3.006l-.198.345-.11-.382a11.354 11.354 0 00-4.53-6.235.458.458 0 00-.515 0 11.355 11.355 0 00-4.531 6.236l-.11.382-.198-.346a5.964 5.964 0 00-5.18-3.006.456.456 0 00-.457.454v4.872l-.27-.207a7.194 7.194 0 00-4.372-1.48.456.456 0 00-.457.455v1.548c0 4.95 3.665 9.066 8.436 9.798l.334.051-.242.235a3.772 3.772 0 00-1.153 2.714v1.425a.454.454 0 00.457.454c.08 0 .159-.02.23-.062l1.155-.67a7.033 7.033 0 013.525-.948c.95 0 1.84-.368 2.511-1.037.165-.164.312-.343.44-.532l.139-.207.14.207c.127.19.274.368.439.532a3.53 3.53 0 002.51 1.038 7.03 7.03 0 013.525.948l1.156.67a.458.458 0 00.686-.393v-1.425a3.773 3.773 0 00-1.153-2.715l-.242-.235.334-.05a9.978 9.978 0 003.195-1.065.453.453 0 00.012-.793.458.458 0 00-.446-.007 9.087 9.087 0 01-3.91 1.063l-.09-.312zm-3.884 1.23h2.375a2.894 2.894 0 012.897 2.884v.634l-.469-.272a7.952 7.952 0 00-3.984-1.072 2.623 2.623 0 01-1.927-.834 2.6 2.6 0 01-.623-1.13l-.054-.21h1.785zm7.548-9.126c-.001 3.991-2.874 7.326-6.67 8.064a8.292 8.292 0 01-1.372.15l-.44.011.32-.3a11.315 11.315 0 003.576-8.25l-.002-.113-.001-.06-.003-.179h.009c.085-2.47 1.973-4.494 4.393-4.803l.19-.025v5.505zM11.354 23.07a2.894 2.894 0 00-2.897 2.884v.634l.469-.272a7.952 7.952 0 013.984-1.072c.704 0 1.367-.273 1.865-.77.336-.335.57-.746.685-1.195l.054-.21h-4.16zm4.969-10.24a.458.458 0 00.134-.32.458.458 0 00-.78-.322.458.458 0 00-.134.322.457.457 0 00.78.32zm.134 2.2a.458.458 0 01-.78.32.457.457 0 01-.134-.32.459.459 0 01.457-.455.458.458 0 01.457.454zm-.134 2.84a.458.458 0 00.134-.321.458.458 0 00-.78-.321.458.458 0 00-.134.32.458.458 0 00.78.322zM16 5.177l.1.075a10.42 10.42 0 014.22 8.366c0 3.303-1.57 6.399-4.22 8.366l-.1.075-.1-.075a10.419 10.419 0 01-4.22-8.366 10.42 10.42 0 014.22-8.366l.1-.075zM6.37 8.463l-.19-.025v5.502c0 4.461 3.589 8.103 8.043 8.217l.44.011-.32-.3a11.315 11.315 0 01-3.576-8.25l.002-.109.001-.065.003-.166h-.008c-.08-2.477-1.97-4.505-4.395-4.815zm-5.288 3.612l.185.019a6.269 6.269 0 013.959 1.976l.043.046.002.063c.084 3.268 1.904 6.115 4.574 7.66l-.091.313c-4.816-.197-8.672-4.156-8.672-8.997v-1.08z"/><path d="M28.302 20.132a.461.461 0 00.646 0 .457.457 0 00-.645-.643h-.001a.455.455 0 000 .643z"/></g></symbol><symbol id="refresh" viewBox="0 0 20 21" xmlns="http://www.w3.org/2000/svg"><path d="M4.56 12.625a5.58 5.58 0 001.43 2.053c1.186 1.074 2.744 1.542 4.26 1.412l-.331 2.17a7.716 7.716 0 01-6.967-4.028c-1.6-2.928-1.184-6.677 1.254-9.176l-1.478-1.48c-.08-.082-.022-.229.098-.248l5.272-.807a.131.131 0 01.149.15l-.805 5.28c-.02.121-.166.18-.247.098L5.721 6.572c-1.597 1.65-1.98 4.042-1.162 6.053zM17.047 6.806c1.6 2.928 1.185 6.677-1.253 9.176l1.477 1.48c.078.082.023.229-.097.248l-5.272.807a.131.131 0 01-.15-.15l.806-5.281c.02-.12.165-.179.247-.098l1.473 1.478a5.646 5.646 0 001.163-6.053 5.58 5.58 0 00-1.432-2.053c-1.185-1.074-2.746-1.543-4.259-1.412l.331-2.17a7.716 7.716 0 016.966 4.028z"/></symbol><symbol id="promotions-icon" viewBox="0 0 32 32" xmlns="http://www.w3.org/2000/svg"><path fill-rule="evenodd" clip-rule="evenodd" d="M28.833 1.41c-.215 0-.39.16-.39.358v.674c0 .198.174.359.39.359.215 0 .39-.16.39-.359v-.674c0-.198-.175-.358-.39-.358zm2.197 2.02h-.733c-.215 0-.39.161-.39.36 0 .198.175.358.39.358h.733c.215 0 .39-.16.39-.358 0-.199-.175-.36-.39-.36zm-4.394 0h.732c.216 0 .39.161.39.36 0 .198-.174.358-.39.358h-.732c-.215 0-.39-.16-.39-.358 0-.199.175-.36.39-.36zm2.197 1.348c-.215 0-.39.16-.39.359v.674c0 .198.174.358.39.358.215 0 .39-.16.39-.358v-.674c0-.198-.175-.359-.39-.359zm-9.985 22.727l-.001.852v.28h5.635c1.09 0 1.764-.615 1.764-1.613V23.32c0-.338.212-.545.527-.546.316-.002.529.2.53.54 0 .38 0 .76.002 1.14.003.91.006 1.822-.008 2.734-.014.907-.47 1.613-1.325 2.07-.21.112-.447.182-.683.252a8.251 8.251 0 00-.318.098H7.19a.142.142 0 01-.014-.011c-.01-.007-.018-.014-.028-.017-1.545-.342-2.29-1.207-2.29-2.657v-11.9c0-.102.001-.186-.15-.243-.716-.269-1.047-.778-1.046-1.478v-2.518c0-1.012.655-1.614 1.756-1.614H9.326l-.06-.08-.105-.143a2.472 2.472 0 01-.469-1.843 2.595 2.595 0 01.998-1.659c.44-.347.964-.516 1.52-.63h.738l.02.015c.014.01.028.021.043.023.71.102 1.28.425 1.764.904.438.431.882.858 1.335 1.274a.422.422 0 00.311.08c.42-.1.862-.099 1.28.006a.339.339 0 00.201.01.314.314 0 00.166-.105l.22-.218c.38-.38.76-.758 1.17-1.108.315-.255.66-.477 1.029-.662.146-.078.317-.118.488-.158.077-.017.154-.035.23-.057h.74c.04.017.081.03.123.04 2.12.353 3.105 2.495 1.898 4.132-.023.032-.043.065-.067.104a4.74 4.74 0 01-.048.077h1.539c.811-.002 1.623-.003 2.434 0 .968.005 1.644.593 1.665 1.475.022.92.016 1.84 0 2.76-.01.607-.321 1.073-.931 1.325-.22.092-.265.194-.263.395.009 1.242.006 2.485 0 3.728a.508.508 0 01-.529.523.515.515 0 01-.527-.506V14.9h-7.38l-.006.093a2.97 2.97 0 00-.006.154c0 .172 0 .344.002.516.002.345.004.689-.002 1.033l-.005 8.466c.008.78.007 1.562.006 2.343zm-5.53-8.242l-.004-4.107v-.257H5.913V27.04c0 .98.68 1.598 1.755 1.599h5.645v-.298l-.001-.81c-.001-.69-.002-1.38.005-2.07l.001-6.197zm-.096-9.117c-.05-.004-.097-.009-.143-.009H5.382c-.46 0-.659.183-.661.608-.003.56-.002 1.119 0 1.678v.84c0 .477.196.652.723.652h7.852l.002-3.763-.076-.006zm5.641 3.757l.063.006a.953.953 0 00.094.006h7.777c.432 0 .641-.197.643-.604.003-.56.002-1.119.001-1.678v-.84c0-.486-.186-.653-.716-.653h-7.862v3.763zm-1.094 14.754v-18.5h-3.381v18.505l3.381-.005zm.704-19.49h.671c.44.001.872.002 1.305 0 .175 0 .351-.015.524-.044.75-.136 1.34-.725 1.448-1.435a1.567 1.567 0 00-.187-.985 1.771 1.771 0 00-.764-.716c-.66-.332-1.519-.259-2.068.217-.39.339-.761.697-1.135 1.06-.152.147-.305.295-.46.442.404.4.64.918.666 1.463v-.002zm-4.123-1.46l-.465-.447c-.348-.336-.691-.669-1.046-.991a1.865 1.865 0 00-1.008-.47 1.947 1.947 0 00-1.115.174 1.77 1.77 0 00-.79.725 1.56 1.56 0 00-.185 1.008c.128.736.721 1.34 1.52 1.415a15.81 15.81 0 001.554.043c.22 0 .442-.002.662.001.07-.002.14-.007.209-.016a2.182 2.182 0 01.664-1.44v-.002zm3.042 1.449c-.032-.692-.643-1.18-1.403-1.15-.665.028-1.242.57-1.213 1.15h2.616zm10.345 11.543a.442.442 0 01.295.109c.04.035.07.078.091.124a.364.364 0 010 .299.391.391 0 01-.092.129.429.429 0 01-.305.114.45.45 0 01-.291-.122.385.385 0 01-.121-.273.374.374 0 01.126-.27.439.439 0 01.297-.11z"/><path d="M17.257 21.947a.428.428 0 00-.324-.159.428.428 0 00-.323.159.601.601 0 00-.134.383.6.6 0 00.134.383c.085.1.203.159.323.159s.239-.058.324-.159c.085-.1.134-.24.134-.383a.601.601 0 00-.134-.383zM16.61 20.518c.085.101.203.159.323.159s.239-.058.324-.159c.085-.1.134-.24.134-.383a.601.601 0 00-.134-.383.428.428 0 00-.324-.159.428.428 0 00-.323.159.601.601 0 00-.134.383.6.6 0 00.134.383zM17.257 17.557c.085.1.134.24.134.383a.601.601 0 01-.134.383.428.428 0 01-.324.16.428.428 0 01-.323-.16.6.6 0 01-.134-.383c0-.142.049-.282.134-.383a.428.428 0 01.323-.159c.12 0 .239.058.324.159z"/></symbol><symbol id="phone" viewBox="0 0 18 19" xmlns="http://www.w3.org/2000/svg"><path d="M3.648 12.51a19.168 19.168 0 006.376 4.995c.932.442 2.179.966 3.568 1.056.086.003.168.007.254.007.932 0 1.681-.322 2.291-.984.004-.004.012-.012.015-.02.217-.261.465-.497.723-.748.176-.168.356-.344.528-.524.797-.831.797-1.887-.008-2.692l-2.25-2.25c-.382-.397-.838-.607-1.318-.607-.479 0-.94.21-1.332.603l-1.34 1.34a7.13 7.13 0 00-.371-.194 4.644 4.644 0 01-.412-.225c-1.22-.775-2.329-1.786-3.389-3.085-.535-.677-.894-1.247-1.145-1.827.352-.318.681-.651 1-.977.112-.116.228-.232.344-.348.404-.405.621-.873.621-1.348 0-.476-.213-.944-.621-1.348L6.066 2.218c-.13-.13-.254-.258-.382-.389a20.526 20.526 0 00-.76-.752C4.54.698 4.086.5 3.606.5c-.475 0-.932.198-1.332.58l-1.4 1.4a2.877 2.877 0 00-.858 1.843c-.071.894.094 1.845.52 2.995.656 1.778 1.644 3.43 3.112 5.193zM.93 4.402a1.98 1.98 0 01.595-1.273l1.393-1.393c.217-.21.456-.318.688-.318.229 0 .46.109.674.326.251.232.487.475.742.734l.389.397 1.116 1.115c.232.232.352.468.352.7 0 .233-.12.468-.352.7l-.348.353c-.349.351-.674.685-1.034 1.003l-.019.019c-.31.31-.262.606-.187.83l.012.03c.288.693.688 1.352 1.314 2.138 1.123 1.386 2.306 2.46 3.609 3.288.16.104.333.187.494.27.15.074.288.145.412.224l.041.022a.782.782 0 00.363.094c.3 0 .494-.191.558-.255l1.4-1.4c.217-.217.453-.333.685-.333.285 0 .517.176.663.333l2.258 2.254c.449.45.445.936-.012 1.411a12.5 12.5 0 01-.498.498c-.262.255-.535.517-.782.813-.43.464-.944.681-1.606.681a3.42 3.42 0 01-.195-.007c-1.228-.079-2.37-.558-3.227-.966a18.211 18.211 0 01-6.069-4.755c-1.397-1.681-2.336-3.246-2.958-4.923C1.016 5.98.87 5.154.93 4.4z"/></symbol><symbol id="reload" viewBox="0 0 12 14" xmlns="http://www.w3.org/2000/svg"><path d="M11.23 6.403a.96.96 0 00-1.208-.608.952.952 0 00-.612 1.202c.123.351.177.73.177 1.107 0 1.959-1.603 3.566-3.586 3.566-.964 0-1.86-.365-2.54-1.04a3.522 3.522 0 01-1.046-2.526c0-1.836 1.413-3.35 3.206-3.538v1.377c0 .406.462.635.788.392l3.097-2.35a.48.48 0 000-.77L6.409.852a.492.492 0 00-.788.391v1.405C2.768 2.85.5 5.214.5 8.118a5.43 5.43 0 001.616 3.876 5.482 5.482 0 003.885 1.594c3.043 0 5.501-2.458 5.501-5.47 0-.594-.081-1.162-.271-1.715z"/></symbol><symbol id="search-icon" viewBox="0 0 16 17" xmlns="http://www.w3.org/2000/svg"><path fill-rule="evenodd" clip-rule="evenodd" d="M6.5 11.194a4.643 4.643 0 100-9.286 4.643 4.643 0 000 9.286zm0 1.857a6.5 6.5 0 100-13 6.5 6.5 0 000 13z"/><path fill-rule="evenodd" clip-rule="evenodd" d="M10.809 9.56l5.19 5.192-1.299 1.3-5.19-5.192 1.299-1.3z"/></symbol><symbol id="success" viewBox="0 0 38 38" xmlns="http://www.w3.org/2000/svg"><path d="M19 0C8.493 0 0 8.493 0 19s8.493 19 19 19 19-8.493 19-19S29.507 0 19 0zm-1.62 26.267c-.35.35-.788.526-1.226.526-.437 0-.875-.175-1.225-.526l-5.56-5.516 2.495-2.495 4.29 4.29 9.982-9.981 2.495 2.495-11.25 11.207z"/></symbol><symbol id="slots-icon" viewBox="0 0 32 32" xmlns="http://www.w3.org/2000/svg"><path d="M18.813 4.378h10.062c1.63 0 2.957 1.317 2.957 2.935v17.374c0 1.618-1.327 2.935-2.957 2.935H3.125c-1.63 0-2.957-1.317-2.957-2.935V7.313c0-1.618 1.327-2.935 2.957-2.935h10.063c.252 0 .456.203.456.453s-.204.453-.457.453H3.126c-1.127 0-2.043.91-2.043 2.029v17.374c0 1.119.916 2.029 2.043 2.029h25.75c1.127 0 2.043-.91 2.043-2.03V7.314a2.038 2.038 0 00-2.043-2.029H18.812a.455.455 0 01-.456-.453c0-.25.204-.453.456-.453z"/><path d="M16.323 5.151a.463.463 0 01-.323.133.456.456 0 01-.457-.453.456.456 0 01.914 0c0 .119-.05.236-.134.32zM9.664 12.707a.458.458 0 00-.383-.206H5.906a.455.455 0 00-.456.454c0 .25.204.453.456.453h2.676l-2.416 5.455a.452.452 0 00.418.636.457.457 0 00.418-.271L9.7 13.137a.45.45 0 00-.035-.43zM14.99 19.499a.452.452 0 01-.418-.636l2.416-5.455h-2.675a.455.455 0 01-.457-.454c0-.25.204-.453.457-.453h3.374c.155 0 .298.078.383.206a.45.45 0 01.035.43l-2.696 6.09a.457.457 0 01-.419.272zM23.213 19.46a.452.452 0 01-.234-.597l2.415-5.455H22.72a.455.455 0 01-.457-.454c0-.25.205-.453.457-.453h3.375c.154 0 .298.078.382.206a.45.45 0 01.036.43l-2.697 6.09a.457.457 0 01-.602.233z"/><path fill-rule="evenodd" clip-rule="evenodd" d="M2.918 24.439V7.56c0-.25.205-.453.457-.453h25.25c.252 0 .457.203.457.453V24.44c0 .25-.205.453-.457.453H3.375a.455.455 0 01-.457-.453zm9.351-.454V8.015h7.462v15.97h-7.462zm15.9 0h-7.525V8.015h7.524v15.97zM3.831 8.015h7.524v15.97H3.832V8.015z"/></symbol><symbol id="popular-icon" viewBox="0 0 32 32" xmlns="http://www.w3.org/2000/svg"><path d="M4.55 1.764a.409.409 0 11-.818 0V.997a.409.409 0 11.818 0v.767zM6.444 3.708h-.768a.409.409 0 110-.817h.768a.409.409 0 110 .817zM2.606 3.708h-.768a.409.409 0 110-.817h.768a.409.409 0 110 .817zM4.55 5.602a.409.409 0 11-.818 0v-.767a.409.409 0 11.818 0v.767zM26.644 24.714a.409.409 0 01.817 0v.767a.409.409 0 11-.817 0v-.767zM28.587 26.608h.768a.409.409 0 010 .817h-.768a.409.409 0 010-.817zM24.75 26.608h.767a.409.409 0 010 .817h-.767a.409.409 0 010-.817zM26.644 28.552a.409.409 0 01.817 0v.767a.409.409 0 01-.817 0v-.767z"/><path fill-rule="evenodd" clip-rule="evenodd" d="M17.435 25.287l3.525-3.526a.409.409 0 01.578.578l-5.25 5.25a.409.409 0 01-.577 0L1.549 13.427a.409.409 0 01-.041-.529l4.72-6.5a.408.408 0 01.33-.168H25.44c.131 0 .254.062.331.168l4.72 6.5c.118.163.1.387-.041.53l-5.25 5.248a.409.409 0 01-.577-.578l4.551-4.55h-8.16l-3.856 11.568.277.17zm-2.594-.171l-.277.17-11.74-11.739h8.16l3.857 11.569zM29.359 12.73h-7.837l3.918-5.396 3.919 5.396zm-22.8-5.396l3.918 5.396H2.64L6.56 7.334zM16.8 7.047h7.838l-3.92 5.396-3.918-5.396zm3.117 5.683h-7.837l3.918-5.396 3.92 5.396zm-8.639-.287L7.36 7.047h7.838l-3.919 5.396zm.567 1.104h8.307L16 26.007l-4.154-12.46z"/><path d="M23.08 20.628a.413.413 0 01-.289-.12.413.413 0 01-.12-.289c0-.107.044-.213.12-.289a.413.413 0 01.29-.12c.106 0 .212.045.288.12.076.076.12.182.12.29a.413.413 0 01-.12.288.413.413 0 01-.289.12z"/></symbol><symbol id="time" viewBox="0 0 18 18" xmlns="http://www.w3.org/2000/svg"><path fill-rule="evenodd" clip-rule="evenodd" d="M16 12H8a2 2 0 01-2-2V2a2 2 0 114 0v6h6c1.106 0 2 .894 2 2 0 1.106-.894 2-2 2"/></symbol><symbol id="table-icon" viewBox="0 0 32 32" xmlns="http://www.w3.org/2000/svg"><g clip-path="url(#clip0_11277:84577)"><path d="M5.268 6.091l-.16-.215a.422.422 0 00-.317-.148.325.325 0 00-.106 0 .422.422 0 00-.304.355L4.01 9.556a.422.422 0 00.368.456h.084c.237 0 .343-.127.368-.372l.186-2.505.186.24 1.322 1.809a.423.423 0 00.43.158.422.422 0 00.309-.34.422.422 0 00-.072-.304L5.268 6.091z"/><path d="M27.898 4.427h-9.902v-.084l-.22-.49-.717-2.683a1.576 1.576 0 00-.752-.959 1.584 1.584 0 00-1.044-.19l-.203.05L1.17 3.794A1.576 1.576 0 00.056 5.745L5.72 26.867a1.576 1.576 0 001.935 1.115l4.224-1.132v1.044a1.575 1.575 0 001.576 1.575h14.443a1.576 1.576 0 001.576-1.575v-8.322a.422.422 0 10-.845 0v8.326a.748.748 0 01-.748.748H13.455a.748.748 0 01-.748-.748V6.003a.752.752 0 01.748-.752h14.443a.752.752 0 01.748.752v8.326a.423.423 0 00.845 0V6.003a1.575 1.575 0 00-1.593-1.576zM11.88 16.441l-.05.051a1.977 1.977 0 01-2.311.355l-.072-.042-.076-.043a1.973 1.973 0 01-.65-2.653l1.98-3.43 1.175.68.004 5.082zm1.576-12.014a1.576 1.576 0 00-1.576 1.576v4.389l-1.119-.634a.423.423 0 00-.317-.042.422.422 0 00-.25.194l-.041.072L8.006 13.7a2.788 2.788 0 00-.28 2.112 2.78 2.78 0 001.306 1.69 2.83 2.83 0 002.607.105l.24-.114v8.504l-.126.034-4.318 1.157a.753.753 0 01-.92-.532L.832 5.428a.748.748 0 01.549-.845L15.322.845h.08a.578.578 0 01.148 0l.267.063a.387.387 0 01.067.021.723.723 0 01.35.456l.073.258.148.562.595 2.222h-3.595z"/><path d="M17.996 11.06c.04-.1.04-.213 0-.313L16.73 7.486a.423.423 0 00-.384-.267.422.422 0 00-.39.267l-1.266 3.26a.422.422 0 00.236.533.422.422 0 00.537-.236l.874-2.265.875 2.265a.388.388 0 00.22.228.385.385 0 00.312 0 .422.422 0 00.253-.212zM24.62 26.415a.423.423 0 00.385.266.422.422 0 00.389-.266l1.267-3.261a.422.422 0 000-.317.393.393 0 00-.228-.215.422.422 0 00-.537.236l-.874 2.26-.875-2.26a.423.423 0 00-.236-.215.422.422 0 00-.165-.034c-.05-.001-.101.01-.148.03a.422.422 0 00-.232.215.422.422 0 000 .317l1.254 3.244zM20.07 20.953l.326.32a.422.422 0 00.575 0l3.092-3.096a2.796 2.796 0 00-3.304-4.444l-.08.043-.08-.043a2.771 2.771 0 00-3.266.448l-.13.131a2.805 2.805 0 00.088 3.865l2.78 2.776zM17.693 15c.055-.072.119-.144.182-.211a1.965 1.965 0 012.547-.199.422.422 0 00.486 0 1.985 1.985 0 012.497.144l.059.059.06.059a1.977 1.977 0 01-.035 2.72l-2.805 2.801-1.166-1.166-.32-.325-1.323-1.31a1.982 1.982 0 01-.296-2.412l.114-.16zM28.769 16.657a.422.422 0 00-.122.291.423.423 0 00.844 0 .423.423 0 00-.722-.291z"/></g></symbol><symbol id="title-arrow" viewBox="0 0 20 20" xmlns="http://www.w3.org/2000/svg"><path fill-rule="evenodd" clip-rule="evenodd" d="M2.774 2.143L9.234 10l-6.46 7.857h5.583L15.235 10 8.357 2.143H2.774zm7.723 7.143l-4.7-5.715H7.71l5.002 5.715h-2.214zm2.214 1.428h-2.214l-4.7 5.714H7.71l5.002-5.714z"/></symbol><symbol id="top-icon" viewBox="0 0 32 32" xmlns="http://www.w3.org/2000/svg"><path fill-rule="evenodd" clip-rule="evenodd" d="M29.716 8.398l-.123.035v14.01h.309c.724 0 1.314.59 1.314 1.314v2.564c0 .725-.59 1.314-1.314 1.314H2.098c-.725 0-1.314-.59-1.314-1.314v-2.564c0-.724.59-1.314 1.314-1.314h.308V8.434l-.123-.035a2.059 2.059 0 01-1.5-1.978c0-1.133.923-2.055 2.056-2.055s2.055.922 2.055 2.055c0 .749-.403 1.406-1.004 1.765l-.186.11 1.748 1.748a5.617 5.617 0 007.935 0l1.747-1.747-.185-.11A2.056 2.056 0 0116 4.364a2.056 2.056 0 011.05 3.82l-.184.11 1.748 1.748a5.617 5.617 0 007.935 0l1.748-1.747-.186-.11a2.056 2.056 0 011.05-3.821c1.134 0 2.056.922 2.056 2.055 0 .94-.635 1.735-1.5 1.978zM4.84 10.655a6.484 6.484 0 009.159 0l2-2 2.002 2a6.484 6.484 0 009.159 0l1.568-1.568v13.357H18.704a.432.432 0 100 .865h11.198a.45.45 0 01.449.448v2.565a.45.45 0 01-.449.448H2.098a.45.45 0 01-.45-.448v-2.564a.45.45 0 01.45-.45h11.198a.433.433 0 000-.864H3.27V9.087l1.569 1.568zM29.16 5.23a1.191 1.191 0 010 2.38 1.191 1.191 0 010-2.38zM16 5.23a1.191 1.191 0 010 2.38 1.191 1.191 0 010-2.38zM1.649 6.42a1.191 1.191 0 012.38 0 1.191 1.191 0 01-2.38 0z"/><path fill-rule="evenodd" clip-rule="evenodd" d="M15.694 13.299l-1.764 1.764a.433.433 0 00-.127.306v2.555c0 .114.046.224.127.305l1.764 1.764a.43.43 0 00.612 0l1.764-1.764a.433.433 0 00.126-.305v-2.555a.433.433 0 00-.126-.306l-1.764-1.764a.433.433 0 00-.612 0zm-1.026 2.249L16 14.216l1.331 1.332v2.196L16 19.076l-1.332-1.332v-2.196z"/><path d="M8.232 16.214h1.803a.433.433 0 110 .865H8.232a.432.432 0 110-.865zM23.767 17.079h-1.803a.433.433 0 010-.865h1.803a.433.433 0 110 .865zM15.694 22.57a.437.437 0 01.612 0 .437.437 0 010 .612.437.437 0 01-.306.127.437.437 0 01-.306-.127.437.437 0 01-.127-.306c0-.113.047-.225.127-.306z"/><path fill-rule="evenodd" clip-rule="evenodd" d="M29.16 5.23a1.191 1.191 0 010 2.38 1.191 1.191 0 010-2.38zM16 5.23a1.191 1.191 0 010 2.38 1.191 1.191 0 010-2.38zM1.649 6.42a1.191 1.191 0 012.38 0 1.191 1.191 0 01-2.38 0zM29.16 5.398a1.023 1.023 0 010 2.043 1.023 1.023 0 010-2.043zM16 5.398a1.023 1.023 0 010 2.043 1.023 1.023 0 010-2.043zM1.817 6.42a1.023 1.023 0 012.043 0 1.023 1.023 0 01-2.043 0z"/></symbol><symbol id="verification-address" viewBox="0 0 32 32" xmlns="http://www.w3.org/2000/svg"><path d="M28.155 14.327L17.672 3.843A2.346 2.346 0 0016 3.15c-.632 0-1.224.246-1.67.693L3.85 14.322l-.01.01a2.372 2.372 0 00.006 3.342c.421.422.973.663 1.57.688.025 0 .05.005.076.005h.416v7.713c0 1.526 1.24 2.77 2.77 2.77h4.1a.752.752 0 00.753-.752v-6.053c0-.697.567-1.265 1.265-1.265h2.419c.698 0 1.265.568 1.265 1.265v6.047c0 .417.336.753.753.753h4.095c1.525 0 2.77-1.24 2.77-2.77v-7.713h.386c.633 0 1.225-.246 1.671-.693a2.372 2.372 0 000-3.342z"/></symbol><symbol id="user-add" viewBox="0 0 20 19" xmlns="http://www.w3.org/2000/svg"><path fill-rule="evenodd" clip-rule="evenodd" d="M4 5a3 3 0 116 0 3 3 0 01-6 0zm3-5a5 5 0 100 10A5 5 0 007 0zm0 12a7 7 0 00-6.761 5.188 1 1 0 101.931.518 5 5 0 017.873-2.673 5 5 0 011.787 2.673 1 1 0 101.931-.518A7 7 0 007 12zm9-6a1 1 0 011 1v2h2a1 1 0 110 2h-2v2a1 1 0 11-2 0v-2h-2a1 1 0 110-2h2V7a1 1 0 011-1z"/></symbol><symbol id="verification-any" viewBox="0 0 32 32" xmlns="http://www.w3.org/2000/svg"><path clip-rule="evenodd" d="M23.258 13.721c3.567 0 6.492-2.911 6.492-6.479 0-3.567-2.912-6.478-6.479-6.478-3.58 0-6.492 2.898-6.492 6.465 0 3.567 2.912 6.479 6.48 6.492zm3.004-4.984l-.014.014a.98.98 0 01-1.298.432l-.863-.435h-.001c-.432-.217-.862-.433-1.287-.653-.315-.158-.498-.433-.498-.787V3.072a.982.982 0 111.967 0c0 .983 0 2.465-.013 3.279-.013.236.079.354.275.445.433.21.866.42 1.299.643a.965.965 0 01.433 1.298zM8.78 29.236H20.07a3.011 3.011 0 003.017-3.03v-7.96c0-1.351-.892-2.531-2.177-2.912-.433-.118-2.01-.979-3.411-2.303-1.4-1.324-2.401-3.795-2.531-4.936-.148-1.299-1.258-2.767-2.74-2.767h-3.45a3.03 3.03 0 00-3.029 3.03v17.848a3.04 3.04 0 003.03 3.03zm6.626-11.113H9.68a1.243 1.243 0 000 2.484h5.726a1.243 1.243 0 000-2.484zM9.68 25.577h9.453a1.242 1.242 0 100-2.484H9.68a1.243 1.243 0 000 2.485z"/></symbol><symbol id="tournaments-icon" viewBox="0 0 32 32" xmlns="http://www.w3.org/2000/svg"><path fill-rule="evenodd" clip-rule="evenodd" d="M12.438 22.028h-.226a.392.392 0 01-.257-.099c-1.233-1.066-2.118-2.605-2.506-4.324-2.681-.997-4.674-3.705-5.103-6.967L3.794 6.45a.566.566 0 01.1-.405.41.41 0 01.327-.176h4.152l-.258-3.053a.561.561 0 01.11-.389.408.408 0 01.32-.166h4.96s.448 0 .448.475-.448.535-.448.535H9.023l1.116 13.196c.193 1.793 1 3.442 2.219 4.551h7.2c1.22-1.109 2.026-2.758 2.22-4.55l.81-9.59h-.02l.078-.674.248-2.933h-5.18s-.419-.06-.419-.535c0-.404.418-.475.418-.475h5.658c.122 0 .239.06.32.166a.56.56 0 01.11.39l-.258 3.052h4.152a.41.41 0 01.328.176c.083.112.119.26.1.405l-.552 4.188c-.43 3.262-2.422 5.97-5.104 6.967-.388 1.718-1.272 3.258-2.505 4.324a.392.392 0 01-.258.1h-.224v1.364c0 .517.36.938.803.938 1.454 0 2.662 1.254 2.87 2.886h1.453c1.59 0 2.884 1.498 2.903 3.348a.575.575 0 01.002.042c0 .279-.194.505-.433.505H4.837c-.238 0-.432-.226-.432-.505 0-1.87 1.303-3.39 2.904-3.39h1.453c.21-1.632 1.418-2.886 2.871-2.886.443 0 .803-.421.803-.938v-1.365zm10.21-5.57c2.145-1.002 3.712-3.273 4.068-5.974l.475-3.605h-3.733l-.81 9.579zm-14.19-9.58H4.726l.475 3.606c.356 2.701 1.924 4.972 4.069 5.974l-.81-9.58zm1.184 20.338h12.633c-.199-1.07-1.017-1.875-1.992-1.875-.92 0-1.668-.874-1.668-1.948v-.938h-5.313v.938c0 1.074-.748 1.948-1.668 1.948-.975 0-1.793.804-1.992 1.875zm-4.325 2.886H26.6c-.2-1.07-1.017-1.876-1.993-1.876H7.31c-.976 0-1.794.805-1.993 1.876zM16.201 2.884c0 .271-.194.49-.433.49-.238 0-.432-.219-.432-.49 0-.272.194-.492.432-.492.24 0 .433.22.433.492zm-2.313 7.343l1.677-1.998a.366.366 0 01.58 0l1.677 1.998c.077.092.12.217.12.347v2.894c0 .13-.043.255-.12.347l-1.676 1.998a.379.379 0 01-.29.144.378.378 0 01-.291-.144l-1.677-1.998a.542.542 0 01-.12-.347v-2.894c0-.13.043-.255.12-.347zm1.967-.959l-1.265 1.509v2.488l1.265 1.509 1.265-1.509v-2.488l-1.265-1.509z"/></symbol><symbol id="verification-card" viewBox="0 0 32 32" xmlns="http://www.w3.org/2000/svg"><path clip-rule="evenodd" d="M6.375 6.375h19.25A4.13 4.13 0 0129.75 10.5v11a4.13 4.13 0 01-4.125 4.125H6.375A4.13 4.13 0 012.25 21.5v-6.873h27.5v-2.75H2.25V10.5a4.13 4.13 0 014.125-4.125zM2.25 11.877v2.75-2.75zm15.125 8.246h5.5c.756 0 1.375-.618 1.375-1.375 0-.756-.619-1.375-1.375-1.375h-5.5A1.38 1.38 0 0016 18.748c0 .757.619 1.375 1.375 1.375z"/></symbol><symbol id="verification-check" viewBox="0 0 16 16" xmlns="http://www.w3.org/2000/svg"><path d="M6.332 15.2L0 9.149l2.204-2.483 3.795 3.627L13.483.801 16 2.939 6.332 15.2z"/></symbol><symbol id="verification-document" viewBox="0 0 32 32" xmlns="http://www.w3.org/2000/svg"><path d="M26.595 5.688H5.4A3.154 3.154 0 002.248 8.84v14.325a3.153 3.153 0 003.153 3.147H26.6a3.154 3.154 0 003.153-3.153V8.84a3.162 3.162 0 00-3.158-3.152zm-15.753 4.58a2.865 2.865 0 012.862 2.864 2.865 2.865 0 01-2.862 2.862 2.865 2.865 0 01-2.863-2.862 2.869 2.869 0 012.863-2.863zm5.156 10.603c0 .473-.387.86-.86.86H6.545a.862.862 0 01-.86-.86v-.574a3.154 3.154 0 013.153-3.153h4.012a3.154 3.154 0 013.153 3.153v.574h-.005zm9.453.86h-6.3a.862.862 0 01-.86-.86c0-.472.387-.86.86-.86h6.3c.472 0 .859.388.859.86 0 .473-.387.86-.86.86zm0-4.587h-6.3a.862.862 0 01-.86-.86c0-.472.387-.859.86-.859h6.3c.472 0 .859.387.859.86 0 .472-.387.859-.86.859zm0-4.582h-6.3a.862.862 0 01-.86-.859c0-.473.387-.86.86-.86h6.3c.472 0 .859.387.859.86s-.387.86-.86.86z"/></symbol><symbol id="verification-close" viewBox="0 0 16 16" xmlns="http://www.w3.org/2000/svg"><path d="M14.993 3.621l-4.545 4.545 4.545 4.546a1.731 1.731 0 01-2.447 2.448L8 10.614 3.454 15.16c-.337.338-.78.506-1.223.506a1.731 1.731 0 01-1.224-2.955l4.545-4.545-4.545-4.545a1.73 1.73 0 012.447-2.448L8 5.72l4.545-4.546a1.731 1.731 0 012.448 2.448z"/></symbol><symbol id="verification-selfie" viewBox="0 0 26 24" xmlns="http://www.w3.org/2000/svg"><path d="M9.434 7.987c0-1.948 1.596-3.532 3.558-3.532 1.963 0 3.559 1.584 3.559 3.532 0 1.949-1.596 3.532-3.559 3.532-1.962 0-3.558-1.583-3.558-3.532zM19.401 16.828v.709c0 .583-.48 1.06-1.068 1.06H7.652a1.067 1.067 0 01-1.068-1.06v-.71c0-2.147 1.755-3.89 3.918-3.89h4.987c2.156 0 3.912 1.743 3.912 3.89z"/><path clip-rule="evenodd" d="M16.113 1.054c0-.582.472-1.054 1.054-1.054h6.801c.583 0 1.055.472 1.055 1.054v6.801a1.054 1.054 0 01-2.11 0V2.11h-5.746a1.054 1.054 0 01-1.054-1.055zM9.888 22.946c0 .582-.472 1.054-1.054 1.054H2.033a1.054 1.054 0 01-1.054-1.054v-6.801a1.054 1.054 0 012.108 0v5.746h5.747c.582 0 1.054.472 1.054 1.055zM9.888 1.054C9.888.472 9.416 0 8.834 0H2.033C1.45 0 .979.472.979 1.054v6.801a1.054 1.054 0 102.108 0V2.11h5.747c.582 0 1.054-.472 1.054-1.055zM16.113 22.946c0 .582.472 1.054 1.054 1.054h6.801c.583 0 1.055-.472 1.055-1.054v-6.801a1.054 1.054 0 00-2.11 0v5.746h-5.746c-.582 0-1.054.472-1.054 1.055z"/></symbol><symbol id="verification-time" viewBox="0 0 18 18" xmlns="http://www.w3.org/2000/svg"><path clip-rule="evenodd" d="M16 12H8a2 2 0 01-2-2V2a2 2 0 114 0v6h6c1.106 0 2 .894 2 2 0 1.106-.894 2-2 2"/></symbol><symbol id="verification-upload" viewBox="0 0 48 48" xmlns="http://www.w3.org/2000/svg"><path clip-rule="evenodd" d="M43.692 22.654c.043.136.086.272.114.413A9.92 9.92 0 0144 25c0 .616-.072 1.222-.184 1.82a5.792 5.792 0 01-.092.398l-.044.178a10.29 10.29 0 01-.606 1.754c-.174.38-.376.744-.598 1.102a6.648 6.648 0 00-.1.169c-.055.093-.11.187-.172.277a.98.98 0 00-.05.08c-.016.029-.032.057-.052.084-.015.022-.037.037-.058.05a.226.226 0 00-.048.038C40.172 33.393 37.284 35 34 35h-6v-2.534A3.98 3.98 0 0030 33a3.973 3.973 0 002.828-1.172 4.003 4.003 0 000-5.656l-6-6a3.963 3.963 0 00-2.824-1.17 4.002 4.002 0 00-2.776 1.112l-6.006 5.8a4.005 4.005 0 00-.098 5.656 4.024 4.024 0 002.88 1.224c.71 0 1.394-.186 1.996-.534V35h-6c-3.284 0-6.172-1.606-7.994-4.05a.248.248 0 00-.048-.037c-.022-.014-.044-.028-.06-.05-.021-.03-.039-.06-.056-.091-.014-.025-.028-.05-.044-.074a4.419 4.419 0 01-.177-.284l-.097-.162a10.3 10.3 0 01-.598-1.102c-.085-.185-.16-.373-.234-.565l-.008-.019a10.281 10.281 0 01-.362-1.17l-.039-.15c-.036-.14-.072-.28-.099-.426A10.047 10.047 0 014 25c0-.662.072-1.306.194-1.932.03-.145.074-.285.118-.426.026-.08.051-.161.074-.244l.025-.092c.095-.351.19-.703.325-1.036.072-.18.161-.35.25-.52a12.823 12.823 0 00.154-.3c.14-.28.28-.555.448-.818a7.33 7.33 0 01.417-.574l.103-.134.007-.009c.194-.249.386-.495.601-.727.193-.208.4-.394.61-.583l.036-.033c.236-.212.476-.416.732-.604.238-.176.482-.336.736-.488.28-.172.566-.326.862-.468.26-.126.52-.24.792-.342.324-.124.658-.222.998-.31a8.44 8.44 0 01.814-.188c.053-.01.104-.023.155-.037.066-.018.13-.036.199-.045C14.292 10.321 18.84 7 24 7c5.162 0 9.71 3.322 11.35 8.09.068.01.134.027.2.045.052.014.103.028.156.037a8.4 8.4 0 01.812.188 8.999 8.999 0 011.79.652c.296.142.582.296.862.468.254.152.5.312.738.488.254.188.494.392.73.604.224.2.442.396.648.616.218.234.412.484.606.736l.076.098c.155.199.309.396.446.61.166.262.304.536.444.815l.04.08.115.223c.09.17.179.34.251.52.136.334.232.687.328 1.04l.024.088c.023.087.05.172.076.257zM22.61 21.559a2.005 2.005 0 012.804.026l6 6A1.998 1.998 0 0130 30.999a1.995 1.995 0 01-1.414-.586L26 27.827v11.172a2 2 0 11-4 0V27.71l-2.61 2.52c-.794.77-2.06.744-2.828-.05a2 2 0 01.048-2.828l6-5.794z"/></symbol><symbol id="verification-reload" viewBox="0 0 12 14" xmlns="http://www.w3.org/2000/svg"><path d="M11.23 6.403a.96.96 0 00-1.208-.608.952.952 0 00-.612 1.202c.123.351.177.73.177 1.107 0 1.959-1.603 3.566-3.586 3.566-.964 0-1.86-.365-2.54-1.04a3.522 3.522 0 01-1.046-2.526c0-1.836 1.413-3.35 3.206-3.538v1.377c0 .406.462.635.788.392l3.097-2.35a.48.48 0 000-.77L6.409.852a.492.492 0 00-.788.391v1.405C2.768 2.85.5 5.214.5 8.118a5.43 5.43 0 001.616 3.876 5.482 5.482 0 003.885 1.594c3.043 0 5.501-2.458 5.501-5.47 0-.594-.081-1.162-.271-1.715z"/></symbol><symbol id="verification-transaction" viewBox="0 0 32 32" xmlns="http://www.w3.org/2000/svg"><path clip-rule="evenodd" d="M23.258 13.721c3.567 0 6.492-2.911 6.492-6.479 0-3.567-2.912-6.478-6.479-6.478-3.58 0-6.492 2.898-6.492 6.465 0 3.567 2.912 6.479 6.48 6.492zm3.004-4.984l-.014.014a.98.98 0 01-1.298.432l-.863-.435h-.001c-.432-.217-.862-.433-1.287-.653-.315-.158-.498-.433-.498-.787V3.072a.982.982 0 111.967 0c0 .983 0 2.465-.013 3.279-.013.236.079.354.275.445.433.21.866.42 1.299.643a.965.965 0 01.433 1.298zM8.78 29.236H20.07a3.011 3.011 0 003.017-3.03v-7.96c0-1.351-.892-2.531-2.177-2.912-.433-.118-2.01-.979-3.411-2.303-1.4-1.324-2.401-3.795-2.531-4.936-.148-1.299-1.258-2.767-2.74-2.767h-3.45a3.03 3.03 0 00-3.029 3.03v17.848a3.04 3.04 0 003.03 3.03zm6.626-11.113H9.68a1.243 1.243 0 000 2.484h5.726a1.243 1.243 0 000-2.484zM9.68 25.577h9.453a1.242 1.242 0 100-2.484H9.68a1.243 1.243 0 000 2.485z"/></symbol><symbol id="wallet" xmlns="http://www.w3.org/2000/svg" viewBox="0 0 20 20"><path d="M14.381 2.004a.736.736 0 00-.146.031L.839 6.435c-.257.084-.441.322-.44.568V17.4c.001.314.32.6.67.6h16.522c.35 0 .67-.286.67-.6v-2.6h.67c.35 0 .669-.285.669-.599v-3.999c0-.314-.32-.6-.67-.6h-.67v-2.6c0-.313-.319-.6-.67-.6h-2.455V2.605c.003-.34-.376-.643-.754-.6zm-.586 1.456v2.943H4.837l8.958-2.943zM1.74 7.603h15.182v2h-4.758c-.327.03-.602.305-.6.599v3.999c0 .314.319.6.67.6h4.688v2H1.739V7.602zm11.163 3.199h5.358v2.8h-5.358v-2.8zm1.34.6c-.493 0-.893.358-.893.8 0 .441.4.8.893.8s.893-.359.893-.8c0-.442-.4-.8-.893-.8z"/></symbol><symbol id="vip-icon" viewBox="0 0 32 32" xmlns="http://www.w3.org/2000/svg"><path fill-rule="evenodd" clip-rule="evenodd" d="M14.832 30.234c.19.022.38.045.557.082h1.228c.11-.022.22-.041.33-.061.237-.043.473-.085.705-.143 1.992-.497 3.428-1.733 4.502-3.434 1.05-1.665 1.603-3.514 1.95-5.432.33-1.82.401-3.661.47-5.507a10.63 10.63 0 011.028-4.232c.12-.242.278-.462.469-.653.281-.288.642-.288.912.01.204.217.359.474.456.754.146.519.262 1.045.346 1.577.017.088-.063.224-.138.29-.54.477-.76 1.062-.56 1.757.192.67.665 1.06 1.354 1.177.727.124 1.486-.326 1.762-1.037l.05-.124.063-.154v-.615l-.134-.242c-.113-.2-.225-.4-.324-.606a.648.648 0 01-.034-.345c.14-1.046.233-2.098.092-3.147-.078-.589-.229-1.17-.379-1.746l-.02-.075c-.074-.29-.325-.399-.561-.307-.224.087-.321.313-.224.581.477 1.315.45 2.669.324 4.031a7.85 7.85 0 01-.042.354l-.022.168-.317-.015c-.04-.17-.075-.34-.11-.507a8.97 8.97 0 00-.28-1.112 3.744 3.744 0 00-.616-1.143c-.637-.774-1.636-.754-2.308-.009-.487.538-.747 1.2-.97 1.87a15.11 15.11 0 00-.189.632c-.032.116-.066.236-.103.362-.46-.92-1.169-1.474-2.065-1.82.107-.883.316-1.75.622-2.585.044-.12.143-.224.239-.324l.066-.07c.938-1.031 2.097-1.548 3.498-1.498.44.01.87.132 1.25.354.283.169.522.134.657-.09.134-.222.053-.456-.224-.626-.768-.472-1.613-.537-2.482-.448-.747.077-1.442.32-2.134.66.057-.1.112-.202.167-.304.12-.222.239-.444.382-.649.477-.687.971-1.363 1.474-2.034.242-.32.3-.573.15-.842-.152-.268-.41-.36-.8-.304-2.553.36-4.7 1.487-6.444 3.38-.02.022-.042.042-.073.07l-.054.048c-.035-.11-.068-.22-.1-.327h-.001c-.086-.283-.17-.556-.272-.82a77.265 77.265 0 00-1.03-2.53 1.473 1.473 0 00-.756-.79h-.335c-.466.21-.718.62-.897 1.06-.29.715-.56 1.44-.828 2.165l-.232.624c-.049.128-.09.26-.135.41-.024.075-.048.155-.076.24a2.16 2.16 0 00-.197-.239l-.3-.262c-.503-.44-1.005-.88-1.52-1.304-.249-.205-.516-.151-.656.062-.14.214-.08.439.177.618 1.937 1.35 3.224 3.197 4.097 5.36.039.096.07.195.1.289l.036.11-4.614.252c-.825-3.765-1.55-4.914-3.404-7.512.114.01.228.03.34.055l.138.041c.532.16 1.065.318 1.593.49.323.106.56.042.654-.213.086-.237-.038-.441-.347-.57a10.832 10.832 0 00-2.719-.715c-.355-.05-.6.06-.742.317-.15.27-.088.511.136.82.598.83 1.18 1.67 1.763 2.512.11.18.21.366.299.557l-.104-.047c-.026-.011-.042-.019-.057-.027a5.12 5.12 0 00-2.895-.678c-1.12.056-1.996.545-2.6 1.504-.403.643-.596 1.355-.706 2.101-.18 1.19-.128 2.378.045 3.564a.595.595 0 01-.132.508c-.372.459-.46.988-.268 1.551A1.649 1.649 0 003.58 16.42a1.652 1.652 0 001.412-1.555 1.645 1.645 0 00-.59-1.34c-.09-.081-.2-.23-.182-.325.105-.564.225-1.13.383-1.682.08-.23.207-.44.374-.615.302-.343.685-.35.996-.019.173.183.318.39.43.615.636 1.298.91 2.697 1.035 4.119.059.671.063 1.26.068 1.848.004.606.009 1.211.073 1.903.14 1.566.308 2.057.726 3.286l.087.259c.128.322.347.444.598.342.235-.096.297-.325.19-.64l-.107-.31v-.001c-.13-.38-.261-.761-.37-1.148-.291-1.187-.308-1.722-.34-2.716-.01-.328-.023-.705-.047-1.172-.07-1.355.654-2.519 1.918-3.007a6.705 6.705 0 012.351-.434 308.72 308.72 0 016.846 0c.803.004 1.6.151 2.35.435 1.016.389 1.64 1.115 1.823 2.184.064.422.083.85.054 1.275-.105 2.053-.382 4.078-1.055 6.032-.51 1.497-1.233 2.87-2.378 3.994a6.012 6.012 0 01-3.954 1.722c-1.486.065-2.102-.001-3.249-.947-.712-.587-1.276-1.3-1.758-2.083-.153-.249-.377-.314-.592-.187-.215.128-.274.364-.128.607l.302.462c.826 1.272 1.31 2.018 3.26 2.791.226.062.477.092.726.122zM24.66 3.539c-1.794 2.286-3.003 4.767-3.423 7.531l-4.645-.256c.658-1.835 1.643-3.475 3.085-4.824 1.397-1.306 3.04-2.113 4.983-2.451zM9.845 10.685l.187.701h.002c-.958.376-1.677.921-2.124 1.85-.037-.124-.07-.241-.102-.353a15.8 15.8 0 00-.19-.64c-.225-.677-.488-1.332-.972-1.87-.553-.616-1.329-.755-1.954-.308-.259.195-.479.437-.648.714-.38.6-.513 1.29-.619 1.983l-.021.14-.036.233-.415.02a51.56 51.56 0 00-.027-.775c-.025-.607-.05-1.207-.022-1.804a7.02 7.02 0 01.31-1.778c.457-1.449 1.545-2.064 3.082-1.84 1.205.173 2.161.757 2.928 1.684a.562.562 0 01.124.183c.168.616.332 1.236.497 1.86zm-1.473 3.826l.08-.067c.037-.03.063-.05.086-.074a3.944 3.944 0 011.537-.943c.83-.285 1.7-.435 2.577-.443 1.899-.036 3.799-.054 5.699-.042.763.01 1.525.068 2.282.174 1.116.149 2.152.507 3.005 1.424-.187-.922-.558-1.62-1.32-2.065-.76-.444-1.602-.61-2.459-.662a63.75 63.75 0 00-7.706 0c-.857.051-1.702.213-2.457.664-.755.45-1.16 1.124-1.324 2.034zm7.64-4.542a13.969 13.969 0 011.608-2.912.287.287 0 00.03-.228 268.475 268.475 0 00-1.27-3.602c-.052-.147-.134-.282-.229-.439-.047-.078-.098-.162-.15-.254-.05.096-.101.184-.149.266-.1.174-.187.326-.245.487-.234.643-.461 1.288-.689 1.933-.177.503-.354 1.006-.535 1.508-.062.172-.012.288.075.433.418.692.826 1.39 1.224 2.093.078.138.141.284.213.45.036.083.074.171.117.265zM4.09 14.485a.807.807 0 01-.758 1.11.81.81 0 01-.803-.815.807.807 0 01.818-.8.81.81 0 01.743.505zm25.14-.255a.807.807 0 01-.874 1.327.81.81 0 01-.496-.767.808.808 0 01.806-.786c.21-.001.413.08.565.226zM13.015 25.639c.903.628 1.911.89 3 .886 1.117-.003 2.151-.273 3.062-.944a.536.536 0 00.232-.558c-.04-.225-.193-.337-.399-.42a5.457 5.457 0 01-.766-.387c-.139-.083-.268-.18-.398-.278a7.176 7.176 0 00-.261-.19c-.41-.278-.843-.305-1.306-.16a.656.656 0 01-.365-.006c-.455-.137-.883-.11-1.28.161-.09.061-.177.126-.263.192-.12.09-.242.182-.373.262a4.259 4.259 0 01-.71.373c-.24.095-.448.19-.49.468-.042.277.104.452.317.6zm4.721-.688l.37.264c-1.412.633-2.786.632-4.2.003l.314-.225c.26-.186.507-.363.756-.538a.579.579 0 01.702 0 .536.536 0 00.649 0c.23-.154.47-.168.703-.005.233.163.464.328.706.501zm1.141-5.247c-.405.08-.803.158-1.197.253-.374.09-.628.06-.813-.169-.184-.23-.18-.49.023-.827 1.185-1.97 3.895-1.951 5.061.034.192.325.19.566 0 .8-.179.219-.422.255-.762.175a42.081 42.081 0 00-1.217-.259 98.794 98.794 0 01-.558-.114c-.18.037-.36.072-.537.107zm2.008-.71c-.922-1.008-2.425-.715-2.893-.013a7.046 7.046 0 012.89.013h.003zm-8.822.711c.18-.035.36-.072.543-.11.169.036.336.07.502.103.431.088.855.174 1.28.273.331.078.582.038.76-.18.178-.22.182-.482.01-.78-1.156-2-3.894-2.024-5.08-.043-.205.344-.21.584-.013.825.183.226.428.257.787.17.4-.096.802-.176 1.21-.258zm1.98-.724c-.62-.797-2.121-.918-2.888.004a7.137 7.137 0 012.888-.004z"/><ellipse cx="9.55" cy="24.693" rx=".523" ry=".524"/></symbol><symbol id="verification-doc" viewBox="0 0 48 48" xmlns="http://www.w3.org/2000/svg"><path clip-rule="evenodd" d="M27.999 7.957l7.484 8.044h-6.056c-.788 0-1.428-.762-1.428-1.7V7.957zm11.481 6.7l-8.89-10a1.995 1.995 0 00-1.48-.655h-16c-2.82 0-5.112 2.244-5.112 5v30c0 2.756 2.292 5 5.112 5h21.776c2.82 0 5.112-2.244 5.112-5v-23c0-.498-.184-.976-.518-1.344z"/></symbol><symbol id="user" viewBox="0 0 14 16" xmlns="http://www.w3.org/2000/svg"><path fill-rule="evenodd" clip-rule="evenodd" d="M7 1.17a2.83 2.83 0 100 5.66 2.83 2.83 0 000-5.66zM3 4a4 4 0 118 0 4 4 0 01-8 0zm-.95 6.88C3.363 9.675 5.143 9 7 9c1.857 0 3.637.676 4.95 1.88 1.313 1.203 2.05 2.835 2.05 4.537a.56.56 0 01-.186.412.667.667 0 01-.45.171H.636a.667.667 0 01-.45-.17.56.56 0 01-.186-.413c0-1.702.737-3.334 2.05-4.538zM7 10.166c-1.519 0-2.976.553-4.05 1.537-.923.846-1.498 1.952-1.642 3.13h11.384c-.144-1.178-.72-2.284-1.642-3.13-1.074-.984-2.531-1.537-4.05-1.537z"/></symbol><symbol id="warning" viewBox="0 0 38 38" xmlns="http://www.w3.org/2000/svg"><path fill-rule="evenodd" clip-rule="evenodd" d="M22.08 4.14c-1.419-2.353-4.7-2.353-6.12 0L.588 29.662c-1.567 2.563.195 5.963 3.035 5.963H34.37c2.89 0 4.603-3.4 3.036-5.963L22.081 4.14zM16.98 22.836h4.244v-10.23H16.98v10.23zm0 3.41v4.264h4.244v-4.263H16.98z"/></symbol><symbol id="verification-account" viewBox="0 0 32 32" xmlns="http://www.w3.org/2000/svg"><path d="M4.636 13.059V9.656c0-.453.547-.75.912-.967 0 0 8.718-4.325 9.894-4.919.376-.194.73-.194 1.107 0l10.315 5.147L16.548 3.77S26.83 8.905 26.864 8.917c.262.182.433.433.502.741 0 1.05.011 2.111.011 3.161-.022.776-.559 1.13-1.243 1.13-5.318-.011-15.211 0-20.528 0-.239-.011-.582-.206-.742-.365-.135-.135-.24-.404-.228-.525zM27.343 24.557s.023 2.651.012 2.822c-.035.582-.457.982-1.039.993H5.857c-.833 0-1.221-.388-1.221-1.22V24.5c0-.742.422-1.164 1.164-1.164l20.06-.011c-1.13 0 1.14 0 0 0 .262.023.536.011.798.068.491.228.685.529.685 1.164zM24.274 15.313h-3.712v6.562h3.712v-6.563zM11.46 15.313H7.716v6.562h3.743v-6.563zM17.868 15.313h-3.673v6.562h3.673v-6.563z"/></symbol></svg>